<?xml version="1.0" encoding="utf-8" standalone="no"?>
<!DOCTYPE svg PUBLIC "-//W3C//DTD SVG 1.1//EN"
  "http://www.w3.org/Graphics/SVG/1.1/DTD/svg11.dtd">
<!-- Created with matplotlib (http://matplotlib.org/) -->
<svg height="345pt" version="1.1" viewBox="0 0 460 345" width="460pt" xmlns="http://www.w3.org/2000/svg" xmlns:xlink="http://www.w3.org/1999/xlink">
 <defs>
  <style type="text/css">
*{stroke-linecap:butt;stroke-linejoin:round;}
  </style>
 </defs>
 <g id="figure_1">
  <g id="patch_1">
   <path d="M 0 345.6 
L 460.8 345.6 
L 460.8 0 
L 0 0 
z
" style="fill:#ffffff;"/>
  </g>
  <g id="axes_1">
   <g id="patch_2">
    <path d="M 57.6 307.584 
L 414.72 307.584 
L 414.72 41.472 
L 57.6 41.472 
z
" style="fill:#ffffff;"/>
   </g>
   <g id="matplotlib.axis_1">
    <g id="xtick_1">
     <g id="line2d_1">
      <defs>
       <path d="M 0 0 
L 0 3.5 
" id="m9779c3e48f" style="stroke:#000000;stroke-width:0.8;"/>
      </defs>
      <g>
       <use style="stroke:#000000;stroke-width:0.8;" x="57.6" xlink:href="#m9779c3e48f" y="307.584"/>
      </g>
     </g>
     <g id="text_1">
      <!-- 0 -->
      <defs>
       <path d="M 31.78125 66.40625 
Q 24.171875 66.40625 20.328125 58.90625 
Q 16.5 51.421875 16.5 36.375 
Q 16.5 21.390625 20.328125 13.890625 
Q 24.171875 6.390625 31.78125 6.390625 
Q 39.453125 6.390625 43.28125 13.890625 
Q 47.125 21.390625 47.125 36.375 
Q 47.125 51.421875 43.28125 58.90625 
Q 39.453125 66.40625 31.78125 66.40625 
M 31.78125 74.21875 
Q 44.046875 74.21875 50.515625 64.515625 
Q 56.984375 54.828125 56.984375 36.375 
Q 56.984375 17.96875 50.515625 8.265625 
Q 44.046875 -1.421875 31.78125 -1.421875 
Q 19.53125 -1.421875 13.0625 8.265625 
Q 6.59375 17.96875 6.59375 36.375 
Q 6.59375 54.828125 13.0625 64.515625 
Q 19.53125 74.21875 31.78125 74.21875 
" id="DejaVuSans-30"/>
      </defs>
      <g transform="translate(54.41875 322.182437)scale(0.1 -0.1)">
       <use xlink:href="#DejaVuSans-30"/>
      </g>
     </g>
    </g>
    <g id="xtick_2">
     <g id="line2d_2">
      <g>
       <use style="stroke:#000000;stroke-width:0.8;" x="129.745455" xlink:href="#m9779c3e48f" y="307.584"/>
      </g>
     </g>
     <g id="text_2">
      <!-- 20 -->
      <defs>
       <path d="M 19.1875 8.296875 
L 53.609375 8.296875 
L 53.609375 0 
L 7.328125 0 
L 7.328125 8.296875 
Q 12.9375 14.109375 22.625 23.890625 
Q 32.328125 33.6875 34.8125 36.53125 
Q 39.546875 41.84375 41.421875 45.53125 
Q 43.3125 49.21875 43.3125 52.78125 
Q 43.3125 58.59375 39.234375 62.25 
Q 35.15625 65.921875 28.609375 65.921875 
Q 23.96875 65.921875 18.8125 64.3125 
Q 13.671875 62.703125 7.8125 59.421875 
L 7.8125 69.390625 
Q 13.765625 71.78125 18.9375 73 
Q 24.125 74.21875 28.421875 74.21875 
Q 39.75 74.21875 46.484375 68.546875 
Q 53.21875 62.890625 53.21875 53.421875 
Q 53.21875 48.921875 51.53125 44.890625 
Q 49.859375 40.875 45.40625 35.40625 
Q 44.1875 33.984375 37.640625 27.21875 
Q 31.109375 20.453125 19.1875 8.296875 
" id="DejaVuSans-32"/>
      </defs>
      <g transform="translate(123.382955 322.182437)scale(0.1 -0.1)">
       <use xlink:href="#DejaVuSans-32"/>
       <use x="63.623047" xlink:href="#DejaVuSans-30"/>
      </g>
     </g>
    </g>
    <g id="xtick_3">
     <g id="line2d_3">
      <g>
       <use style="stroke:#000000;stroke-width:0.8;" x="201.890909" xlink:href="#m9779c3e48f" y="307.584"/>
      </g>
     </g>
     <g id="text_3">
      <!-- 40 -->
      <defs>
       <path d="M 37.796875 64.3125 
L 12.890625 25.390625 
L 37.796875 25.390625 
z
M 35.203125 72.90625 
L 47.609375 72.90625 
L 47.609375 25.390625 
L 58.015625 25.390625 
L 58.015625 17.1875 
L 47.609375 17.1875 
L 47.609375 0 
L 37.796875 0 
L 37.796875 17.1875 
L 4.890625 17.1875 
L 4.890625 26.703125 
z
" id="DejaVuSans-34"/>
      </defs>
      <g transform="translate(195.528409 322.182437)scale(0.1 -0.1)">
       <use xlink:href="#DejaVuSans-34"/>
       <use x="63.623047" xlink:href="#DejaVuSans-30"/>
      </g>
     </g>
    </g>
    <g id="xtick_4">
     <g id="line2d_4">
      <g>
       <use style="stroke:#000000;stroke-width:0.8;" x="274.036364" xlink:href="#m9779c3e48f" y="307.584"/>
      </g>
     </g>
     <g id="text_4">
      <!-- 60 -->
      <defs>
       <path d="M 33.015625 40.375 
Q 26.375 40.375 22.484375 35.828125 
Q 18.609375 31.296875 18.609375 23.390625 
Q 18.609375 15.53125 22.484375 10.953125 
Q 26.375 6.390625 33.015625 6.390625 
Q 39.65625 6.390625 43.53125 10.953125 
Q 47.40625 15.53125 47.40625 23.390625 
Q 47.40625 31.296875 43.53125 35.828125 
Q 39.65625 40.375 33.015625 40.375 
M 52.59375 71.296875 
L 52.59375 62.3125 
Q 48.875 64.0625 45.09375 64.984375 
Q 41.3125 65.921875 37.59375 65.921875 
Q 27.828125 65.921875 22.671875 59.328125 
Q 17.53125 52.734375 16.796875 39.40625 
Q 19.671875 43.65625 24.015625 45.921875 
Q 28.375 48.1875 33.59375 48.1875 
Q 44.578125 48.1875 50.953125 41.515625 
Q 57.328125 34.859375 57.328125 23.390625 
Q 57.328125 12.15625 50.6875 5.359375 
Q 44.046875 -1.421875 33.015625 -1.421875 
Q 20.359375 -1.421875 13.671875 8.265625 
Q 6.984375 17.96875 6.984375 36.375 
Q 6.984375 53.65625 15.1875 63.9375 
Q 23.390625 74.21875 37.203125 74.21875 
Q 40.921875 74.21875 44.703125 73.484375 
Q 48.484375 72.75 52.59375 71.296875 
" id="DejaVuSans-36"/>
      </defs>
      <g transform="translate(267.673864 322.182437)scale(0.1 -0.1)">
       <use xlink:href="#DejaVuSans-36"/>
       <use x="63.623047" xlink:href="#DejaVuSans-30"/>
      </g>
     </g>
    </g>
    <g id="xtick_5">
     <g id="line2d_5">
      <g>
       <use style="stroke:#000000;stroke-width:0.8;" x="346.181818" xlink:href="#m9779c3e48f" y="307.584"/>
      </g>
     </g>
     <g id="text_5">
      <!-- 80 -->
      <defs>
       <path d="M 31.78125 34.625 
Q 24.75 34.625 20.71875 30.859375 
Q 16.703125 27.09375 16.703125 20.515625 
Q 16.703125 13.921875 20.71875 10.15625 
Q 24.75 6.390625 31.78125 6.390625 
Q 38.8125 6.390625 42.859375 10.171875 
Q 46.921875 13.96875 46.921875 20.515625 
Q 46.921875 27.09375 42.890625 30.859375 
Q 38.875 34.625 31.78125 34.625 
M 21.921875 38.8125 
Q 15.578125 40.375 12.03125 44.71875 
Q 8.5 49.078125 8.5 55.328125 
Q 8.5 64.0625 14.71875 69.140625 
Q 20.953125 74.21875 31.78125 74.21875 
Q 42.671875 74.21875 48.875 69.140625 
Q 55.078125 64.0625 55.078125 55.328125 
Q 55.078125 49.078125 51.53125 44.71875 
Q 48 40.375 41.703125 38.8125 
Q 48.828125 37.15625 52.796875 32.3125 
Q 56.78125 27.484375 56.78125 20.515625 
Q 56.78125 9.90625 50.3125 4.234375 
Q 43.84375 -1.421875 31.78125 -1.421875 
Q 19.734375 -1.421875 13.25 4.234375 
Q 6.78125 9.90625 6.78125 20.515625 
Q 6.78125 27.484375 10.78125 32.3125 
Q 14.796875 37.15625 21.921875 38.8125 
M 18.3125 54.390625 
Q 18.3125 48.734375 21.84375 45.5625 
Q 25.390625 42.390625 31.78125 42.390625 
Q 38.140625 42.390625 41.71875 45.5625 
Q 45.3125 48.734375 45.3125 54.390625 
Q 45.3125 60.0625 41.71875 63.234375 
Q 38.140625 66.40625 31.78125 66.40625 
Q 25.390625 66.40625 21.84375 63.234375 
Q 18.3125 60.0625 18.3125 54.390625 
" id="DejaVuSans-38"/>
      </defs>
      <g transform="translate(339.819318 322.182437)scale(0.1 -0.1)">
       <use xlink:href="#DejaVuSans-38"/>
       <use x="63.623047" xlink:href="#DejaVuSans-30"/>
      </g>
     </g>
    </g>
    <g id="text_6">
     <!-- Geracoes -->
     <defs>
      <path d="M 59.515625 10.40625 
L 59.515625 29.984375 
L 43.40625 29.984375 
L 43.40625 38.09375 
L 69.28125 38.09375 
L 69.28125 6.78125 
Q 63.578125 2.734375 56.6875 0.65625 
Q 49.8125 -1.421875 42 -1.421875 
Q 24.90625 -1.421875 15.25 8.5625 
Q 5.609375 18.5625 5.609375 36.375 
Q 5.609375 54.25 15.25 64.234375 
Q 24.90625 74.21875 42 74.21875 
Q 49.125 74.21875 55.546875 72.453125 
Q 61.96875 70.703125 67.390625 67.28125 
L 67.390625 56.78125 
Q 61.921875 61.421875 55.765625 63.765625 
Q 49.609375 66.109375 42.828125 66.109375 
Q 29.4375 66.109375 22.71875 58.640625 
Q 16.015625 51.171875 16.015625 36.375 
Q 16.015625 21.625 22.71875 14.15625 
Q 29.4375 6.6875 42.828125 6.6875 
Q 48.046875 6.6875 52.140625 7.59375 
Q 56.25 8.5 59.515625 10.40625 
" id="DejaVuSans-47"/>
      <path d="M 56.203125 29.59375 
L 56.203125 25.203125 
L 14.890625 25.203125 
Q 15.484375 15.921875 20.484375 11.0625 
Q 25.484375 6.203125 34.421875 6.203125 
Q 39.59375 6.203125 44.453125 7.46875 
Q 49.3125 8.734375 54.109375 11.28125 
L 54.109375 2.78125 
Q 49.265625 0.734375 44.1875 -0.34375 
Q 39.109375 -1.421875 33.890625 -1.421875 
Q 20.796875 -1.421875 13.15625 6.1875 
Q 5.515625 13.8125 5.515625 26.8125 
Q 5.515625 40.234375 12.765625 48.109375 
Q 20.015625 56 32.328125 56 
Q 43.359375 56 49.78125 48.890625 
Q 56.203125 41.796875 56.203125 29.59375 
M 47.21875 32.234375 
Q 47.125 39.59375 43.09375 43.984375 
Q 39.0625 48.390625 32.421875 48.390625 
Q 24.90625 48.390625 20.390625 44.140625 
Q 15.875 39.890625 15.1875 32.171875 
z
" id="DejaVuSans-65"/>
      <path d="M 41.109375 46.296875 
Q 39.59375 47.171875 37.8125 47.578125 
Q 36.03125 48 33.890625 48 
Q 26.265625 48 22.1875 43.046875 
Q 18.109375 38.09375 18.109375 28.8125 
L 18.109375 0 
L 9.078125 0 
L 9.078125 54.6875 
L 18.109375 54.6875 
L 18.109375 46.1875 
Q 20.953125 51.171875 25.484375 53.578125 
Q 30.03125 56 36.53125 56 
Q 37.453125 56 38.578125 55.875 
Q 39.703125 55.765625 41.0625 55.515625 
z
" id="DejaVuSans-72"/>
      <path d="M 34.28125 27.484375 
Q 23.390625 27.484375 19.1875 25 
Q 14.984375 22.515625 14.984375 16.5 
Q 14.984375 11.71875 18.140625 8.90625 
Q 21.296875 6.109375 26.703125 6.109375 
Q 34.1875 6.109375 38.703125 11.40625 
Q 43.21875 16.703125 43.21875 25.484375 
L 43.21875 27.484375 
z
M 52.203125 31.203125 
L 52.203125 0 
L 43.21875 0 
L 43.21875 8.296875 
Q 40.140625 3.328125 35.546875 0.953125 
Q 30.953125 -1.421875 24.3125 -1.421875 
Q 15.921875 -1.421875 10.953125 3.296875 
Q 6 8.015625 6 15.921875 
Q 6 25.140625 12.171875 29.828125 
Q 18.359375 34.515625 30.609375 34.515625 
L 43.21875 34.515625 
L 43.21875 35.40625 
Q 43.21875 41.609375 39.140625 45 
Q 35.0625 48.390625 27.6875 48.390625 
Q 23 48.390625 18.546875 47.265625 
Q 14.109375 46.140625 10.015625 43.890625 
L 10.015625 52.203125 
Q 14.9375 54.109375 19.578125 55.046875 
Q 24.21875 56 28.609375 56 
Q 40.484375 56 46.34375 49.84375 
Q 52.203125 43.703125 52.203125 31.203125 
" id="DejaVuSans-61"/>
      <path d="M 48.78125 52.59375 
L 48.78125 44.1875 
Q 44.96875 46.296875 41.140625 47.34375 
Q 37.3125 48.390625 33.40625 48.390625 
Q 24.65625 48.390625 19.8125 42.84375 
Q 14.984375 37.3125 14.984375 27.296875 
Q 14.984375 17.28125 19.8125 11.734375 
Q 24.65625 6.203125 33.40625 6.203125 
Q 37.3125 6.203125 41.140625 7.25 
Q 44.96875 8.296875 48.78125 10.40625 
L 48.78125 2.09375 
Q 45.015625 0.34375 40.984375 -0.53125 
Q 36.96875 -1.421875 32.421875 -1.421875 
Q 20.0625 -1.421875 12.78125 6.34375 
Q 5.515625 14.109375 5.515625 27.296875 
Q 5.515625 40.671875 12.859375 48.328125 
Q 20.21875 56 33.015625 56 
Q 37.15625 56 41.109375 55.140625 
Q 45.0625 54.296875 48.78125 52.59375 
" id="DejaVuSans-63"/>
      <path d="M 30.609375 48.390625 
Q 23.390625 48.390625 19.1875 42.75 
Q 14.984375 37.109375 14.984375 27.296875 
Q 14.984375 17.484375 19.15625 11.84375 
Q 23.34375 6.203125 30.609375 6.203125 
Q 37.796875 6.203125 41.984375 11.859375 
Q 46.1875 17.53125 46.1875 27.296875 
Q 46.1875 37.015625 41.984375 42.703125 
Q 37.796875 48.390625 30.609375 48.390625 
M 30.609375 56 
Q 42.328125 56 49.015625 48.375 
Q 55.71875 40.765625 55.71875 27.296875 
Q 55.71875 13.875 49.015625 6.21875 
Q 42.328125 -1.421875 30.609375 -1.421875 
Q 18.84375 -1.421875 12.171875 6.21875 
Q 5.515625 13.875 5.515625 27.296875 
Q 5.515625 40.765625 12.171875 48.375 
Q 18.84375 56 30.609375 56 
" id="DejaVuSans-6f"/>
      <path d="M 44.28125 53.078125 
L 44.28125 44.578125 
Q 40.484375 46.53125 36.375 47.5 
Q 32.28125 48.484375 27.875 48.484375 
Q 21.1875 48.484375 17.84375 46.4375 
Q 14.5 44.390625 14.5 40.28125 
Q 14.5 37.15625 16.890625 35.375 
Q 19.28125 33.59375 26.515625 31.984375 
L 29.59375 31.296875 
Q 39.15625 29.25 43.1875 25.515625 
Q 47.21875 21.78125 47.21875 15.09375 
Q 47.21875 7.46875 41.1875 3.015625 
Q 35.15625 -1.421875 24.609375 -1.421875 
Q 20.21875 -1.421875 15.453125 -0.5625 
Q 10.6875 0.296875 5.421875 2 
L 5.421875 11.28125 
Q 10.40625 8.6875 15.234375 7.390625 
Q 20.0625 6.109375 24.8125 6.109375 
Q 31.15625 6.109375 34.5625 8.28125 
Q 37.984375 10.453125 37.984375 14.40625 
Q 37.984375 18.0625 35.515625 20.015625 
Q 33.0625 21.96875 24.703125 23.78125 
L 21.578125 24.515625 
Q 13.234375 26.265625 9.515625 29.90625 
Q 5.8125 33.546875 5.8125 39.890625 
Q 5.8125 47.609375 11.28125 51.796875 
Q 16.75 56 26.8125 56 
Q 31.78125 56 36.171875 55.265625 
Q 40.578125 54.546875 44.28125 53.078125 
" id="DejaVuSans-73"/>
     </defs>
     <g transform="translate(212.599844 335.860562)scale(0.1 -0.1)">
      <use xlink:href="#DejaVuSans-47"/>
      <use x="77.490234" xlink:href="#DejaVuSans-65"/>
      <use x="139.013672" xlink:href="#DejaVuSans-72"/>
      <use x="180.126953" xlink:href="#DejaVuSans-61"/>
      <use x="241.40625" xlink:href="#DejaVuSans-63"/>
      <use x="296.386719" xlink:href="#DejaVuSans-6f"/>
      <use x="357.568359" xlink:href="#DejaVuSans-65"/>
      <use x="419.091797" xlink:href="#DejaVuSans-73"/>
     </g>
    </g>
   </g>
   <g id="matplotlib.axis_2">
    <g id="ytick_1">
     <g id="line2d_6">
      <defs>
       <path d="M 0 0 
L -3.5 0 
" id="m0bad0861ae" style="stroke:#000000;stroke-width:0.8;"/>
      </defs>
      <g>
       <use style="stroke:#000000;stroke-width:0.8;" x="57.6" xlink:href="#m0bad0861ae" y="307.584"/>
      </g>
     </g>
     <g id="text_7">
      <!-- 0 -->
      <g transform="translate(44.2375 311.383219)scale(0.1 -0.1)">
       <use xlink:href="#DejaVuSans-30"/>
      </g>
     </g>
    </g>
    <g id="ytick_2">
     <g id="line2d_7">
      <g>
       <use style="stroke:#000000;stroke-width:0.8;" x="57.6" xlink:href="#m0bad0861ae" y="250.232276"/>
      </g>
     </g>
     <g id="text_8">
      <!-- 5 -->
      <defs>
       <path d="M 10.796875 72.90625 
L 49.515625 72.90625 
L 49.515625 64.59375 
L 19.828125 64.59375 
L 19.828125 46.734375 
Q 21.96875 47.46875 24.109375 47.828125 
Q 26.265625 48.1875 28.421875 48.1875 
Q 40.625 48.1875 47.75 41.5 
Q 54.890625 34.8125 54.890625 23.390625 
Q 54.890625 11.625 47.5625 5.09375 
Q 40.234375 -1.421875 26.90625 -1.421875 
Q 22.3125 -1.421875 17.546875 -0.640625 
Q 12.796875 0.140625 7.71875 1.703125 
L 7.71875 11.625 
Q 12.109375 9.234375 16.796875 8.0625 
Q 21.484375 6.890625 26.703125 6.890625 
Q 35.15625 6.890625 40.078125 11.328125 
Q 45.015625 15.765625 45.015625 23.390625 
Q 45.015625 31 40.078125 35.4375 
Q 35.15625 39.890625 26.703125 39.890625 
Q 22.75 39.890625 18.8125 39.015625 
Q 14.890625 38.140625 10.796875 36.28125 
z
" id="DejaVuSans-35"/>
      </defs>
      <g transform="translate(44.2375 254.031495)scale(0.1 -0.1)">
       <use xlink:href="#DejaVuSans-35"/>
      </g>
     </g>
    </g>
    <g id="ytick_3">
     <g id="line2d_8">
      <g>
       <use style="stroke:#000000;stroke-width:0.8;" x="57.6" xlink:href="#m0bad0861ae" y="192.880552"/>
      </g>
     </g>
     <g id="text_9">
      <!-- 10 -->
      <defs>
       <path d="M 12.40625 8.296875 
L 28.515625 8.296875 
L 28.515625 63.921875 
L 10.984375 60.40625 
L 10.984375 69.390625 
L 28.421875 72.90625 
L 38.28125 72.90625 
L 38.28125 8.296875 
L 54.390625 8.296875 
L 54.390625 0 
L 12.40625 0 
z
" id="DejaVuSans-31"/>
      </defs>
      <g transform="translate(37.875 196.67977)scale(0.1 -0.1)">
       <use xlink:href="#DejaVuSans-31"/>
       <use x="63.623047" xlink:href="#DejaVuSans-30"/>
      </g>
     </g>
    </g>
    <g id="ytick_4">
     <g id="line2d_9">
      <g>
       <use style="stroke:#000000;stroke-width:0.8;" x="57.6" xlink:href="#m0bad0861ae" y="135.528828"/>
      </g>
     </g>
     <g id="text_10">
      <!-- 15 -->
      <g transform="translate(37.875 139.328046)scale(0.1 -0.1)">
       <use xlink:href="#DejaVuSans-31"/>
       <use x="63.623047" xlink:href="#DejaVuSans-35"/>
      </g>
     </g>
    </g>
    <g id="ytick_5">
     <g id="line2d_10">
      <g>
       <use style="stroke:#000000;stroke-width:0.8;" x="57.6" xlink:href="#m0bad0861ae" y="78.177103"/>
      </g>
     </g>
     <g id="text_11">
      <!-- 20 -->
      <g transform="translate(37.875 81.976322)scale(0.1 -0.1)">
       <use xlink:href="#DejaVuSans-32"/>
       <use x="63.623047" xlink:href="#DejaVuSans-30"/>
      </g>
     </g>
    </g>
    <g id="text_12">
     <!-- Individuos Infectados -->
     <defs>
      <path d="M 9.8125 72.90625 
L 19.671875 72.90625 
L 19.671875 0 
L 9.8125 0 
z
" id="DejaVuSans-49"/>
      <path d="M 54.890625 33.015625 
L 54.890625 0 
L 45.90625 0 
L 45.90625 32.71875 
Q 45.90625 40.484375 42.875 44.328125 
Q 39.84375 48.1875 33.796875 48.1875 
Q 26.515625 48.1875 22.3125 43.546875 
Q 18.109375 38.921875 18.109375 30.90625 
L 18.109375 0 
L 9.078125 0 
L 9.078125 54.6875 
L 18.109375 54.6875 
L 18.109375 46.1875 
Q 21.34375 51.125 25.703125 53.5625 
Q 30.078125 56 35.796875 56 
Q 45.21875 56 50.046875 50.171875 
Q 54.890625 44.34375 54.890625 33.015625 
" id="DejaVuSans-6e"/>
      <path d="M 45.40625 46.390625 
L 45.40625 75.984375 
L 54.390625 75.984375 
L 54.390625 0 
L 45.40625 0 
L 45.40625 8.203125 
Q 42.578125 3.328125 38.25 0.953125 
Q 33.9375 -1.421875 27.875 -1.421875 
Q 17.96875 -1.421875 11.734375 6.484375 
Q 5.515625 14.40625 5.515625 27.296875 
Q 5.515625 40.1875 11.734375 48.09375 
Q 17.96875 56 27.875 56 
Q 33.9375 56 38.25 53.625 
Q 42.578125 51.265625 45.40625 46.390625 
M 14.796875 27.296875 
Q 14.796875 17.390625 18.875 11.75 
Q 22.953125 6.109375 30.078125 6.109375 
Q 37.203125 6.109375 41.296875 11.75 
Q 45.40625 17.390625 45.40625 27.296875 
Q 45.40625 37.203125 41.296875 42.84375 
Q 37.203125 48.484375 30.078125 48.484375 
Q 22.953125 48.484375 18.875 42.84375 
Q 14.796875 37.203125 14.796875 27.296875 
" id="DejaVuSans-64"/>
      <path d="M 9.421875 54.6875 
L 18.40625 54.6875 
L 18.40625 0 
L 9.421875 0 
z
M 9.421875 75.984375 
L 18.40625 75.984375 
L 18.40625 64.59375 
L 9.421875 64.59375 
z
" id="DejaVuSans-69"/>
      <path d="M 2.984375 54.6875 
L 12.5 54.6875 
L 29.59375 8.796875 
L 46.6875 54.6875 
L 56.203125 54.6875 
L 35.6875 0 
L 23.484375 0 
z
" id="DejaVuSans-76"/>
      <path d="M 8.5 21.578125 
L 8.5 54.6875 
L 17.484375 54.6875 
L 17.484375 21.921875 
Q 17.484375 14.15625 20.5 10.265625 
Q 23.53125 6.390625 29.59375 6.390625 
Q 36.859375 6.390625 41.078125 11.03125 
Q 45.3125 15.671875 45.3125 23.6875 
L 45.3125 54.6875 
L 54.296875 54.6875 
L 54.296875 0 
L 45.3125 0 
L 45.3125 8.40625 
Q 42.046875 3.421875 37.71875 1 
Q 33.40625 -1.421875 27.6875 -1.421875 
Q 18.265625 -1.421875 13.375 4.4375 
Q 8.5 10.296875 8.5 21.578125 
M 31.109375 56 
z
" id="DejaVuSans-75"/>
      <path id="DejaVuSans-20"/>
      <path d="M 37.109375 75.984375 
L 37.109375 68.5 
L 28.515625 68.5 
Q 23.6875 68.5 21.796875 66.546875 
Q 19.921875 64.59375 19.921875 59.515625 
L 19.921875 54.6875 
L 34.71875 54.6875 
L 34.71875 47.703125 
L 19.921875 47.703125 
L 19.921875 0 
L 10.890625 0 
L 10.890625 47.703125 
L 2.296875 47.703125 
L 2.296875 54.6875 
L 10.890625 54.6875 
L 10.890625 58.5 
Q 10.890625 67.625 15.140625 71.796875 
Q 19.390625 75.984375 28.609375 75.984375 
z
" id="DejaVuSans-66"/>
      <path d="M 18.3125 70.21875 
L 18.3125 54.6875 
L 36.8125 54.6875 
L 36.8125 47.703125 
L 18.3125 47.703125 
L 18.3125 18.015625 
Q 18.3125 11.328125 20.140625 9.421875 
Q 21.96875 7.515625 27.59375 7.515625 
L 36.8125 7.515625 
L 36.8125 0 
L 27.59375 0 
Q 17.1875 0 13.234375 3.875 
Q 9.28125 7.765625 9.28125 18.015625 
L 9.28125 47.703125 
L 2.6875 47.703125 
L 2.6875 54.6875 
L 9.28125 54.6875 
L 9.28125 70.21875 
z
" id="DejaVuSans-74"/>
     </defs>
     <g transform="translate(31.795312 227.77175)rotate(-90)scale(0.1 -0.1)">
      <use xlink:href="#DejaVuSans-49"/>
      <use x="29.492188" xlink:href="#DejaVuSans-6e"/>
      <use x="92.871094" xlink:href="#DejaVuSans-64"/>
      <use x="156.347656" xlink:href="#DejaVuSans-69"/>
      <use x="184.130859" xlink:href="#DejaVuSans-76"/>
      <use x="243.310547" xlink:href="#DejaVuSans-69"/>
      <use x="271.09375" xlink:href="#DejaVuSans-64"/>
      <use x="334.570312" xlink:href="#DejaVuSans-75"/>
      <use x="397.949219" xlink:href="#DejaVuSans-6f"/>
      <use x="459.130859" xlink:href="#DejaVuSans-73"/>
      <use x="511.230469" xlink:href="#DejaVuSans-20"/>
      <use x="543.017578" xlink:href="#DejaVuSans-49"/>
      <use x="572.509766" xlink:href="#DejaVuSans-6e"/>
      <use x="635.888672" xlink:href="#DejaVuSans-66"/>
      <use x="671.09375" xlink:href="#DejaVuSans-65"/>
      <use x="732.617188" xlink:href="#DejaVuSans-63"/>
      <use x="787.597656" xlink:href="#DejaVuSans-74"/>
      <use x="826.806641" xlink:href="#DejaVuSans-61"/>
      <use x="888.085938" xlink:href="#DejaVuSans-64"/>
      <use x="951.5625" xlink:href="#DejaVuSans-6f"/>
      <use x="1012.744141" xlink:href="#DejaVuSans-73"/>
     </g>
    </g>
   </g>
   <g id="line2d_11">
    <defs>
     <path d="M 0 3 
C 0.795609 3 1.55874 2.683901 2.12132 2.12132 
C 2.683901 1.55874 3 0.795609 3 0 
C 3 -0.795609 2.683901 -1.55874 2.12132 -2.12132 
C 1.55874 -2.683901 0.795609 -3 0 -3 
C -0.795609 -3 -1.55874 -2.683901 -2.12132 -2.12132 
C -2.683901 -1.55874 -3 -0.795609 -3 0 
C -3 0.795609 -2.683901 1.55874 -2.12132 2.12132 
C -1.55874 2.683901 -0.795609 3 0 3 
z
" id="m833d950a73" style="stroke:#ff0000;"/>
    </defs>
    <g clip-path="url(#pfa9a6e5f79)">
     <use style="fill:#ff0000;stroke:#ff0000;" x="57.6" xlink:href="#m833d950a73" y="48.354207"/>
     <use style="fill:#ff0000;stroke:#ff0000;" x="61.207273" xlink:href="#m833d950a73" y="41.472"/>
     <use style="fill:#ff0000;stroke:#ff0000;" x="64.814545" xlink:href="#m833d950a73" y="64.41269"/>
     <use style="fill:#ff0000;stroke:#ff0000;" x="68.421818" xlink:href="#m833d950a73" y="79.324138"/>
     <use style="fill:#ff0000;stroke:#ff0000;" x="72.029091" xlink:href="#m833d950a73" y="80.471172"/>
     <use style="fill:#ff0000;stroke:#ff0000;" x="75.636364" xlink:href="#m833d950a73" y="97.67669"/>
     <use style="fill:#ff0000;stroke:#ff0000;" x="79.243636" xlink:href="#m833d950a73" y="105.705931"/>
     <use style="fill:#ff0000;stroke:#ff0000;" x="82.850909" xlink:href="#m833d950a73" y="126.352552"/>
     <use style="fill:#ff0000;stroke:#ff0000;" x="86.458182" xlink:href="#m833d950a73" y="133.234759"/>
     <use style="fill:#ff0000;stroke:#ff0000;" x="90.065455" xlink:href="#m833d950a73" y="142.411034"/>
     <use style="fill:#ff0000;stroke:#ff0000;" x="93.672727" xlink:href="#m833d950a73" y="146.999172"/>
     <use style="fill:#ff0000;stroke:#ff0000;" x="97.28" xlink:href="#m833d950a73" y="156.175448"/>
     <use style="fill:#ff0000;stroke:#ff0000;" x="100.887273" xlink:href="#m833d950a73" y="180.263172"/>
     <use style="fill:#ff0000;stroke:#ff0000;" x="104.494545" xlink:href="#m833d950a73" y="169.939862"/>
     <use style="fill:#ff0000;stroke:#ff0000;" x="108.101818" xlink:href="#m833d950a73" y="181.410207"/>
     <use style="fill:#ff0000;stroke:#ff0000;" x="111.709091" xlink:href="#m833d950a73" y="179.116138"/>
     <use style="fill:#ff0000;stroke:#ff0000;" x="115.316364" xlink:href="#m833d950a73" y="179.116138"/>
     <use style="fill:#ff0000;stroke:#ff0000;" x="118.923636" xlink:href="#m833d950a73" y="195.174621"/>
     <use style="fill:#ff0000;stroke:#ff0000;" x="122.530909" xlink:href="#m833d950a73" y="196.321655"/>
     <use style="fill:#ff0000;stroke:#ff0000;" x="126.138182" xlink:href="#m833d950a73" y="207.792"/>
     <use style="fill:#ff0000;stroke:#ff0000;" x="129.745455" xlink:href="#m833d950a73" y="194.027586"/>
     <use style="fill:#ff0000;stroke:#ff0000;" x="133.352727" xlink:href="#m833d950a73" y="206.644966"/>
     <use style="fill:#ff0000;stroke:#ff0000;" x="136.96" xlink:href="#m833d950a73" y="207.792"/>
     <use style="fill:#ff0000;stroke:#ff0000;" x="140.567273" xlink:href="#m833d950a73" y="222.703448"/>
     <use style="fill:#ff0000;stroke:#ff0000;" x="144.174545" xlink:href="#m833d950a73" y="220.409379"/>
     <use style="fill:#ff0000;stroke:#ff0000;" x="147.781818" xlink:href="#m833d950a73" y="226.144552"/>
     <use style="fill:#ff0000;stroke:#ff0000;" x="151.389091" xlink:href="#m833d950a73" y="222.703448"/>
     <use style="fill:#ff0000;stroke:#ff0000;" x="154.996364" xlink:href="#m833d950a73" y="227.291586"/>
     <use style="fill:#ff0000;stroke:#ff0000;" x="158.603636" xlink:href="#m833d950a73" y="229.585655"/>
     <use style="fill:#ff0000;stroke:#ff0000;" x="162.210909" xlink:href="#m833d950a73" y="226.144552"/>
     <use style="fill:#ff0000;stroke:#ff0000;" x="165.818182" xlink:href="#m833d950a73" y="229.585655"/>
     <use style="fill:#ff0000;stroke:#ff0000;" x="169.425455" xlink:href="#m833d950a73" y="237.614897"/>
     <use style="fill:#ff0000;stroke:#ff0000;" x="173.032727" xlink:href="#m833d950a73" y="236.467862"/>
     <use style="fill:#ff0000;stroke:#ff0000;" x="176.64" xlink:href="#m833d950a73" y="237.614897"/>
     <use style="fill:#ff0000;stroke:#ff0000;" x="180.247273" xlink:href="#m833d950a73" y="239.908966"/>
     <use style="fill:#ff0000;stroke:#ff0000;" x="183.854545" xlink:href="#m833d950a73" y="238.761931"/>
     <use style="fill:#ff0000;stroke:#ff0000;" x="187.461818" xlink:href="#m833d950a73" y="244.497103"/>
     <use style="fill:#ff0000;stroke:#ff0000;" x="191.069091" xlink:href="#m833d950a73" y="251.37931"/>
     <use style="fill:#ff0000;stroke:#ff0000;" x="194.676364" xlink:href="#m833d950a73" y="251.37931"/>
     <use style="fill:#ff0000;stroke:#ff0000;" x="198.283636" xlink:href="#m833d950a73" y="251.37931"/>
     <use style="fill:#ff0000;stroke:#ff0000;" x="201.890909" xlink:href="#m833d950a73" y="260.555586"/>
     <use style="fill:#ff0000;stroke:#ff0000;" x="205.498182" xlink:href="#m833d950a73" y="253.673379"/>
     <use style="fill:#ff0000;stroke:#ff0000;" x="209.105455" xlink:href="#m833d950a73" y="258.261517"/>
     <use style="fill:#ff0000;stroke:#ff0000;" x="212.712727" xlink:href="#m833d950a73" y="263.99669"/>
     <use style="fill:#ff0000;stroke:#ff0000;" x="216.32" xlink:href="#m833d950a73" y="267.437793"/>
     <use style="fill:#ff0000;stroke:#ff0000;" x="219.927273" xlink:href="#m833d950a73" y="266.290759"/>
     <use style="fill:#ff0000;stroke:#ff0000;" x="223.534545" xlink:href="#m833d950a73" y="267.437793"/>
     <use style="fill:#ff0000;stroke:#ff0000;" x="227.141818" xlink:href="#m833d950a73" y="268.584828"/>
     <use style="fill:#ff0000;stroke:#ff0000;" x="230.749091" xlink:href="#m833d950a73" y="269.731862"/>
     <use style="fill:#ff0000;stroke:#ff0000;" x="234.356364" xlink:href="#m833d950a73" y="266.290759"/>
     <use style="fill:#ff0000;stroke:#ff0000;" x="237.963636" xlink:href="#m833d950a73" y="266.290759"/>
     <use style="fill:#ff0000;stroke:#ff0000;" x="241.570909" xlink:href="#m833d950a73" y="272.025931"/>
     <use style="fill:#ff0000;stroke:#ff0000;" x="245.178182" xlink:href="#m833d950a73" y="277.761103"/>
     <use style="fill:#ff0000;stroke:#ff0000;" x="248.785455" xlink:href="#m833d950a73" y="278.908138"/>
     <use style="fill:#ff0000;stroke:#ff0000;" x="252.392727" xlink:href="#m833d950a73" y="276.614069"/>
     <use style="fill:#ff0000;stroke:#ff0000;" x="256" xlink:href="#m833d950a73" y="282.349241"/>
     <use style="fill:#ff0000;stroke:#ff0000;" x="259.607273" xlink:href="#m833d950a73" y="281.202207"/>
     <use style="fill:#ff0000;stroke:#ff0000;" x="263.214545" xlink:href="#m833d950a73" y="283.496276"/>
     <use style="fill:#ff0000;stroke:#ff0000;" x="266.821818" xlink:href="#m833d950a73" y="284.64331"/>
     <use style="fill:#ff0000;stroke:#ff0000;" x="270.429091" xlink:href="#m833d950a73" y="281.202207"/>
     <use style="fill:#ff0000;stroke:#ff0000;" x="274.036364" xlink:href="#m833d950a73" y="286.937379"/>
     <use style="fill:#ff0000;stroke:#ff0000;" x="277.643636" xlink:href="#m833d950a73" y="286.937379"/>
     <use style="fill:#ff0000;stroke:#ff0000;" x="281.250909" xlink:href="#m833d950a73" y="286.937379"/>
     <use style="fill:#ff0000;stroke:#ff0000;" x="284.858182" xlink:href="#m833d950a73" y="289.231448"/>
     <use style="fill:#ff0000;stroke:#ff0000;" x="288.465455" xlink:href="#m833d950a73" y="289.231448"/>
     <use style="fill:#ff0000;stroke:#ff0000;" x="292.072727" xlink:href="#m833d950a73" y="293.819586"/>
     <use style="fill:#ff0000;stroke:#ff0000;" x="295.68" xlink:href="#m833d950a73" y="291.525517"/>
     <use style="fill:#ff0000;stroke:#ff0000;" x="299.287273" xlink:href="#m833d950a73" y="291.525517"/>
     <use style="fill:#ff0000;stroke:#ff0000;" x="302.894545" xlink:href="#m833d950a73" y="288.084414"/>
     <use style="fill:#ff0000;stroke:#ff0000;" x="306.501818" xlink:href="#m833d950a73" y="296.113655"/>
     <use style="fill:#ff0000;stroke:#ff0000;" x="310.109091" xlink:href="#m833d950a73" y="291.525517"/>
     <use style="fill:#ff0000;stroke:#ff0000;" x="313.716364" xlink:href="#m833d950a73" y="292.672552"/>
     <use style="fill:#ff0000;stroke:#ff0000;" x="317.323636" xlink:href="#m833d950a73" y="293.819586"/>
     <use style="fill:#ff0000;stroke:#ff0000;" x="320.930909" xlink:href="#m833d950a73" y="293.819586"/>
     <use style="fill:#ff0000;stroke:#ff0000;" x="324.538182" xlink:href="#m833d950a73" y="300.701793"/>
     <use style="fill:#ff0000;stroke:#ff0000;" x="328.145455" xlink:href="#m833d950a73" y="296.113655"/>
     <use style="fill:#ff0000;stroke:#ff0000;" x="331.752727" xlink:href="#m833d950a73" y="299.554759"/>
     <use style="fill:#ff0000;stroke:#ff0000;" x="335.36" xlink:href="#m833d950a73" y="302.995862"/>
     <use style="fill:#ff0000;stroke:#ff0000;" x="338.967273" xlink:href="#m833d950a73" y="299.554759"/>
     <use style="fill:#ff0000;stroke:#ff0000;" x="342.574545" xlink:href="#m833d950a73" y="298.407724"/>
     <use style="fill:#ff0000;stroke:#ff0000;" x="346.181818" xlink:href="#m833d950a73" y="299.554759"/>
     <use style="fill:#ff0000;stroke:#ff0000;" x="349.789091" xlink:href="#m833d950a73" y="298.407724"/>
     <use style="fill:#ff0000;stroke:#ff0000;" x="353.396364" xlink:href="#m833d950a73" y="299.554759"/>
     <use style="fill:#ff0000;stroke:#ff0000;" x="357.003636" xlink:href="#m833d950a73" y="302.995862"/>
     <use style="fill:#ff0000;stroke:#ff0000;" x="360.610909" xlink:href="#m833d950a73" y="296.113655"/>
     <use style="fill:#ff0000;stroke:#ff0000;" x="364.218182" xlink:href="#m833d950a73" y="300.701793"/>
     <use style="fill:#ff0000;stroke:#ff0000;" x="367.825455" xlink:href="#m833d950a73" y="297.26069"/>
     <use style="fill:#ff0000;stroke:#ff0000;" x="371.432727" xlink:href="#m833d950a73" y="299.554759"/>
     <use style="fill:#ff0000;stroke:#ff0000;" x="375.04" xlink:href="#m833d950a73" y="302.995862"/>
     <use style="fill:#ff0000;stroke:#ff0000;" x="378.647273" xlink:href="#m833d950a73" y="301.848828"/>
     <use style="fill:#ff0000;stroke:#ff0000;" x="382.254545" xlink:href="#m833d950a73" y="300.701793"/>
     <use style="fill:#ff0000;stroke:#ff0000;" x="385.861818" xlink:href="#m833d950a73" y="300.701793"/>
     <use style="fill:#ff0000;stroke:#ff0000;" x="389.469091" xlink:href="#m833d950a73" y="300.701793"/>
     <use style="fill:#ff0000;stroke:#ff0000;" x="393.076364" xlink:href="#m833d950a73" y="299.554759"/>
     <use style="fill:#ff0000;stroke:#ff0000;" x="396.683636" xlink:href="#m833d950a73" y="300.701793"/>
     <use style="fill:#ff0000;stroke:#ff0000;" x="400.290909" xlink:href="#m833d950a73" y="300.701793"/>
     <use style="fill:#ff0000;stroke:#ff0000;" x="403.898182" xlink:href="#m833d950a73" y="302.995862"/>
     <use style="fill:#ff0000;stroke:#ff0000;" x="407.505455" xlink:href="#m833d950a73" y="296.113655"/>
     <use style="fill:#ff0000;stroke:#ff0000;" x="411.112727" xlink:href="#m833d950a73" y="298.407724"/>
    </g>
   </g>
   <g id="patch_3">
    <path d="M 57.6 307.584 
L 57.6 41.472 
" style="fill:none;stroke:#000000;stroke-linecap:square;stroke-linejoin:miter;stroke-width:0.8;"/>
   </g>
   <g id="patch_4">
    <path d="M 414.72 307.584 
L 414.72 41.472 
" style="fill:none;stroke:#000000;stroke-linecap:square;stroke-linejoin:miter;stroke-width:0.8;"/>
   </g>
   <g id="patch_5">
    <path d="M 57.6 307.584 
L 414.72 307.584 
" style="fill:none;stroke:#000000;stroke-linecap:square;stroke-linejoin:miter;stroke-width:0.8;"/>
   </g>
   <g id="patch_6">
    <path d="M 57.6 41.472 
L 414.72 41.472 
" style="fill:none;stroke:#000000;stroke-linecap:square;stroke-linejoin:miter;stroke-width:0.8;"/>
   </g>
   <g id="text_13">
    <!-- GASIR - Genetic Algorithm for SIR Model - Media -->
    <defs>
     <path d="M 34.1875 63.1875 
L 20.796875 26.90625 
L 47.609375 26.90625 
z
M 28.609375 72.90625 
L 39.796875 72.90625 
L 67.578125 0 
L 57.328125 0 
L 50.6875 18.703125 
L 17.828125 18.703125 
L 11.1875 0 
L 0.78125 0 
z
" id="DejaVuSans-41"/>
     <path d="M 53.515625 70.515625 
L 53.515625 60.890625 
Q 47.90625 63.578125 42.921875 64.890625 
Q 37.9375 66.21875 33.296875 66.21875 
Q 25.25 66.21875 20.875 63.09375 
Q 16.5 59.96875 16.5 54.203125 
Q 16.5 49.359375 19.40625 46.890625 
Q 22.3125 44.4375 30.421875 42.921875 
L 36.375 41.703125 
Q 47.40625 39.59375 52.65625 34.296875 
Q 57.90625 29 57.90625 20.125 
Q 57.90625 9.515625 50.796875 4.046875 
Q 43.703125 -1.421875 29.984375 -1.421875 
Q 24.8125 -1.421875 18.96875 -0.25 
Q 13.140625 0.921875 6.890625 3.21875 
L 6.890625 13.375 
Q 12.890625 10.015625 18.65625 8.296875 
Q 24.421875 6.59375 29.984375 6.59375 
Q 38.421875 6.59375 43.015625 9.90625 
Q 47.609375 13.234375 47.609375 19.390625 
Q 47.609375 24.75 44.3125 27.78125 
Q 41.015625 30.8125 33.5 32.328125 
L 27.484375 33.5 
Q 16.453125 35.6875 11.515625 40.375 
Q 6.59375 45.0625 6.59375 53.421875 
Q 6.59375 63.09375 13.40625 68.65625 
Q 20.21875 74.21875 32.171875 74.21875 
Q 37.3125 74.21875 42.625 73.28125 
Q 47.953125 72.359375 53.515625 70.515625 
" id="DejaVuSans-53"/>
     <path d="M 44.390625 34.1875 
Q 47.5625 33.109375 50.5625 29.59375 
Q 53.5625 26.078125 56.59375 19.921875 
L 66.609375 0 
L 56 0 
L 46.6875 18.703125 
Q 43.0625 26.03125 39.671875 28.421875 
Q 36.28125 30.8125 30.421875 30.8125 
L 19.671875 30.8125 
L 19.671875 0 
L 9.8125 0 
L 9.8125 72.90625 
L 32.078125 72.90625 
Q 44.578125 72.90625 50.734375 67.671875 
Q 56.890625 62.453125 56.890625 51.90625 
Q 56.890625 45.015625 53.6875 40.46875 
Q 50.484375 35.9375 44.390625 34.1875 
M 19.671875 64.796875 
L 19.671875 38.921875 
L 32.078125 38.921875 
Q 39.203125 38.921875 42.84375 42.21875 
Q 46.484375 45.515625 46.484375 51.90625 
Q 46.484375 58.296875 42.84375 61.546875 
Q 39.203125 64.796875 32.078125 64.796875 
z
" id="DejaVuSans-52"/>
     <path d="M 4.890625 31.390625 
L 31.203125 31.390625 
L 31.203125 23.390625 
L 4.890625 23.390625 
z
" id="DejaVuSans-2d"/>
     <path d="M 9.421875 75.984375 
L 18.40625 75.984375 
L 18.40625 0 
L 9.421875 0 
z
" id="DejaVuSans-6c"/>
     <path d="M 45.40625 27.984375 
Q 45.40625 37.75 41.375 43.109375 
Q 37.359375 48.484375 30.078125 48.484375 
Q 22.859375 48.484375 18.828125 43.109375 
Q 14.796875 37.75 14.796875 27.984375 
Q 14.796875 18.265625 18.828125 12.890625 
Q 22.859375 7.515625 30.078125 7.515625 
Q 37.359375 7.515625 41.375 12.890625 
Q 45.40625 18.265625 45.40625 27.984375 
M 54.390625 6.78125 
Q 54.390625 -7.171875 48.1875 -13.984375 
Q 42 -20.796875 29.203125 -20.796875 
Q 24.46875 -20.796875 20.265625 -20.09375 
Q 16.0625 -19.390625 12.109375 -17.921875 
L 12.109375 -9.1875 
Q 16.0625 -11.328125 19.921875 -12.34375 
Q 23.78125 -13.375 27.78125 -13.375 
Q 36.625 -13.375 41.015625 -8.765625 
Q 45.40625 -4.15625 45.40625 5.171875 
L 45.40625 9.625 
Q 42.625 4.78125 38.28125 2.390625 
Q 33.9375 0 27.875 0 
Q 17.828125 0 11.671875 7.65625 
Q 5.515625 15.328125 5.515625 27.984375 
Q 5.515625 40.671875 11.671875 48.328125 
Q 17.828125 56 27.875 56 
Q 33.9375 56 38.28125 53.609375 
Q 42.625 51.21875 45.40625 46.390625 
L 45.40625 54.6875 
L 54.390625 54.6875 
z
" id="DejaVuSans-67"/>
     <path d="M 54.890625 33.015625 
L 54.890625 0 
L 45.90625 0 
L 45.90625 32.71875 
Q 45.90625 40.484375 42.875 44.328125 
Q 39.84375 48.1875 33.796875 48.1875 
Q 26.515625 48.1875 22.3125 43.546875 
Q 18.109375 38.921875 18.109375 30.90625 
L 18.109375 0 
L 9.078125 0 
L 9.078125 75.984375 
L 18.109375 75.984375 
L 18.109375 46.1875 
Q 21.34375 51.125 25.703125 53.5625 
Q 30.078125 56 35.796875 56 
Q 45.21875 56 50.046875 50.171875 
Q 54.890625 44.34375 54.890625 33.015625 
" id="DejaVuSans-68"/>
     <path d="M 52 44.1875 
Q 55.375 50.25 60.0625 53.125 
Q 64.75 56 71.09375 56 
Q 79.640625 56 84.28125 50.015625 
Q 88.921875 44.046875 88.921875 33.015625 
L 88.921875 0 
L 79.890625 0 
L 79.890625 32.71875 
Q 79.890625 40.578125 77.09375 44.375 
Q 74.3125 48.1875 68.609375 48.1875 
Q 61.625 48.1875 57.5625 43.546875 
Q 53.515625 38.921875 53.515625 30.90625 
L 53.515625 0 
L 44.484375 0 
L 44.484375 32.71875 
Q 44.484375 40.625 41.703125 44.40625 
Q 38.921875 48.1875 33.109375 48.1875 
Q 26.21875 48.1875 22.15625 43.53125 
Q 18.109375 38.875 18.109375 30.90625 
L 18.109375 0 
L 9.078125 0 
L 9.078125 54.6875 
L 18.109375 54.6875 
L 18.109375 46.1875 
Q 21.1875 51.21875 25.484375 53.609375 
Q 29.78125 56 35.6875 56 
Q 41.65625 56 45.828125 52.96875 
Q 50 49.953125 52 44.1875 
" id="DejaVuSans-6d"/>
     <path d="M 9.8125 72.90625 
L 24.515625 72.90625 
L 43.109375 23.296875 
L 61.8125 72.90625 
L 76.515625 72.90625 
L 76.515625 0 
L 66.890625 0 
L 66.890625 64.015625 
L 48.09375 14.015625 
L 38.1875 14.015625 
L 19.390625 64.015625 
L 19.390625 0 
L 9.8125 0 
z
" id="DejaVuSans-4d"/>
    </defs>
    <g transform="translate(91.500937 35.472)scale(0.12 -0.12)">
     <use xlink:href="#DejaVuSans-47"/>
     <use x="77.490234" xlink:href="#DejaVuSans-41"/>
     <use x="145.898438" xlink:href="#DejaVuSans-53"/>
     <use x="209.375" xlink:href="#DejaVuSans-49"/>
     <use x="238.867188" xlink:href="#DejaVuSans-52"/>
     <use x="308.349609" xlink:href="#DejaVuSans-20"/>
     <use x="340.136719" xlink:href="#DejaVuSans-2d"/>
     <use x="376.220703" xlink:href="#DejaVuSans-20"/>
     <use x="408.007812" xlink:href="#DejaVuSans-47"/>
     <use x="485.498047" xlink:href="#DejaVuSans-65"/>
     <use x="547.021484" xlink:href="#DejaVuSans-6e"/>
     <use x="610.400391" xlink:href="#DejaVuSans-65"/>
     <use x="671.923828" xlink:href="#DejaVuSans-74"/>
     <use x="711.132812" xlink:href="#DejaVuSans-69"/>
     <use x="738.916016" xlink:href="#DejaVuSans-63"/>
     <use x="793.896484" xlink:href="#DejaVuSans-20"/>
     <use x="825.683594" xlink:href="#DejaVuSans-41"/>
     <use x="894.091797" xlink:href="#DejaVuSans-6c"/>
     <use x="921.875" xlink:href="#DejaVuSans-67"/>
     <use x="985.351562" xlink:href="#DejaVuSans-6f"/>
     <use x="1046.533203" xlink:href="#DejaVuSans-72"/>
     <use x="1087.646484" xlink:href="#DejaVuSans-69"/>
     <use x="1115.429688" xlink:href="#DejaVuSans-74"/>
     <use x="1154.638672" xlink:href="#DejaVuSans-68"/>
     <use x="1218.017578" xlink:href="#DejaVuSans-6d"/>
     <use x="1315.429688" xlink:href="#DejaVuSans-20"/>
     <use x="1347.216797" xlink:href="#DejaVuSans-66"/>
     <use x="1382.421875" xlink:href="#DejaVuSans-6f"/>
     <use x="1443.603516" xlink:href="#DejaVuSans-72"/>
     <use x="1484.716797" xlink:href="#DejaVuSans-20"/>
     <use x="1516.503906" xlink:href="#DejaVuSans-53"/>
     <use x="1579.980469" xlink:href="#DejaVuSans-49"/>
     <use x="1609.472656" xlink:href="#DejaVuSans-52"/>
     <use x="1678.955078" xlink:href="#DejaVuSans-20"/>
     <use x="1710.742188" xlink:href="#DejaVuSans-4d"/>
     <use x="1797.021484" xlink:href="#DejaVuSans-6f"/>
     <use x="1858.203125" xlink:href="#DejaVuSans-64"/>
     <use x="1921.679688" xlink:href="#DejaVuSans-65"/>
     <use x="1983.203125" xlink:href="#DejaVuSans-6c"/>
     <use x="2010.986328" xlink:href="#DejaVuSans-20"/>
     <use x="2042.773438" xlink:href="#DejaVuSans-2d"/>
     <use x="2078.857422" xlink:href="#DejaVuSans-20"/>
     <use x="2110.644531" xlink:href="#DejaVuSans-4d"/>
     <use x="2196.923828" xlink:href="#DejaVuSans-65"/>
     <use x="2258.447266" xlink:href="#DejaVuSans-64"/>
     <use x="2321.923828" xlink:href="#DejaVuSans-69"/>
     <use x="2349.707031" xlink:href="#DejaVuSans-61"/>
    </g>
   </g>
  </g>
 </g>
 <defs>
  <clipPath id="pfa9a6e5f79">
   <rect height="266.112" width="357.12" x="57.6" y="41.472"/>
  </clipPath>
 </defs>
</svg>
