<?xml version="1.0" encoding="utf-8" standalone="no"?>
<!DOCTYPE svg PUBLIC "-//W3C//DTD SVG 1.1//EN"
  "http://www.w3.org/Graphics/SVG/1.1/DTD/svg11.dtd">
<!-- Created with matplotlib (http://matplotlib.org/) -->
<svg height="345pt" version="1.1" viewBox="0 0 460 345" width="460pt" xmlns="http://www.w3.org/2000/svg" xmlns:xlink="http://www.w3.org/1999/xlink">
 <defs>
  <style type="text/css">
*{stroke-linecap:butt;stroke-linejoin:round;}
  </style>
 </defs>
 <g id="figure_1">
  <g id="patch_1">
   <path d="M 0 345.6 
L 460.8 345.6 
L 460.8 0 
L 0 0 
z
" style="fill:#ffffff;"/>
  </g>
  <g id="axes_1">
   <g id="patch_2">
    <path d="M 57.6 307.584 
L 414.72 307.584 
L 414.72 41.472 
L 57.6 41.472 
z
" style="fill:#ffffff;"/>
   </g>
   <g id="patch_3">
    <path clip-path="url(#p7ce6ea3e2d)" d="M 73.832727 307.584 
L 75.145789 307.584 
L 75.145789 275.904 
L 73.832727 275.904 
z
" style="fill:#472d7b;opacity:0.5;stroke:#472d7b;stroke-linejoin:miter;"/>
   </g>
   <g id="patch_4">
    <path clip-path="url(#p7ce6ea3e2d)" d="M 75.474055 307.584 
L 76.787116 307.584 
L 76.787116 212.544 
L 75.474055 212.544 
z
" style="fill:#2c728e;opacity:0.5;stroke:#2c728e;stroke-linejoin:miter;"/>
   </g>
   <g id="patch_5">
    <path clip-path="url(#p7ce6ea3e2d)" d="M 77.115382 307.584 
L 78.428444 307.584 
L 78.428444 275.904 
L 77.115382 275.904 
z
" style="fill:#472d7b;opacity:0.5;stroke:#472d7b;stroke-linejoin:miter;"/>
   </g>
   <g id="patch_6">
    <path clip-path="url(#p7ce6ea3e2d)" d="M 78.756709 307.584 
L 80.069771 307.584 
L 80.069771 275.904 
L 78.756709 275.904 
z
" style="fill:#472d7b;opacity:0.5;stroke:#472d7b;stroke-linejoin:miter;"/>
   </g>
   <g id="patch_7">
    <path clip-path="url(#p7ce6ea3e2d)" d="M 80.398037 307.584 
L 81.711098 307.584 
L 81.711098 275.904 
L 80.398037 275.904 
z
" style="fill:#472d7b;opacity:0.5;stroke:#472d7b;stroke-linejoin:miter;"/>
   </g>
   <g id="patch_8">
    <path clip-path="url(#p7ce6ea3e2d)" d="M 82.039364 307.584 
L 83.352426 307.584 
L 83.352426 307.584 
L 82.039364 307.584 
z
" style="fill:#440154;opacity:0.5;stroke:#440154;stroke-linejoin:miter;"/>
   </g>
   <g id="patch_9">
    <path clip-path="url(#p7ce6ea3e2d)" d="M 83.680691 307.584 
L 84.993753 307.584 
L 84.993753 275.904 
L 83.680691 275.904 
z
" style="fill:#472d7b;opacity:0.5;stroke:#472d7b;stroke-linejoin:miter;"/>
   </g>
   <g id="patch_10">
    <path clip-path="url(#p7ce6ea3e2d)" d="M 85.322019 307.584 
L 86.63508 307.584 
L 86.63508 275.904 
L 85.322019 275.904 
z
" style="fill:#472d7b;opacity:0.5;stroke:#472d7b;stroke-linejoin:miter;"/>
   </g>
   <g id="patch_11">
    <path clip-path="url(#p7ce6ea3e2d)" d="M 86.963346 307.584 
L 88.276408 307.584 
L 88.276408 244.224 
L 86.963346 244.224 
z
" style="fill:#3b528b;opacity:0.5;stroke:#3b528b;stroke-linejoin:miter;"/>
   </g>
   <g id="patch_12">
    <path clip-path="url(#p7ce6ea3e2d)" d="M 88.604673 307.584 
L 89.917735 307.584 
L 89.917735 275.904 
L 88.604673 275.904 
z
" style="fill:#472d7b;opacity:0.5;stroke:#472d7b;stroke-linejoin:miter;"/>
   </g>
   <g id="patch_13">
    <path clip-path="url(#p7ce6ea3e2d)" d="M 90.246001 307.584 
L 91.559062 307.584 
L 91.559062 307.584 
L 90.246001 307.584 
z
" style="fill:#440154;opacity:0.5;stroke:#440154;stroke-linejoin:miter;"/>
   </g>
   <g id="patch_14">
    <path clip-path="url(#p7ce6ea3e2d)" d="M 91.887328 307.584 
L 93.20039 307.584 
L 93.20039 212.544 
L 91.887328 212.544 
z
" style="fill:#2c728e;opacity:0.5;stroke:#2c728e;stroke-linejoin:miter;"/>
   </g>
   <g id="patch_15">
    <path clip-path="url(#p7ce6ea3e2d)" d="M 93.528655 307.584 
L 94.841717 307.584 
L 94.841717 275.904 
L 93.528655 275.904 
z
" style="fill:#472d7b;opacity:0.5;stroke:#472d7b;stroke-linejoin:miter;"/>
   </g>
   <g id="patch_16">
    <path clip-path="url(#p7ce6ea3e2d)" d="M 95.169983 307.584 
L 96.483044 307.584 
L 96.483044 244.224 
L 95.169983 244.224 
z
" style="fill:#3b528b;opacity:0.5;stroke:#3b528b;stroke-linejoin:miter;"/>
   </g>
   <g id="patch_17">
    <path clip-path="url(#p7ce6ea3e2d)" d="M 96.81131 307.584 
L 98.124372 307.584 
L 98.124372 307.584 
L 96.81131 307.584 
z
" style="fill:#440154;opacity:0.5;stroke:#440154;stroke-linejoin:miter;"/>
   </g>
   <g id="patch_18">
    <path clip-path="url(#p7ce6ea3e2d)" d="M 98.452637 307.584 
L 99.765699 307.584 
L 99.765699 244.224 
L 98.452637 244.224 
z
" style="fill:#3b528b;opacity:0.5;stroke:#3b528b;stroke-linejoin:miter;"/>
   </g>
   <g id="patch_19">
    <path clip-path="url(#p7ce6ea3e2d)" d="M 100.093965 307.584 
L 101.407026 307.584 
L 101.407026 275.904 
L 100.093965 275.904 
z
" style="fill:#472d7b;opacity:0.5;stroke:#472d7b;stroke-linejoin:miter;"/>
   </g>
   <g id="patch_20">
    <path clip-path="url(#p7ce6ea3e2d)" d="M 101.735292 307.584 
L 103.048354 307.584 
L 103.048354 307.584 
L 101.735292 307.584 
z
" style="fill:#440154;opacity:0.5;stroke:#440154;stroke-linejoin:miter;"/>
   </g>
   <g id="patch_21">
    <path clip-path="url(#p7ce6ea3e2d)" d="M 103.376619 307.584 
L 104.689681 307.584 
L 104.689681 307.584 
L 103.376619 307.584 
z
" style="fill:#440154;opacity:0.5;stroke:#440154;stroke-linejoin:miter;"/>
   </g>
   <g id="patch_22">
    <path clip-path="url(#p7ce6ea3e2d)" d="M 105.017947 307.584 
L 106.331008 307.584 
L 106.331008 307.584 
L 105.017947 307.584 
z
" style="fill:#440154;opacity:0.5;stroke:#440154;stroke-linejoin:miter;"/>
   </g>
   <g id="patch_23">
    <path clip-path="url(#p7ce6ea3e2d)" d="M 106.659274 307.584 
L 107.972336 307.584 
L 107.972336 275.904 
L 106.659274 275.904 
z
" style="fill:#472d7b;opacity:0.5;stroke:#472d7b;stroke-linejoin:miter;"/>
   </g>
   <g id="patch_24">
    <path clip-path="url(#p7ce6ea3e2d)" d="M 108.300601 307.584 
L 109.613663 307.584 
L 109.613663 275.904 
L 108.300601 275.904 
z
" style="fill:#472d7b;opacity:0.5;stroke:#472d7b;stroke-linejoin:miter;"/>
   </g>
   <g id="patch_25">
    <path clip-path="url(#p7ce6ea3e2d)" d="M 109.941928 307.584 
L 111.25499 307.584 
L 111.25499 275.904 
L 109.941928 275.904 
z
" style="fill:#472d7b;opacity:0.5;stroke:#472d7b;stroke-linejoin:miter;"/>
   </g>
   <g id="patch_26">
    <path clip-path="url(#p7ce6ea3e2d)" d="M 111.583256 307.584 
L 112.896318 307.584 
L 112.896318 275.904 
L 111.583256 275.904 
z
" style="fill:#472d7b;opacity:0.5;stroke:#472d7b;stroke-linejoin:miter;"/>
   </g>
   <g id="patch_27">
    <path clip-path="url(#p7ce6ea3e2d)" d="M 113.224583 307.584 
L 114.537645 307.584 
L 114.537645 180.864 
L 113.224583 180.864 
z
" style="fill:#21918c;opacity:0.5;stroke:#21918c;stroke-linejoin:miter;"/>
   </g>
   <g id="patch_28">
    <path clip-path="url(#p7ce6ea3e2d)" d="M 114.86591 307.584 
L 116.178972 307.584 
L 116.178972 307.584 
L 114.86591 307.584 
z
" style="fill:#440154;opacity:0.5;stroke:#440154;stroke-linejoin:miter;"/>
   </g>
   <g id="patch_29">
    <path clip-path="url(#p7ce6ea3e2d)" d="M 116.507238 307.584 
L 117.8203 307.584 
L 117.8203 307.584 
L 116.507238 307.584 
z
" style="fill:#440154;opacity:0.5;stroke:#440154;stroke-linejoin:miter;"/>
   </g>
   <g id="patch_30">
    <path clip-path="url(#p7ce6ea3e2d)" d="M 118.148565 307.584 
L 119.461627 307.584 
L 119.461627 275.904 
L 118.148565 275.904 
z
" style="fill:#472d7b;opacity:0.5;stroke:#472d7b;stroke-linejoin:miter;"/>
   </g>
   <g id="patch_31">
    <path clip-path="url(#p7ce6ea3e2d)" d="M 119.789892 307.584 
L 121.102954 307.584 
L 121.102954 275.904 
L 119.789892 275.904 
z
" style="fill:#472d7b;opacity:0.5;stroke:#472d7b;stroke-linejoin:miter;"/>
   </g>
   <g id="patch_32">
    <path clip-path="url(#p7ce6ea3e2d)" d="M 121.43122 307.584 
L 122.744282 307.584 
L 122.744282 275.904 
L 121.43122 275.904 
z
" style="fill:#472d7b;opacity:0.5;stroke:#472d7b;stroke-linejoin:miter;"/>
   </g>
   <g id="patch_33">
    <path clip-path="url(#p7ce6ea3e2d)" d="M 123.072547 307.584 
L 124.385609 307.584 
L 124.385609 275.904 
L 123.072547 275.904 
z
" style="fill:#472d7b;opacity:0.5;stroke:#472d7b;stroke-linejoin:miter;"/>
   </g>
   <g id="patch_34">
    <path clip-path="url(#p7ce6ea3e2d)" d="M 124.713874 307.584 
L 126.026936 307.584 
L 126.026936 275.904 
L 124.713874 275.904 
z
" style="fill:#472d7b;opacity:0.5;stroke:#472d7b;stroke-linejoin:miter;"/>
   </g>
   <g id="patch_35">
    <path clip-path="url(#p7ce6ea3e2d)" d="M 126.355202 307.584 
L 127.668264 307.584 
L 127.668264 244.224 
L 126.355202 244.224 
z
" style="fill:#3b528b;opacity:0.5;stroke:#3b528b;stroke-linejoin:miter;"/>
   </g>
   <g id="patch_36">
    <path clip-path="url(#p7ce6ea3e2d)" d="M 127.996529 307.584 
L 129.309591 307.584 
L 129.309591 307.584 
L 127.996529 307.584 
z
" style="fill:#440154;opacity:0.5;stroke:#440154;stroke-linejoin:miter;"/>
   </g>
   <g id="patch_37">
    <path clip-path="url(#p7ce6ea3e2d)" d="M 129.637856 307.584 
L 130.950918 307.584 
L 130.950918 244.224 
L 129.637856 244.224 
z
" style="fill:#3b528b;opacity:0.5;stroke:#3b528b;stroke-linejoin:miter;"/>
   </g>
   <g id="patch_38">
    <path clip-path="url(#p7ce6ea3e2d)" d="M 131.279184 307.584 
L 132.592246 307.584 
L 132.592246 275.904 
L 131.279184 275.904 
z
" style="fill:#472d7b;opacity:0.5;stroke:#472d7b;stroke-linejoin:miter;"/>
   </g>
   <g id="patch_39">
    <path clip-path="url(#p7ce6ea3e2d)" d="M 132.920511 307.584 
L 134.233573 307.584 
L 134.233573 307.584 
L 132.920511 307.584 
z
" style="fill:#440154;opacity:0.5;stroke:#440154;stroke-linejoin:miter;"/>
   </g>
   <g id="patch_40">
    <path clip-path="url(#p7ce6ea3e2d)" d="M 134.561838 307.584 
L 135.8749 307.584 
L 135.8749 275.904 
L 134.561838 275.904 
z
" style="fill:#472d7b;opacity:0.5;stroke:#472d7b;stroke-linejoin:miter;"/>
   </g>
   <g id="patch_41">
    <path clip-path="url(#p7ce6ea3e2d)" d="M 136.203166 307.584 
L 137.516228 307.584 
L 137.516228 307.584 
L 136.203166 307.584 
z
" style="fill:#440154;opacity:0.5;stroke:#440154;stroke-linejoin:miter;"/>
   </g>
   <g id="patch_42">
    <path clip-path="url(#p7ce6ea3e2d)" d="M 137.844493 307.584 
L 139.157555 307.584 
L 139.157555 275.904 
L 137.844493 275.904 
z
" style="fill:#472d7b;opacity:0.5;stroke:#472d7b;stroke-linejoin:miter;"/>
   </g>
   <g id="patch_43">
    <path clip-path="url(#p7ce6ea3e2d)" d="M 139.48582 307.584 
L 140.798882 307.584 
L 140.798882 275.904 
L 139.48582 275.904 
z
" style="fill:#472d7b;opacity:0.5;stroke:#472d7b;stroke-linejoin:miter;"/>
   </g>
   <g id="patch_44">
    <path clip-path="url(#p7ce6ea3e2d)" d="M 141.127148 307.584 
L 142.44021 307.584 
L 142.44021 307.584 
L 141.127148 307.584 
z
" style="fill:#440154;opacity:0.5;stroke:#440154;stroke-linejoin:miter;"/>
   </g>
   <g id="patch_45">
    <path clip-path="url(#p7ce6ea3e2d)" d="M 142.768475 307.584 
L 144.081537 307.584 
L 144.081537 307.584 
L 142.768475 307.584 
z
" style="fill:#440154;opacity:0.5;stroke:#440154;stroke-linejoin:miter;"/>
   </g>
   <g id="patch_46">
    <path clip-path="url(#p7ce6ea3e2d)" d="M 144.409802 307.584 
L 145.722864 307.584 
L 145.722864 275.904 
L 144.409802 275.904 
z
" style="fill:#472d7b;opacity:0.5;stroke:#472d7b;stroke-linejoin:miter;"/>
   </g>
   <g id="patch_47">
    <path clip-path="url(#p7ce6ea3e2d)" d="M 146.05113 307.584 
L 147.364192 307.584 
L 147.364192 307.584 
L 146.05113 307.584 
z
" style="fill:#440154;opacity:0.5;stroke:#440154;stroke-linejoin:miter;"/>
   </g>
   <g id="patch_48">
    <path clip-path="url(#p7ce6ea3e2d)" d="M 147.692457 307.584 
L 149.005519 307.584 
L 149.005519 244.224 
L 147.692457 244.224 
z
" style="fill:#3b528b;opacity:0.5;stroke:#3b528b;stroke-linejoin:miter;"/>
   </g>
   <g id="patch_49">
    <path clip-path="url(#p7ce6ea3e2d)" d="M 149.333784 307.584 
L 150.646846 307.584 
L 150.646846 212.544 
L 149.333784 212.544 
z
" style="fill:#2c728e;opacity:0.5;stroke:#2c728e;stroke-linejoin:miter;"/>
   </g>
   <g id="patch_50">
    <path clip-path="url(#p7ce6ea3e2d)" d="M 150.975112 307.584 
L 152.288174 307.584 
L 152.288174 244.224 
L 150.975112 244.224 
z
" style="fill:#3b528b;opacity:0.5;stroke:#3b528b;stroke-linejoin:miter;"/>
   </g>
   <g id="patch_51">
    <path clip-path="url(#p7ce6ea3e2d)" d="M 152.616439 307.584 
L 153.929501 307.584 
L 153.929501 244.224 
L 152.616439 244.224 
z
" style="fill:#3b528b;opacity:0.5;stroke:#3b528b;stroke-linejoin:miter;"/>
   </g>
   <g id="patch_52">
    <path clip-path="url(#p7ce6ea3e2d)" d="M 154.257766 307.584 
L 155.570828 307.584 
L 155.570828 244.224 
L 154.257766 244.224 
z
" style="fill:#3b528b;opacity:0.5;stroke:#3b528b;stroke-linejoin:miter;"/>
   </g>
   <g id="patch_53">
    <path clip-path="url(#p7ce6ea3e2d)" d="M 155.899094 307.584 
L 157.212156 307.584 
L 157.212156 275.904 
L 155.899094 275.904 
z
" style="fill:#472d7b;opacity:0.5;stroke:#472d7b;stroke-linejoin:miter;"/>
   </g>
   <g id="patch_54">
    <path clip-path="url(#p7ce6ea3e2d)" d="M 157.540421 307.584 
L 158.853483 307.584 
L 158.853483 307.584 
L 157.540421 307.584 
z
" style="fill:#440154;opacity:0.5;stroke:#440154;stroke-linejoin:miter;"/>
   </g>
   <g id="patch_55">
    <path clip-path="url(#p7ce6ea3e2d)" d="M 159.181748 307.584 
L 160.49481 307.584 
L 160.49481 275.904 
L 159.181748 275.904 
z
" style="fill:#472d7b;opacity:0.5;stroke:#472d7b;stroke-linejoin:miter;"/>
   </g>
   <g id="patch_56">
    <path clip-path="url(#p7ce6ea3e2d)" d="M 160.823076 307.584 
L 162.136138 307.584 
L 162.136138 275.904 
L 160.823076 275.904 
z
" style="fill:#472d7b;opacity:0.5;stroke:#472d7b;stroke-linejoin:miter;"/>
   </g>
   <g id="patch_57">
    <path clip-path="url(#p7ce6ea3e2d)" d="M 162.464403 307.584 
L 163.777465 307.584 
L 163.777465 244.224 
L 162.464403 244.224 
z
" style="fill:#3b528b;opacity:0.5;stroke:#3b528b;stroke-linejoin:miter;"/>
   </g>
   <g id="patch_58">
    <path clip-path="url(#p7ce6ea3e2d)" d="M 164.10573 307.584 
L 165.418792 307.584 
L 165.418792 244.224 
L 164.10573 244.224 
z
" style="fill:#3b528b;opacity:0.5;stroke:#3b528b;stroke-linejoin:miter;"/>
   </g>
   <g id="patch_59">
    <path clip-path="url(#p7ce6ea3e2d)" d="M 165.747058 307.584 
L 167.060119 307.584 
L 167.060119 275.904 
L 165.747058 275.904 
z
" style="fill:#472d7b;opacity:0.5;stroke:#472d7b;stroke-linejoin:miter;"/>
   </g>
   <g id="patch_60">
    <path clip-path="url(#p7ce6ea3e2d)" d="M 167.388385 307.584 
L 168.701447 307.584 
L 168.701447 275.904 
L 167.388385 275.904 
z
" style="fill:#472d7b;opacity:0.5;stroke:#472d7b;stroke-linejoin:miter;"/>
   </g>
   <g id="patch_61">
    <path clip-path="url(#p7ce6ea3e2d)" d="M 169.029712 307.584 
L 170.342774 307.584 
L 170.342774 307.584 
L 169.029712 307.584 
z
" style="fill:#440154;opacity:0.5;stroke:#440154;stroke-linejoin:miter;"/>
   </g>
   <g id="patch_62">
    <path clip-path="url(#p7ce6ea3e2d)" d="M 170.67104 307.584 
L 171.984101 307.584 
L 171.984101 307.584 
L 170.67104 307.584 
z
" style="fill:#440154;opacity:0.5;stroke:#440154;stroke-linejoin:miter;"/>
   </g>
   <g id="patch_63">
    <path clip-path="url(#p7ce6ea3e2d)" d="M 172.312367 307.584 
L 173.625429 307.584 
L 173.625429 275.904 
L 172.312367 275.904 
z
" style="fill:#472d7b;opacity:0.5;stroke:#472d7b;stroke-linejoin:miter;"/>
   </g>
   <g id="patch_64">
    <path clip-path="url(#p7ce6ea3e2d)" d="M 173.953694 307.584 
L 175.266756 307.584 
L 175.266756 275.904 
L 173.953694 275.904 
z
" style="fill:#472d7b;opacity:0.5;stroke:#472d7b;stroke-linejoin:miter;"/>
   </g>
   <g id="patch_65">
    <path clip-path="url(#p7ce6ea3e2d)" d="M 175.595022 307.584 
L 176.908083 307.584 
L 176.908083 244.224 
L 175.595022 244.224 
z
" style="fill:#3b528b;opacity:0.5;stroke:#3b528b;stroke-linejoin:miter;"/>
   </g>
   <g id="patch_66">
    <path clip-path="url(#p7ce6ea3e2d)" d="M 177.236349 307.584 
L 178.549411 307.584 
L 178.549411 275.904 
L 177.236349 275.904 
z
" style="fill:#472d7b;opacity:0.5;stroke:#472d7b;stroke-linejoin:miter;"/>
   </g>
   <g id="patch_67">
    <path clip-path="url(#p7ce6ea3e2d)" d="M 178.877676 307.584 
L 180.190738 307.584 
L 180.190738 212.544 
L 178.877676 212.544 
z
" style="fill:#2c728e;opacity:0.5;stroke:#2c728e;stroke-linejoin:miter;"/>
   </g>
   <g id="patch_68">
    <path clip-path="url(#p7ce6ea3e2d)" d="M 180.519004 307.584 
L 181.832065 307.584 
L 181.832065 212.544 
L 180.519004 212.544 
z
" style="fill:#2c728e;opacity:0.5;stroke:#2c728e;stroke-linejoin:miter;"/>
   </g>
   <g id="patch_69">
    <path clip-path="url(#p7ce6ea3e2d)" d="M 182.160331 307.584 
L 183.473393 307.584 
L 183.473393 307.584 
L 182.160331 307.584 
z
" style="fill:#440154;opacity:0.5;stroke:#440154;stroke-linejoin:miter;"/>
   </g>
   <g id="patch_70">
    <path clip-path="url(#p7ce6ea3e2d)" d="M 183.801658 307.584 
L 185.11472 307.584 
L 185.11472 275.904 
L 183.801658 275.904 
z
" style="fill:#472d7b;opacity:0.5;stroke:#472d7b;stroke-linejoin:miter;"/>
   </g>
   <g id="patch_71">
    <path clip-path="url(#p7ce6ea3e2d)" d="M 185.442986 307.584 
L 186.756047 307.584 
L 186.756047 275.904 
L 185.442986 275.904 
z
" style="fill:#472d7b;opacity:0.5;stroke:#472d7b;stroke-linejoin:miter;"/>
   </g>
   <g id="patch_72">
    <path clip-path="url(#p7ce6ea3e2d)" d="M 187.084313 307.584 
L 188.397375 307.584 
L 188.397375 307.584 
L 187.084313 307.584 
z
" style="fill:#440154;opacity:0.5;stroke:#440154;stroke-linejoin:miter;"/>
   </g>
   <g id="patch_73">
    <path clip-path="url(#p7ce6ea3e2d)" d="M 188.72564 307.584 
L 190.038702 307.584 
L 190.038702 275.904 
L 188.72564 275.904 
z
" style="fill:#472d7b;opacity:0.5;stroke:#472d7b;stroke-linejoin:miter;"/>
   </g>
   <g id="patch_74">
    <path clip-path="url(#p7ce6ea3e2d)" d="M 190.366968 307.584 
L 191.680029 307.584 
L 191.680029 307.584 
L 190.366968 307.584 
z
" style="fill:#440154;opacity:0.5;stroke:#440154;stroke-linejoin:miter;"/>
   </g>
   <g id="patch_75">
    <path clip-path="url(#p7ce6ea3e2d)" d="M 192.008295 307.584 
L 193.321357 307.584 
L 193.321357 307.584 
L 192.008295 307.584 
z
" style="fill:#440154;opacity:0.5;stroke:#440154;stroke-linejoin:miter;"/>
   </g>
   <g id="patch_76">
    <path clip-path="url(#p7ce6ea3e2d)" d="M 193.649622 307.584 
L 194.962684 307.584 
L 194.962684 244.224 
L 193.649622 244.224 
z
" style="fill:#3b528b;opacity:0.5;stroke:#3b528b;stroke-linejoin:miter;"/>
   </g>
   <g id="patch_77">
    <path clip-path="url(#p7ce6ea3e2d)" d="M 195.29095 307.584 
L 196.604011 307.584 
L 196.604011 244.224 
L 195.29095 244.224 
z
" style="fill:#3b528b;opacity:0.5;stroke:#3b528b;stroke-linejoin:miter;"/>
   </g>
   <g id="patch_78">
    <path clip-path="url(#p7ce6ea3e2d)" d="M 196.932277 307.584 
L 198.245339 307.584 
L 198.245339 307.584 
L 196.932277 307.584 
z
" style="fill:#440154;opacity:0.5;stroke:#440154;stroke-linejoin:miter;"/>
   </g>
   <g id="patch_79">
    <path clip-path="url(#p7ce6ea3e2d)" d="M 198.573604 307.584 
L 199.886666 307.584 
L 199.886666 275.904 
L 198.573604 275.904 
z
" style="fill:#472d7b;opacity:0.5;stroke:#472d7b;stroke-linejoin:miter;"/>
   </g>
   <g id="patch_80">
    <path clip-path="url(#p7ce6ea3e2d)" d="M 200.214932 307.584 
L 201.527993 307.584 
L 201.527993 307.584 
L 200.214932 307.584 
z
" style="fill:#440154;opacity:0.5;stroke:#440154;stroke-linejoin:miter;"/>
   </g>
   <g id="patch_81">
    <path clip-path="url(#p7ce6ea3e2d)" d="M 201.856259 307.584 
L 203.169321 307.584 
L 203.169321 307.584 
L 201.856259 307.584 
z
" style="fill:#440154;opacity:0.5;stroke:#440154;stroke-linejoin:miter;"/>
   </g>
   <g id="patch_82">
    <path clip-path="url(#p7ce6ea3e2d)" d="M 203.497586 307.584 
L 204.810648 307.584 
L 204.810648 244.224 
L 203.497586 244.224 
z
" style="fill:#3b528b;opacity:0.5;stroke:#3b528b;stroke-linejoin:miter;"/>
   </g>
   <g id="patch_83">
    <path clip-path="url(#p7ce6ea3e2d)" d="M 205.138914 307.584 
L 206.451975 307.584 
L 206.451975 275.904 
L 205.138914 275.904 
z
" style="fill:#472d7b;opacity:0.5;stroke:#472d7b;stroke-linejoin:miter;"/>
   </g>
   <g id="patch_84">
    <path clip-path="url(#p7ce6ea3e2d)" d="M 206.780241 307.584 
L 208.093303 307.584 
L 208.093303 307.584 
L 206.780241 307.584 
z
" style="fill:#440154;opacity:0.5;stroke:#440154;stroke-linejoin:miter;"/>
   </g>
   <g id="patch_85">
    <path clip-path="url(#p7ce6ea3e2d)" d="M 208.421568 307.584 
L 209.73463 307.584 
L 209.73463 244.224 
L 208.421568 244.224 
z
" style="fill:#3b528b;opacity:0.5;stroke:#3b528b;stroke-linejoin:miter;"/>
   </g>
   <g id="patch_86">
    <path clip-path="url(#p7ce6ea3e2d)" d="M 210.062895 307.584 
L 211.375957 307.584 
L 211.375957 275.904 
L 210.062895 275.904 
z
" style="fill:#472d7b;opacity:0.5;stroke:#472d7b;stroke-linejoin:miter;"/>
   </g>
   <g id="patch_87">
    <path clip-path="url(#p7ce6ea3e2d)" d="M 211.704223 307.584 
L 213.017285 307.584 
L 213.017285 307.584 
L 211.704223 307.584 
z
" style="fill:#440154;opacity:0.5;stroke:#440154;stroke-linejoin:miter;"/>
   </g>
   <g id="patch_88">
    <path clip-path="url(#p7ce6ea3e2d)" d="M 213.34555 307.584 
L 214.658612 307.584 
L 214.658612 275.904 
L 213.34555 275.904 
z
" style="fill:#472d7b;opacity:0.5;stroke:#472d7b;stroke-linejoin:miter;"/>
   </g>
   <g id="patch_89">
    <path clip-path="url(#p7ce6ea3e2d)" d="M 214.986877 307.584 
L 216.299939 307.584 
L 216.299939 307.584 
L 214.986877 307.584 
z
" style="fill:#440154;opacity:0.5;stroke:#440154;stroke-linejoin:miter;"/>
   </g>
   <g id="patch_90">
    <path clip-path="url(#p7ce6ea3e2d)" d="M 216.628205 307.584 
L 217.941267 307.584 
L 217.941267 275.904 
L 216.628205 275.904 
z
" style="fill:#472d7b;opacity:0.5;stroke:#472d7b;stroke-linejoin:miter;"/>
   </g>
   <g id="patch_91">
    <path clip-path="url(#p7ce6ea3e2d)" d="M 218.269532 307.584 
L 219.582594 307.584 
L 219.582594 307.584 
L 218.269532 307.584 
z
" style="fill:#440154;opacity:0.5;stroke:#440154;stroke-linejoin:miter;"/>
   </g>
   <g id="patch_92">
    <path clip-path="url(#p7ce6ea3e2d)" d="M 219.910859 307.584 
L 221.223921 307.584 
L 221.223921 307.584 
L 219.910859 307.584 
z
" style="fill:#440154;opacity:0.5;stroke:#440154;stroke-linejoin:miter;"/>
   </g>
   <g id="patch_93">
    <path clip-path="url(#p7ce6ea3e2d)" d="M 221.552187 307.584 
L 222.865249 307.584 
L 222.865249 307.584 
L 221.552187 307.584 
z
" style="fill:#440154;opacity:0.5;stroke:#440154;stroke-linejoin:miter;"/>
   </g>
   <g id="patch_94">
    <path clip-path="url(#p7ce6ea3e2d)" d="M 223.193514 307.584 
L 224.506576 307.584 
L 224.506576 307.584 
L 223.193514 307.584 
z
" style="fill:#440154;opacity:0.5;stroke:#440154;stroke-linejoin:miter;"/>
   </g>
   <g id="patch_95">
    <path clip-path="url(#p7ce6ea3e2d)" d="M 224.834841 307.584 
L 226.147903 307.584 
L 226.147903 244.224 
L 224.834841 244.224 
z
" style="fill:#3b528b;opacity:0.5;stroke:#3b528b;stroke-linejoin:miter;"/>
   </g>
   <g id="patch_96">
    <path clip-path="url(#p7ce6ea3e2d)" d="M 226.476169 307.584 
L 227.789231 307.584 
L 227.789231 307.584 
L 226.476169 307.584 
z
" style="fill:#440154;opacity:0.5;stroke:#440154;stroke-linejoin:miter;"/>
   </g>
   <g id="patch_97">
    <path clip-path="url(#p7ce6ea3e2d)" d="M 228.117496 307.584 
L 229.430558 307.584 
L 229.430558 307.584 
L 228.117496 307.584 
z
" style="fill:#440154;opacity:0.5;stroke:#440154;stroke-linejoin:miter;"/>
   </g>
   <g id="patch_98">
    <path clip-path="url(#p7ce6ea3e2d)" d="M 229.758823 307.584 
L 231.071885 307.584 
L 231.071885 307.584 
L 229.758823 307.584 
z
" style="fill:#440154;opacity:0.5;stroke:#440154;stroke-linejoin:miter;"/>
   </g>
   <g id="patch_99">
    <path clip-path="url(#p7ce6ea3e2d)" d="M 231.400151 307.584 
L 232.713213 307.584 
L 232.713213 275.904 
L 231.400151 275.904 
z
" style="fill:#472d7b;opacity:0.5;stroke:#472d7b;stroke-linejoin:miter;"/>
   </g>
   <g id="patch_100">
    <path clip-path="url(#p7ce6ea3e2d)" d="M 233.041478 307.584 
L 234.35454 307.584 
L 234.35454 275.904 
L 233.041478 275.904 
z
" style="fill:#472d7b;opacity:0.5;stroke:#472d7b;stroke-linejoin:miter;"/>
   </g>
   <g id="patch_101">
    <path clip-path="url(#p7ce6ea3e2d)" d="M 234.682805 307.584 
L 235.995867 307.584 
L 235.995867 212.544 
L 234.682805 212.544 
z
" style="fill:#2c728e;opacity:0.5;stroke:#2c728e;stroke-linejoin:miter;"/>
   </g>
   <g id="patch_102">
    <path clip-path="url(#p7ce6ea3e2d)" d="M 236.324133 307.584 
L 237.637195 307.584 
L 237.637195 275.904 
L 236.324133 275.904 
z
" style="fill:#472d7b;opacity:0.5;stroke:#472d7b;stroke-linejoin:miter;"/>
   </g>
   <g id="patch_103">
    <path clip-path="url(#p7ce6ea3e2d)" d="M 237.96546 307.584 
L 239.278522 307.584 
L 239.278522 307.584 
L 237.96546 307.584 
z
" style="fill:#440154;opacity:0.5;stroke:#440154;stroke-linejoin:miter;"/>
   </g>
   <g id="patch_104">
    <path clip-path="url(#p7ce6ea3e2d)" d="M 239.606787 307.584 
L 240.919849 307.584 
L 240.919849 275.904 
L 239.606787 275.904 
z
" style="fill:#472d7b;opacity:0.5;stroke:#472d7b;stroke-linejoin:miter;"/>
   </g>
   <g id="patch_105">
    <path clip-path="url(#p7ce6ea3e2d)" d="M 241.248115 307.584 
L 242.561177 307.584 
L 242.561177 275.904 
L 241.248115 275.904 
z
" style="fill:#472d7b;opacity:0.5;stroke:#472d7b;stroke-linejoin:miter;"/>
   </g>
   <g id="patch_106">
    <path clip-path="url(#p7ce6ea3e2d)" d="M 242.889442 307.584 
L 244.202504 307.584 
L 244.202504 275.904 
L 242.889442 275.904 
z
" style="fill:#472d7b;opacity:0.5;stroke:#472d7b;stroke-linejoin:miter;"/>
   </g>
   <g id="patch_107">
    <path clip-path="url(#p7ce6ea3e2d)" d="M 244.530769 307.584 
L 245.843831 307.584 
L 245.843831 244.224 
L 244.530769 244.224 
z
" style="fill:#3b528b;opacity:0.5;stroke:#3b528b;stroke-linejoin:miter;"/>
   </g>
   <g id="patch_108">
    <path clip-path="url(#p7ce6ea3e2d)" d="M 246.172097 307.584 
L 247.485159 307.584 
L 247.485159 275.904 
L 246.172097 275.904 
z
" style="fill:#472d7b;opacity:0.5;stroke:#472d7b;stroke-linejoin:miter;"/>
   </g>
   <g id="patch_109">
    <path clip-path="url(#p7ce6ea3e2d)" d="M 247.813424 307.584 
L 249.126486 307.584 
L 249.126486 180.864 
L 247.813424 180.864 
z
" style="fill:#21918c;opacity:0.5;stroke:#21918c;stroke-linejoin:miter;"/>
   </g>
   <g id="patch_110">
    <path clip-path="url(#p7ce6ea3e2d)" d="M 249.454751 307.584 
L 250.767813 307.584 
L 250.767813 307.584 
L 249.454751 307.584 
z
" style="fill:#440154;opacity:0.5;stroke:#440154;stroke-linejoin:miter;"/>
   </g>
   <g id="patch_111">
    <path clip-path="url(#p7ce6ea3e2d)" d="M 251.096079 307.584 
L 252.409141 307.584 
L 252.409141 244.224 
L 251.096079 244.224 
z
" style="fill:#3b528b;opacity:0.5;stroke:#3b528b;stroke-linejoin:miter;"/>
   </g>
   <g id="patch_112">
    <path clip-path="url(#p7ce6ea3e2d)" d="M 252.737406 307.584 
L 254.050468 307.584 
L 254.050468 307.584 
L 252.737406 307.584 
z
" style="fill:#440154;opacity:0.5;stroke:#440154;stroke-linejoin:miter;"/>
   </g>
   <g id="patch_113">
    <path clip-path="url(#p7ce6ea3e2d)" d="M 254.378733 307.584 
L 255.691795 307.584 
L 255.691795 307.584 
L 254.378733 307.584 
z
" style="fill:#440154;opacity:0.5;stroke:#440154;stroke-linejoin:miter;"/>
   </g>
   <g id="patch_114">
    <path clip-path="url(#p7ce6ea3e2d)" d="M 256.020061 307.584 
L 257.333123 307.584 
L 257.333123 307.584 
L 256.020061 307.584 
z
" style="fill:#440154;opacity:0.5;stroke:#440154;stroke-linejoin:miter;"/>
   </g>
   <g id="patch_115">
    <path clip-path="url(#p7ce6ea3e2d)" d="M 257.661388 307.584 
L 258.97445 307.584 
L 258.97445 307.584 
L 257.661388 307.584 
z
" style="fill:#440154;opacity:0.5;stroke:#440154;stroke-linejoin:miter;"/>
   </g>
   <g id="patch_116">
    <path clip-path="url(#p7ce6ea3e2d)" d="M 259.302715 307.584 
L 260.615777 307.584 
L 260.615777 307.584 
L 259.302715 307.584 
z
" style="fill:#440154;opacity:0.5;stroke:#440154;stroke-linejoin:miter;"/>
   </g>
   <g id="patch_117">
    <path clip-path="url(#p7ce6ea3e2d)" d="M 260.944043 307.584 
L 262.257105 307.584 
L 262.257105 212.544 
L 260.944043 212.544 
z
" style="fill:#2c728e;opacity:0.5;stroke:#2c728e;stroke-linejoin:miter;"/>
   </g>
   <g id="patch_118">
    <path clip-path="url(#p7ce6ea3e2d)" d="M 262.58537 307.584 
L 263.898432 307.584 
L 263.898432 307.584 
L 262.58537 307.584 
z
" style="fill:#440154;opacity:0.5;stroke:#440154;stroke-linejoin:miter;"/>
   </g>
   <g id="patch_119">
    <path clip-path="url(#p7ce6ea3e2d)" d="M 264.226697 307.584 
L 265.539759 307.584 
L 265.539759 244.224 
L 264.226697 244.224 
z
" style="fill:#3b528b;opacity:0.5;stroke:#3b528b;stroke-linejoin:miter;"/>
   </g>
   <g id="patch_120">
    <path clip-path="url(#p7ce6ea3e2d)" d="M 265.868025 307.584 
L 267.181086 307.584 
L 267.181086 244.224 
L 265.868025 244.224 
z
" style="fill:#3b528b;opacity:0.5;stroke:#3b528b;stroke-linejoin:miter;"/>
   </g>
   <g id="patch_121">
    <path clip-path="url(#p7ce6ea3e2d)" d="M 267.509352 307.584 
L 268.822414 307.584 
L 268.822414 275.904 
L 267.509352 275.904 
z
" style="fill:#472d7b;opacity:0.5;stroke:#472d7b;stroke-linejoin:miter;"/>
   </g>
   <g id="patch_122">
    <path clip-path="url(#p7ce6ea3e2d)" d="M 269.150679 307.584 
L 270.463741 307.584 
L 270.463741 275.904 
L 269.150679 275.904 
z
" style="fill:#472d7b;opacity:0.5;stroke:#472d7b;stroke-linejoin:miter;"/>
   </g>
   <g id="patch_123">
    <path clip-path="url(#p7ce6ea3e2d)" d="M 270.792007 307.584 
L 272.105068 307.584 
L 272.105068 275.904 
L 270.792007 275.904 
z
" style="fill:#472d7b;opacity:0.5;stroke:#472d7b;stroke-linejoin:miter;"/>
   </g>
   <g id="patch_124">
    <path clip-path="url(#p7ce6ea3e2d)" d="M 272.433334 307.584 
L 273.746396 307.584 
L 273.746396 212.544 
L 272.433334 212.544 
z
" style="fill:#2c728e;opacity:0.5;stroke:#2c728e;stroke-linejoin:miter;"/>
   </g>
   <g id="patch_125">
    <path clip-path="url(#p7ce6ea3e2d)" d="M 274.074661 307.584 
L 275.387723 307.584 
L 275.387723 117.504 
L 274.074661 117.504 
z
" style="fill:#5ec962;opacity:0.5;stroke:#5ec962;stroke-linejoin:miter;"/>
   </g>
   <g id="patch_126">
    <path clip-path="url(#p7ce6ea3e2d)" d="M 275.715989 307.584 
L 277.02905 307.584 
L 277.02905 244.224 
L 275.715989 244.224 
z
" style="fill:#3b528b;opacity:0.5;stroke:#3b528b;stroke-linejoin:miter;"/>
   </g>
   <g id="patch_127">
    <path clip-path="url(#p7ce6ea3e2d)" d="M 277.357316 307.584 
L 278.670378 307.584 
L 278.670378 307.584 
L 277.357316 307.584 
z
" style="fill:#440154;opacity:0.5;stroke:#440154;stroke-linejoin:miter;"/>
   </g>
   <g id="patch_128">
    <path clip-path="url(#p7ce6ea3e2d)" d="M 278.998643 307.584 
L 280.311705 307.584 
L 280.311705 307.584 
L 278.998643 307.584 
z
" style="fill:#440154;opacity:0.5;stroke:#440154;stroke-linejoin:miter;"/>
   </g>
   <g id="patch_129">
    <path clip-path="url(#p7ce6ea3e2d)" d="M 280.639971 307.584 
L 281.953032 307.584 
L 281.953032 307.584 
L 280.639971 307.584 
z
" style="fill:#440154;opacity:0.5;stroke:#440154;stroke-linejoin:miter;"/>
   </g>
   <g id="patch_130">
    <path clip-path="url(#p7ce6ea3e2d)" d="M 282.281298 307.584 
L 283.59436 307.584 
L 283.59436 244.224 
L 282.281298 244.224 
z
" style="fill:#3b528b;opacity:0.5;stroke:#3b528b;stroke-linejoin:miter;"/>
   </g>
   <g id="patch_131">
    <path clip-path="url(#p7ce6ea3e2d)" d="M 283.922625 307.584 
L 285.235687 307.584 
L 285.235687 212.544 
L 283.922625 212.544 
z
" style="fill:#2c728e;opacity:0.5;stroke:#2c728e;stroke-linejoin:miter;"/>
   </g>
   <g id="patch_132">
    <path clip-path="url(#p7ce6ea3e2d)" d="M 285.563953 307.584 
L 286.877014 307.584 
L 286.877014 307.584 
L 285.563953 307.584 
z
" style="fill:#440154;opacity:0.5;stroke:#440154;stroke-linejoin:miter;"/>
   </g>
   <g id="patch_133">
    <path clip-path="url(#p7ce6ea3e2d)" d="M 287.20528 307.584 
L 288.518342 307.584 
L 288.518342 275.904 
L 287.20528 275.904 
z
" style="fill:#472d7b;opacity:0.5;stroke:#472d7b;stroke-linejoin:miter;"/>
   </g>
   <g id="patch_134">
    <path clip-path="url(#p7ce6ea3e2d)" d="M 288.846607 307.584 
L 290.159669 307.584 
L 290.159669 180.864 
L 288.846607 180.864 
z
" style="fill:#21918c;opacity:0.5;stroke:#21918c;stroke-linejoin:miter;"/>
   </g>
   <g id="patch_135">
    <path clip-path="url(#p7ce6ea3e2d)" d="M 290.487935 307.584 
L 291.800996 307.584 
L 291.800996 307.584 
L 290.487935 307.584 
z
" style="fill:#440154;opacity:0.5;stroke:#440154;stroke-linejoin:miter;"/>
   </g>
   <g id="patch_136">
    <path clip-path="url(#p7ce6ea3e2d)" d="M 292.129262 307.584 
L 293.442324 307.584 
L 293.442324 307.584 
L 292.129262 307.584 
z
" style="fill:#440154;opacity:0.5;stroke:#440154;stroke-linejoin:miter;"/>
   </g>
   <g id="patch_137">
    <path clip-path="url(#p7ce6ea3e2d)" d="M 293.770589 307.584 
L 295.083651 307.584 
L 295.083651 275.904 
L 293.770589 275.904 
z
" style="fill:#472d7b;opacity:0.5;stroke:#472d7b;stroke-linejoin:miter;"/>
   </g>
   <g id="patch_138">
    <path clip-path="url(#p7ce6ea3e2d)" d="M 295.411917 307.584 
L 296.724978 307.584 
L 296.724978 149.184 
L 295.411917 149.184 
z
" style="fill:#28ae80;opacity:0.5;stroke:#28ae80;stroke-linejoin:miter;"/>
   </g>
   <g id="patch_139">
    <path clip-path="url(#p7ce6ea3e2d)" d="M 297.053244 307.584 
L 298.366306 307.584 
L 298.366306 244.224 
L 297.053244 244.224 
z
" style="fill:#3b528b;opacity:0.5;stroke:#3b528b;stroke-linejoin:miter;"/>
   </g>
   <g id="patch_140">
    <path clip-path="url(#p7ce6ea3e2d)" d="M 298.694571 307.584 
L 300.007633 307.584 
L 300.007633 307.584 
L 298.694571 307.584 
z
" style="fill:#440154;opacity:0.5;stroke:#440154;stroke-linejoin:miter;"/>
   </g>
   <g id="patch_141">
    <path clip-path="url(#p7ce6ea3e2d)" d="M 300.335899 307.584 
L 301.64896 307.584 
L 301.64896 307.584 
L 300.335899 307.584 
z
" style="fill:#440154;opacity:0.5;stroke:#440154;stroke-linejoin:miter;"/>
   </g>
   <g id="patch_142">
    <path clip-path="url(#p7ce6ea3e2d)" d="M 301.977226 307.584 
L 303.290288 307.584 
L 303.290288 307.584 
L 301.977226 307.584 
z
" style="fill:#440154;opacity:0.5;stroke:#440154;stroke-linejoin:miter;"/>
   </g>
   <g id="patch_143">
    <path clip-path="url(#p7ce6ea3e2d)" d="M 303.618553 307.584 
L 304.931615 307.584 
L 304.931615 307.584 
L 303.618553 307.584 
z
" style="fill:#440154;opacity:0.5;stroke:#440154;stroke-linejoin:miter;"/>
   </g>
   <g id="patch_144">
    <path clip-path="url(#p7ce6ea3e2d)" d="M 305.259881 307.584 
L 306.572942 307.584 
L 306.572942 180.864 
L 305.259881 180.864 
z
" style="fill:#21918c;opacity:0.5;stroke:#21918c;stroke-linejoin:miter;"/>
   </g>
   <g id="patch_145">
    <path clip-path="url(#p7ce6ea3e2d)" d="M 306.901208 307.584 
L 308.21427 307.584 
L 308.21427 307.584 
L 306.901208 307.584 
z
" style="fill:#440154;opacity:0.5;stroke:#440154;stroke-linejoin:miter;"/>
   </g>
   <g id="patch_146">
    <path clip-path="url(#p7ce6ea3e2d)" d="M 308.542535 307.584 
L 309.855597 307.584 
L 309.855597 244.224 
L 308.542535 244.224 
z
" style="fill:#3b528b;opacity:0.5;stroke:#3b528b;stroke-linejoin:miter;"/>
   </g>
   <g id="patch_147">
    <path clip-path="url(#p7ce6ea3e2d)" d="M 310.183862 307.584 
L 311.496924 307.584 
L 311.496924 244.224 
L 310.183862 244.224 
z
" style="fill:#3b528b;opacity:0.5;stroke:#3b528b;stroke-linejoin:miter;"/>
   </g>
   <g id="patch_148">
    <path clip-path="url(#p7ce6ea3e2d)" d="M 311.82519 307.584 
L 313.138252 307.584 
L 313.138252 307.584 
L 311.82519 307.584 
z
" style="fill:#440154;opacity:0.5;stroke:#440154;stroke-linejoin:miter;"/>
   </g>
   <g id="patch_149">
    <path clip-path="url(#p7ce6ea3e2d)" d="M 313.466517 307.584 
L 314.779579 307.584 
L 314.779579 307.584 
L 313.466517 307.584 
z
" style="fill:#440154;opacity:0.5;stroke:#440154;stroke-linejoin:miter;"/>
   </g>
   <g id="patch_150">
    <path clip-path="url(#p7ce6ea3e2d)" d="M 315.107844 307.584 
L 316.420906 307.584 
L 316.420906 275.904 
L 315.107844 275.904 
z
" style="fill:#472d7b;opacity:0.5;stroke:#472d7b;stroke-linejoin:miter;"/>
   </g>
   <g id="patch_151">
    <path clip-path="url(#p7ce6ea3e2d)" d="M 316.749172 307.584 
L 318.062234 307.584 
L 318.062234 307.584 
L 316.749172 307.584 
z
" style="fill:#440154;opacity:0.5;stroke:#440154;stroke-linejoin:miter;"/>
   </g>
   <g id="patch_152">
    <path clip-path="url(#p7ce6ea3e2d)" d="M 318.390499 307.584 
L 319.703561 307.584 
L 319.703561 244.224 
L 318.390499 244.224 
z
" style="fill:#3b528b;opacity:0.5;stroke:#3b528b;stroke-linejoin:miter;"/>
   </g>
   <g id="patch_153">
    <path clip-path="url(#p7ce6ea3e2d)" d="M 320.031826 307.584 
L 321.344888 307.584 
L 321.344888 212.544 
L 320.031826 212.544 
z
" style="fill:#2c728e;opacity:0.5;stroke:#2c728e;stroke-linejoin:miter;"/>
   </g>
   <g id="patch_154">
    <path clip-path="url(#p7ce6ea3e2d)" d="M 321.673154 307.584 
L 322.986216 307.584 
L 322.986216 275.904 
L 321.673154 275.904 
z
" style="fill:#472d7b;opacity:0.5;stroke:#472d7b;stroke-linejoin:miter;"/>
   </g>
   <g id="patch_155">
    <path clip-path="url(#p7ce6ea3e2d)" d="M 323.314481 307.584 
L 324.627543 307.584 
L 324.627543 307.584 
L 323.314481 307.584 
z
" style="fill:#440154;opacity:0.5;stroke:#440154;stroke-linejoin:miter;"/>
   </g>
   <g id="patch_156">
    <path clip-path="url(#p7ce6ea3e2d)" d="M 324.955808 307.584 
L 326.26887 307.584 
L 326.26887 244.224 
L 324.955808 244.224 
z
" style="fill:#3b528b;opacity:0.5;stroke:#3b528b;stroke-linejoin:miter;"/>
   </g>
   <g id="patch_157">
    <path clip-path="url(#p7ce6ea3e2d)" d="M 326.597136 307.584 
L 327.910198 307.584 
L 327.910198 307.584 
L 326.597136 307.584 
z
" style="fill:#440154;opacity:0.5;stroke:#440154;stroke-linejoin:miter;"/>
   </g>
   <g id="patch_158">
    <path clip-path="url(#p7ce6ea3e2d)" d="M 328.238463 307.584 
L 329.551525 307.584 
L 329.551525 307.584 
L 328.238463 307.584 
z
" style="fill:#440154;opacity:0.5;stroke:#440154;stroke-linejoin:miter;"/>
   </g>
   <g id="patch_159">
    <path clip-path="url(#p7ce6ea3e2d)" d="M 329.87979 307.584 
L 331.192852 307.584 
L 331.192852 244.224 
L 329.87979 244.224 
z
" style="fill:#3b528b;opacity:0.5;stroke:#3b528b;stroke-linejoin:miter;"/>
   </g>
   <g id="patch_160">
    <path clip-path="url(#p7ce6ea3e2d)" d="M 331.521118 307.584 
L 332.83418 307.584 
L 332.83418 275.904 
L 331.521118 275.904 
z
" style="fill:#472d7b;opacity:0.5;stroke:#472d7b;stroke-linejoin:miter;"/>
   </g>
   <g id="patch_161">
    <path clip-path="url(#p7ce6ea3e2d)" d="M 333.162445 307.584 
L 334.475507 307.584 
L 334.475507 307.584 
L 333.162445 307.584 
z
" style="fill:#440154;opacity:0.5;stroke:#440154;stroke-linejoin:miter;"/>
   </g>
   <g id="patch_162">
    <path clip-path="url(#p7ce6ea3e2d)" d="M 334.803772 307.584 
L 336.116834 307.584 
L 336.116834 275.904 
L 334.803772 275.904 
z
" style="fill:#472d7b;opacity:0.5;stroke:#472d7b;stroke-linejoin:miter;"/>
   </g>
   <g id="patch_163">
    <path clip-path="url(#p7ce6ea3e2d)" d="M 336.4451 307.584 
L 337.758162 307.584 
L 337.758162 307.584 
L 336.4451 307.584 
z
" style="fill:#440154;opacity:0.5;stroke:#440154;stroke-linejoin:miter;"/>
   </g>
   <g id="patch_164">
    <path clip-path="url(#p7ce6ea3e2d)" d="M 338.086427 307.584 
L 339.399489 307.584 
L 339.399489 307.584 
L 338.086427 307.584 
z
" style="fill:#440154;opacity:0.5;stroke:#440154;stroke-linejoin:miter;"/>
   </g>
   <g id="patch_165">
    <path clip-path="url(#p7ce6ea3e2d)" d="M 339.727754 307.584 
L 341.040816 307.584 
L 341.040816 307.584 
L 339.727754 307.584 
z
" style="fill:#440154;opacity:0.5;stroke:#440154;stroke-linejoin:miter;"/>
   </g>
   <g id="patch_166">
    <path clip-path="url(#p7ce6ea3e2d)" d="M 341.369082 307.584 
L 342.682144 307.584 
L 342.682144 212.544 
L 341.369082 212.544 
z
" style="fill:#2c728e;opacity:0.5;stroke:#2c728e;stroke-linejoin:miter;"/>
   </g>
   <g id="patch_167">
    <path clip-path="url(#p7ce6ea3e2d)" d="M 343.010409 307.584 
L 344.323471 307.584 
L 344.323471 307.584 
L 343.010409 307.584 
z
" style="fill:#440154;opacity:0.5;stroke:#440154;stroke-linejoin:miter;"/>
   </g>
   <g id="patch_168">
    <path clip-path="url(#p7ce6ea3e2d)" d="M 344.651736 307.584 
L 345.964798 307.584 
L 345.964798 275.904 
L 344.651736 275.904 
z
" style="fill:#472d7b;opacity:0.5;stroke:#472d7b;stroke-linejoin:miter;"/>
   </g>
   <g id="patch_169">
    <path clip-path="url(#p7ce6ea3e2d)" d="M 346.293064 307.584 
L 347.606126 307.584 
L 347.606126 275.904 
L 346.293064 275.904 
z
" style="fill:#472d7b;opacity:0.5;stroke:#472d7b;stroke-linejoin:miter;"/>
   </g>
   <g id="patch_170">
    <path clip-path="url(#p7ce6ea3e2d)" d="M 347.934391 307.584 
L 349.247453 307.584 
L 349.247453 244.224 
L 347.934391 244.224 
z
" style="fill:#3b528b;opacity:0.5;stroke:#3b528b;stroke-linejoin:miter;"/>
   </g>
   <g id="patch_171">
    <path clip-path="url(#p7ce6ea3e2d)" d="M 349.575718 307.584 
L 350.88878 307.584 
L 350.88878 307.584 
L 349.575718 307.584 
z
" style="fill:#440154;opacity:0.5;stroke:#440154;stroke-linejoin:miter;"/>
   </g>
   <g id="patch_172">
    <path clip-path="url(#p7ce6ea3e2d)" d="M 351.217046 307.584 
L 352.530108 307.584 
L 352.530108 212.544 
L 351.217046 212.544 
z
" style="fill:#2c728e;opacity:0.5;stroke:#2c728e;stroke-linejoin:miter;"/>
   </g>
   <g id="patch_173">
    <path clip-path="url(#p7ce6ea3e2d)" d="M 352.858373 307.584 
L 354.171435 307.584 
L 354.171435 307.584 
L 352.858373 307.584 
z
" style="fill:#440154;opacity:0.5;stroke:#440154;stroke-linejoin:miter;"/>
   </g>
   <g id="patch_174">
    <path clip-path="url(#p7ce6ea3e2d)" d="M 354.4997 307.584 
L 355.812762 307.584 
L 355.812762 307.584 
L 354.4997 307.584 
z
" style="fill:#440154;opacity:0.5;stroke:#440154;stroke-linejoin:miter;"/>
   </g>
   <g id="patch_175">
    <path clip-path="url(#p7ce6ea3e2d)" d="M 356.141028 307.584 
L 357.45409 307.584 
L 357.45409 307.584 
L 356.141028 307.584 
z
" style="fill:#440154;opacity:0.5;stroke:#440154;stroke-linejoin:miter;"/>
   </g>
   <g id="patch_176">
    <path clip-path="url(#p7ce6ea3e2d)" d="M 357.782355 307.584 
L 359.095417 307.584 
L 359.095417 275.904 
L 357.782355 275.904 
z
" style="fill:#472d7b;opacity:0.5;stroke:#472d7b;stroke-linejoin:miter;"/>
   </g>
   <g id="patch_177">
    <path clip-path="url(#p7ce6ea3e2d)" d="M 359.423682 307.584 
L 360.736744 307.584 
L 360.736744 275.904 
L 359.423682 275.904 
z
" style="fill:#472d7b;opacity:0.5;stroke:#472d7b;stroke-linejoin:miter;"/>
   </g>
   <g id="patch_178">
    <path clip-path="url(#p7ce6ea3e2d)" d="M 361.06501 307.584 
L 362.378072 307.584 
L 362.378072 54.144 
L 361.06501 54.144 
z
" style="fill:#fde725;opacity:0.5;stroke:#fde725;stroke-linejoin:miter;"/>
   </g>
   <g id="patch_179">
    <path clip-path="url(#p7ce6ea3e2d)" d="M 362.706337 307.584 
L 364.019399 307.584 
L 364.019399 275.904 
L 362.706337 275.904 
z
" style="fill:#472d7b;opacity:0.5;stroke:#472d7b;stroke-linejoin:miter;"/>
   </g>
   <g id="patch_180">
    <path clip-path="url(#p7ce6ea3e2d)" d="M 364.347664 307.584 
L 365.660726 307.584 
L 365.660726 307.584 
L 364.347664 307.584 
z
" style="fill:#440154;opacity:0.5;stroke:#440154;stroke-linejoin:miter;"/>
   </g>
   <g id="patch_181">
    <path clip-path="url(#p7ce6ea3e2d)" d="M 365.988992 307.584 
L 367.302053 307.584 
L 367.302053 307.584 
L 365.988992 307.584 
z
" style="fill:#440154;opacity:0.5;stroke:#440154;stroke-linejoin:miter;"/>
   </g>
   <g id="patch_182">
    <path clip-path="url(#p7ce6ea3e2d)" d="M 367.630319 307.584 
L 368.943381 307.584 
L 368.943381 275.904 
L 367.630319 275.904 
z
" style="fill:#472d7b;opacity:0.5;stroke:#472d7b;stroke-linejoin:miter;"/>
   </g>
   <g id="patch_183">
    <path clip-path="url(#p7ce6ea3e2d)" d="M 369.271646 307.584 
L 370.584708 307.584 
L 370.584708 307.584 
L 369.271646 307.584 
z
" style="fill:#440154;opacity:0.5;stroke:#440154;stroke-linejoin:miter;"/>
   </g>
   <g id="patch_184">
    <path clip-path="url(#p7ce6ea3e2d)" d="M 370.912974 307.584 
L 372.226035 307.584 
L 372.226035 307.584 
L 370.912974 307.584 
z
" style="fill:#440154;opacity:0.5;stroke:#440154;stroke-linejoin:miter;"/>
   </g>
   <g id="patch_185">
    <path clip-path="url(#p7ce6ea3e2d)" d="M 372.554301 307.584 
L 373.867363 307.584 
L 373.867363 307.584 
L 372.554301 307.584 
z
" style="fill:#440154;opacity:0.5;stroke:#440154;stroke-linejoin:miter;"/>
   </g>
   <g id="patch_186">
    <path clip-path="url(#p7ce6ea3e2d)" d="M 374.195628 307.584 
L 375.50869 307.584 
L 375.50869 307.584 
L 374.195628 307.584 
z
" style="fill:#440154;opacity:0.5;stroke:#440154;stroke-linejoin:miter;"/>
   </g>
   <g id="patch_187">
    <path clip-path="url(#p7ce6ea3e2d)" d="M 375.836956 307.584 
L 377.150017 307.584 
L 377.150017 275.904 
L 375.836956 275.904 
z
" style="fill:#472d7b;opacity:0.5;stroke:#472d7b;stroke-linejoin:miter;"/>
   </g>
   <g id="patch_188">
    <path clip-path="url(#p7ce6ea3e2d)" d="M 377.478283 307.584 
L 378.791345 307.584 
L 378.791345 307.584 
L 377.478283 307.584 
z
" style="fill:#440154;opacity:0.5;stroke:#440154;stroke-linejoin:miter;"/>
   </g>
   <g id="patch_189">
    <path clip-path="url(#p7ce6ea3e2d)" d="M 379.11961 307.584 
L 380.432672 307.584 
L 380.432672 307.584 
L 379.11961 307.584 
z
" style="fill:#440154;opacity:0.5;stroke:#440154;stroke-linejoin:miter;"/>
   </g>
   <g id="patch_190">
    <path clip-path="url(#p7ce6ea3e2d)" d="M 380.760938 307.584 
L 382.073999 307.584 
L 382.073999 275.904 
L 380.760938 275.904 
z
" style="fill:#472d7b;opacity:0.5;stroke:#472d7b;stroke-linejoin:miter;"/>
   </g>
   <g id="patch_191">
    <path clip-path="url(#p7ce6ea3e2d)" d="M 382.402265 307.584 
L 383.715327 307.584 
L 383.715327 307.584 
L 382.402265 307.584 
z
" style="fill:#440154;opacity:0.5;stroke:#440154;stroke-linejoin:miter;"/>
   </g>
   <g id="patch_192">
    <path clip-path="url(#p7ce6ea3e2d)" d="M 384.043592 307.584 
L 385.356654 307.584 
L 385.356654 275.904 
L 384.043592 275.904 
z
" style="fill:#472d7b;opacity:0.5;stroke:#472d7b;stroke-linejoin:miter;"/>
   </g>
   <g id="patch_193">
    <path clip-path="url(#p7ce6ea3e2d)" d="M 385.68492 307.584 
L 386.997981 307.584 
L 386.997981 307.584 
L 385.68492 307.584 
z
" style="fill:#440154;opacity:0.5;stroke:#440154;stroke-linejoin:miter;"/>
   </g>
   <g id="patch_194">
    <path clip-path="url(#p7ce6ea3e2d)" d="M 387.326247 307.584 
L 388.639309 307.584 
L 388.639309 307.584 
L 387.326247 307.584 
z
" style="fill:#440154;opacity:0.5;stroke:#440154;stroke-linejoin:miter;"/>
   </g>
   <g id="patch_195">
    <path clip-path="url(#p7ce6ea3e2d)" d="M 388.967574 307.584 
L 390.280636 307.584 
L 390.280636 307.584 
L 388.967574 307.584 
z
" style="fill:#440154;opacity:0.5;stroke:#440154;stroke-linejoin:miter;"/>
   </g>
   <g id="patch_196">
    <path clip-path="url(#p7ce6ea3e2d)" d="M 390.608902 307.584 
L 391.921963 307.584 
L 391.921963 275.904 
L 390.608902 275.904 
z
" style="fill:#472d7b;opacity:0.5;stroke:#472d7b;stroke-linejoin:miter;"/>
   </g>
   <g id="patch_197">
    <path clip-path="url(#p7ce6ea3e2d)" d="M 392.250229 307.584 
L 393.563291 307.584 
L 393.563291 307.584 
L 392.250229 307.584 
z
" style="fill:#440154;opacity:0.5;stroke:#440154;stroke-linejoin:miter;"/>
   </g>
   <g id="patch_198">
    <path clip-path="url(#p7ce6ea3e2d)" d="M 393.891556 307.584 
L 395.204618 307.584 
L 395.204618 212.544 
L 393.891556 212.544 
z
" style="fill:#2c728e;opacity:0.5;stroke:#2c728e;stroke-linejoin:miter;"/>
   </g>
   <g id="patch_199">
    <path clip-path="url(#p7ce6ea3e2d)" d="M 395.532884 307.584 
L 396.845945 307.584 
L 396.845945 307.584 
L 395.532884 307.584 
z
" style="fill:#440154;opacity:0.5;stroke:#440154;stroke-linejoin:miter;"/>
   </g>
   <g id="patch_200">
    <path clip-path="url(#p7ce6ea3e2d)" d="M 397.174211 307.584 
L 398.487273 307.584 
L 398.487273 275.904 
L 397.174211 275.904 
z
" style="fill:#472d7b;opacity:0.5;stroke:#472d7b;stroke-linejoin:miter;"/>
   </g>
   <g id="matplotlib.axis_1">
    <g id="xtick_1">
     <g id="line2d_1">
      <defs>
       <path d="M 0 0 
L 0 3.5 
" id="m6765d8a4c9" style="stroke:#000000;stroke-width:0.8;"/>
      </defs>
      <g>
       <use style="stroke:#000000;stroke-width:0.8;" x="74.489258" xlink:href="#m6765d8a4c9" y="307.584"/>
      </g>
     </g>
     <g id="text_1">
      <!-- 0 -->
      <defs>
       <path d="M 31.78125 66.40625 
Q 24.171875 66.40625 20.328125 58.90625 
Q 16.5 51.421875 16.5 36.375 
Q 16.5 21.390625 20.328125 13.890625 
Q 24.171875 6.390625 31.78125 6.390625 
Q 39.453125 6.390625 43.28125 13.890625 
Q 47.125 21.390625 47.125 36.375 
Q 47.125 51.421875 43.28125 58.90625 
Q 39.453125 66.40625 31.78125 66.40625 
M 31.78125 74.21875 
Q 44.046875 74.21875 50.515625 64.515625 
Q 56.984375 54.828125 56.984375 36.375 
Q 56.984375 17.96875 50.515625 8.265625 
Q 44.046875 -1.421875 31.78125 -1.421875 
Q 19.53125 -1.421875 13.0625 8.265625 
Q 6.59375 17.96875 6.59375 36.375 
Q 6.59375 54.828125 13.0625 64.515625 
Q 19.53125 74.21875 31.78125 74.21875 
" id="DejaVuSans-30"/>
      </defs>
      <g transform="translate(71.308008 322.182437)scale(0.1 -0.1)">
       <use xlink:href="#DejaVuSans-30"/>
      </g>
     </g>
    </g>
    <g id="xtick_2">
     <g id="line2d_2">
      <g>
       <use style="stroke:#000000;stroke-width:0.8;" x="115.522441" xlink:href="#m6765d8a4c9" y="307.584"/>
      </g>
     </g>
     <g id="text_2">
      <!-- 25 -->
      <defs>
       <path d="M 19.1875 8.296875 
L 53.609375 8.296875 
L 53.609375 0 
L 7.328125 0 
L 7.328125 8.296875 
Q 12.9375 14.109375 22.625 23.890625 
Q 32.328125 33.6875 34.8125 36.53125 
Q 39.546875 41.84375 41.421875 45.53125 
Q 43.3125 49.21875 43.3125 52.78125 
Q 43.3125 58.59375 39.234375 62.25 
Q 35.15625 65.921875 28.609375 65.921875 
Q 23.96875 65.921875 18.8125 64.3125 
Q 13.671875 62.703125 7.8125 59.421875 
L 7.8125 69.390625 
Q 13.765625 71.78125 18.9375 73 
Q 24.125 74.21875 28.421875 74.21875 
Q 39.75 74.21875 46.484375 68.546875 
Q 53.21875 62.890625 53.21875 53.421875 
Q 53.21875 48.921875 51.53125 44.890625 
Q 49.859375 40.875 45.40625 35.40625 
Q 44.1875 33.984375 37.640625 27.21875 
Q 31.109375 20.453125 19.1875 8.296875 
" id="DejaVuSans-32"/>
       <path d="M 10.796875 72.90625 
L 49.515625 72.90625 
L 49.515625 64.59375 
L 19.828125 64.59375 
L 19.828125 46.734375 
Q 21.96875 47.46875 24.109375 47.828125 
Q 26.265625 48.1875 28.421875 48.1875 
Q 40.625 48.1875 47.75 41.5 
Q 54.890625 34.8125 54.890625 23.390625 
Q 54.890625 11.625 47.5625 5.09375 
Q 40.234375 -1.421875 26.90625 -1.421875 
Q 22.3125 -1.421875 17.546875 -0.640625 
Q 12.796875 0.140625 7.71875 1.703125 
L 7.71875 11.625 
Q 12.109375 9.234375 16.796875 8.0625 
Q 21.484375 6.890625 26.703125 6.890625 
Q 35.15625 6.890625 40.078125 11.328125 
Q 45.015625 15.765625 45.015625 23.390625 
Q 45.015625 31 40.078125 35.4375 
Q 35.15625 39.890625 26.703125 39.890625 
Q 22.75 39.890625 18.8125 39.015625 
Q 14.890625 38.140625 10.796875 36.28125 
z
" id="DejaVuSans-35"/>
      </defs>
      <g transform="translate(109.159941 322.182437)scale(0.1 -0.1)">
       <use xlink:href="#DejaVuSans-32"/>
       <use x="63.623047" xlink:href="#DejaVuSans-35"/>
      </g>
     </g>
    </g>
    <g id="xtick_3">
     <g id="line2d_3">
      <g>
       <use style="stroke:#000000;stroke-width:0.8;" x="156.555625" xlink:href="#m6765d8a4c9" y="307.584"/>
      </g>
     </g>
     <g id="text_3">
      <!-- 50 -->
      <g transform="translate(150.193125 322.182437)scale(0.1 -0.1)">
       <use xlink:href="#DejaVuSans-35"/>
       <use x="63.623047" xlink:href="#DejaVuSans-30"/>
      </g>
     </g>
    </g>
    <g id="xtick_4">
     <g id="line2d_4">
      <g>
       <use style="stroke:#000000;stroke-width:0.8;" x="197.588808" xlink:href="#m6765d8a4c9" y="307.584"/>
      </g>
     </g>
     <g id="text_4">
      <!-- 75 -->
      <defs>
       <path d="M 8.203125 72.90625 
L 55.078125 72.90625 
L 55.078125 68.703125 
L 28.609375 0 
L 18.3125 0 
L 43.21875 64.59375 
L 8.203125 64.59375 
z
" id="DejaVuSans-37"/>
      </defs>
      <g transform="translate(191.226308 322.182437)scale(0.1 -0.1)">
       <use xlink:href="#DejaVuSans-37"/>
       <use x="63.623047" xlink:href="#DejaVuSans-35"/>
      </g>
     </g>
    </g>
    <g id="xtick_5">
     <g id="line2d_5">
      <g>
       <use style="stroke:#000000;stroke-width:0.8;" x="238.621991" xlink:href="#m6765d8a4c9" y="307.584"/>
      </g>
     </g>
     <g id="text_5">
      <!-- 100 -->
      <defs>
       <path d="M 12.40625 8.296875 
L 28.515625 8.296875 
L 28.515625 63.921875 
L 10.984375 60.40625 
L 10.984375 69.390625 
L 28.421875 72.90625 
L 38.28125 72.90625 
L 38.28125 8.296875 
L 54.390625 8.296875 
L 54.390625 0 
L 12.40625 0 
z
" id="DejaVuSans-31"/>
      </defs>
      <g transform="translate(229.078241 322.182437)scale(0.1 -0.1)">
       <use xlink:href="#DejaVuSans-31"/>
       <use x="63.623047" xlink:href="#DejaVuSans-30"/>
       <use x="127.246094" xlink:href="#DejaVuSans-30"/>
      </g>
     </g>
    </g>
    <g id="xtick_6">
     <g id="line2d_6">
      <g>
       <use style="stroke:#000000;stroke-width:0.8;" x="279.655174" xlink:href="#m6765d8a4c9" y="307.584"/>
      </g>
     </g>
     <g id="text_6">
      <!-- 125 -->
      <g transform="translate(270.111424 322.182437)scale(0.1 -0.1)">
       <use xlink:href="#DejaVuSans-31"/>
       <use x="63.623047" xlink:href="#DejaVuSans-32"/>
       <use x="127.246094" xlink:href="#DejaVuSans-35"/>
      </g>
     </g>
    </g>
    <g id="xtick_7">
     <g id="line2d_7">
      <g>
       <use style="stroke:#000000;stroke-width:0.8;" x="320.688357" xlink:href="#m6765d8a4c9" y="307.584"/>
      </g>
     </g>
     <g id="text_7">
      <!-- 150 -->
      <g transform="translate(311.144607 322.182437)scale(0.1 -0.1)">
       <use xlink:href="#DejaVuSans-31"/>
       <use x="63.623047" xlink:href="#DejaVuSans-35"/>
       <use x="127.246094" xlink:href="#DejaVuSans-30"/>
      </g>
     </g>
    </g>
    <g id="xtick_8">
     <g id="line2d_8">
      <g>
       <use style="stroke:#000000;stroke-width:0.8;" x="361.721541" xlink:href="#m6765d8a4c9" y="307.584"/>
      </g>
     </g>
     <g id="text_8">
      <!-- 175 -->
      <g transform="translate(352.177791 322.182437)scale(0.1 -0.1)">
       <use xlink:href="#DejaVuSans-31"/>
       <use x="63.623047" xlink:href="#DejaVuSans-37"/>
       <use x="127.246094" xlink:href="#DejaVuSans-35"/>
      </g>
     </g>
    </g>
    <g id="xtick_9">
     <g id="line2d_9">
      <g>
       <use style="stroke:#000000;stroke-width:0.8;" x="402.754724" xlink:href="#m6765d8a4c9" y="307.584"/>
      </g>
     </g>
     <g id="text_9">
      <!-- 200 -->
      <g transform="translate(393.210974 322.182437)scale(0.1 -0.1)">
       <use xlink:href="#DejaVuSans-32"/>
       <use x="63.623047" xlink:href="#DejaVuSans-30"/>
       <use x="127.246094" xlink:href="#DejaVuSans-30"/>
      </g>
     </g>
    </g>
    <g id="text_10">
     <!-- Individuo -->
     <defs>
      <path d="M 9.8125 72.90625 
L 19.671875 72.90625 
L 19.671875 0 
L 9.8125 0 
z
" id="DejaVuSans-49"/>
      <path d="M 54.890625 33.015625 
L 54.890625 0 
L 45.90625 0 
L 45.90625 32.71875 
Q 45.90625 40.484375 42.875 44.328125 
Q 39.84375 48.1875 33.796875 48.1875 
Q 26.515625 48.1875 22.3125 43.546875 
Q 18.109375 38.921875 18.109375 30.90625 
L 18.109375 0 
L 9.078125 0 
L 9.078125 54.6875 
L 18.109375 54.6875 
L 18.109375 46.1875 
Q 21.34375 51.125 25.703125 53.5625 
Q 30.078125 56 35.796875 56 
Q 45.21875 56 50.046875 50.171875 
Q 54.890625 44.34375 54.890625 33.015625 
" id="DejaVuSans-6e"/>
      <path d="M 45.40625 46.390625 
L 45.40625 75.984375 
L 54.390625 75.984375 
L 54.390625 0 
L 45.40625 0 
L 45.40625 8.203125 
Q 42.578125 3.328125 38.25 0.953125 
Q 33.9375 -1.421875 27.875 -1.421875 
Q 17.96875 -1.421875 11.734375 6.484375 
Q 5.515625 14.40625 5.515625 27.296875 
Q 5.515625 40.1875 11.734375 48.09375 
Q 17.96875 56 27.875 56 
Q 33.9375 56 38.25 53.625 
Q 42.578125 51.265625 45.40625 46.390625 
M 14.796875 27.296875 
Q 14.796875 17.390625 18.875 11.75 
Q 22.953125 6.109375 30.078125 6.109375 
Q 37.203125 6.109375 41.296875 11.75 
Q 45.40625 17.390625 45.40625 27.296875 
Q 45.40625 37.203125 41.296875 42.84375 
Q 37.203125 48.484375 30.078125 48.484375 
Q 22.953125 48.484375 18.875 42.84375 
Q 14.796875 37.203125 14.796875 27.296875 
" id="DejaVuSans-64"/>
      <path d="M 9.421875 54.6875 
L 18.40625 54.6875 
L 18.40625 0 
L 9.421875 0 
z
M 9.421875 75.984375 
L 18.40625 75.984375 
L 18.40625 64.59375 
L 9.421875 64.59375 
z
" id="DejaVuSans-69"/>
      <path d="M 2.984375 54.6875 
L 12.5 54.6875 
L 29.59375 8.796875 
L 46.6875 54.6875 
L 56.203125 54.6875 
L 35.6875 0 
L 23.484375 0 
z
" id="DejaVuSans-76"/>
      <path d="M 8.5 21.578125 
L 8.5 54.6875 
L 17.484375 54.6875 
L 17.484375 21.921875 
Q 17.484375 14.15625 20.5 10.265625 
Q 23.53125 6.390625 29.59375 6.390625 
Q 36.859375 6.390625 41.078125 11.03125 
Q 45.3125 15.671875 45.3125 23.6875 
L 45.3125 54.6875 
L 54.296875 54.6875 
L 54.296875 0 
L 45.3125 0 
L 45.3125 8.40625 
Q 42.046875 3.421875 37.71875 1 
Q 33.40625 -1.421875 27.6875 -1.421875 
Q 18.265625 -1.421875 13.375 4.4375 
Q 8.5 10.296875 8.5 21.578125 
M 31.109375 56 
z
" id="DejaVuSans-75"/>
      <path d="M 30.609375 48.390625 
Q 23.390625 48.390625 19.1875 42.75 
Q 14.984375 37.109375 14.984375 27.296875 
Q 14.984375 17.484375 19.15625 11.84375 
Q 23.34375 6.203125 30.609375 6.203125 
Q 37.796875 6.203125 41.984375 11.859375 
Q 46.1875 17.53125 46.1875 27.296875 
Q 46.1875 37.015625 41.984375 42.703125 
Q 37.796875 48.390625 30.609375 48.390625 
M 30.609375 56 
Q 42.328125 56 49.015625 48.375 
Q 55.71875 40.765625 55.71875 27.296875 
Q 55.71875 13.875 49.015625 6.21875 
Q 42.328125 -1.421875 30.609375 -1.421875 
Q 18.84375 -1.421875 12.171875 6.21875 
Q 5.515625 13.875 5.515625 27.296875 
Q 5.515625 40.765625 12.171875 48.375 
Q 18.84375 56 30.609375 56 
" id="DejaVuSans-6f"/>
     </defs>
     <g transform="translate(213.202187 335.860562)scale(0.1 -0.1)">
      <use xlink:href="#DejaVuSans-49"/>
      <use x="29.492188" xlink:href="#DejaVuSans-6e"/>
      <use x="92.871094" xlink:href="#DejaVuSans-64"/>
      <use x="156.347656" xlink:href="#DejaVuSans-69"/>
      <use x="184.130859" xlink:href="#DejaVuSans-76"/>
      <use x="243.310547" xlink:href="#DejaVuSans-69"/>
      <use x="271.09375" xlink:href="#DejaVuSans-64"/>
      <use x="334.570312" xlink:href="#DejaVuSans-75"/>
      <use x="397.949219" xlink:href="#DejaVuSans-6f"/>
     </g>
    </g>
   </g>
   <g id="matplotlib.axis_2">
    <g id="ytick_1">
     <g id="line2d_10">
      <defs>
       <path d="M 0 0 
L -3.5 0 
" id="mb5a414b491" style="stroke:#000000;stroke-width:0.8;"/>
      </defs>
      <g>
       <use style="stroke:#000000;stroke-width:0.8;" x="57.6" xlink:href="#mb5a414b491" y="307.584"/>
      </g>
     </g>
     <g id="text_11">
      <!-- 0 -->
      <g transform="translate(44.2375 311.383219)scale(0.1 -0.1)">
       <use xlink:href="#DejaVuSans-30"/>
      </g>
     </g>
    </g>
    <g id="ytick_2">
     <g id="line2d_11">
      <g>
       <use style="stroke:#000000;stroke-width:0.8;" x="57.6" xlink:href="#mb5a414b491" y="275.904"/>
      </g>
     </g>
     <g id="text_12">
      <!-- 1 -->
      <g transform="translate(44.2375 279.703219)scale(0.1 -0.1)">
       <use xlink:href="#DejaVuSans-31"/>
      </g>
     </g>
    </g>
    <g id="ytick_3">
     <g id="line2d_12">
      <g>
       <use style="stroke:#000000;stroke-width:0.8;" x="57.6" xlink:href="#mb5a414b491" y="244.224"/>
      </g>
     </g>
     <g id="text_13">
      <!-- 2 -->
      <g transform="translate(44.2375 248.023219)scale(0.1 -0.1)">
       <use xlink:href="#DejaVuSans-32"/>
      </g>
     </g>
    </g>
    <g id="ytick_4">
     <g id="line2d_13">
      <g>
       <use style="stroke:#000000;stroke-width:0.8;" x="57.6" xlink:href="#mb5a414b491" y="212.544"/>
      </g>
     </g>
     <g id="text_14">
      <!-- 3 -->
      <defs>
       <path d="M 40.578125 39.3125 
Q 47.65625 37.796875 51.625 33 
Q 55.609375 28.21875 55.609375 21.1875 
Q 55.609375 10.40625 48.1875 4.484375 
Q 40.765625 -1.421875 27.09375 -1.421875 
Q 22.515625 -1.421875 17.65625 -0.515625 
Q 12.796875 0.390625 7.625 2.203125 
L 7.625 11.71875 
Q 11.71875 9.328125 16.59375 8.109375 
Q 21.484375 6.890625 26.8125 6.890625 
Q 36.078125 6.890625 40.9375 10.546875 
Q 45.796875 14.203125 45.796875 21.1875 
Q 45.796875 27.640625 41.28125 31.265625 
Q 36.765625 34.90625 28.71875 34.90625 
L 20.21875 34.90625 
L 20.21875 43.015625 
L 29.109375 43.015625 
Q 36.375 43.015625 40.234375 45.921875 
Q 44.09375 48.828125 44.09375 54.296875 
Q 44.09375 59.90625 40.109375 62.90625 
Q 36.140625 65.921875 28.71875 65.921875 
Q 24.65625 65.921875 20.015625 65.03125 
Q 15.375 64.15625 9.8125 62.3125 
L 9.8125 71.09375 
Q 15.4375 72.65625 20.34375 73.4375 
Q 25.25 74.21875 29.59375 74.21875 
Q 40.828125 74.21875 47.359375 69.109375 
Q 53.90625 64.015625 53.90625 55.328125 
Q 53.90625 49.265625 50.4375 45.09375 
Q 46.96875 40.921875 40.578125 39.3125 
" id="DejaVuSans-33"/>
      </defs>
      <g transform="translate(44.2375 216.343219)scale(0.1 -0.1)">
       <use xlink:href="#DejaVuSans-33"/>
      </g>
     </g>
    </g>
    <g id="ytick_5">
     <g id="line2d_14">
      <g>
       <use style="stroke:#000000;stroke-width:0.8;" x="57.6" xlink:href="#mb5a414b491" y="180.864"/>
      </g>
     </g>
     <g id="text_15">
      <!-- 4 -->
      <defs>
       <path d="M 37.796875 64.3125 
L 12.890625 25.390625 
L 37.796875 25.390625 
z
M 35.203125 72.90625 
L 47.609375 72.90625 
L 47.609375 25.390625 
L 58.015625 25.390625 
L 58.015625 17.1875 
L 47.609375 17.1875 
L 47.609375 0 
L 37.796875 0 
L 37.796875 17.1875 
L 4.890625 17.1875 
L 4.890625 26.703125 
z
" id="DejaVuSans-34"/>
      </defs>
      <g transform="translate(44.2375 184.663219)scale(0.1 -0.1)">
       <use xlink:href="#DejaVuSans-34"/>
      </g>
     </g>
    </g>
    <g id="ytick_6">
     <g id="line2d_15">
      <g>
       <use style="stroke:#000000;stroke-width:0.8;" x="57.6" xlink:href="#mb5a414b491" y="149.184"/>
      </g>
     </g>
     <g id="text_16">
      <!-- 5 -->
      <g transform="translate(44.2375 152.983219)scale(0.1 -0.1)">
       <use xlink:href="#DejaVuSans-35"/>
      </g>
     </g>
    </g>
    <g id="ytick_7">
     <g id="line2d_16">
      <g>
       <use style="stroke:#000000;stroke-width:0.8;" x="57.6" xlink:href="#mb5a414b491" y="117.504"/>
      </g>
     </g>
     <g id="text_17">
      <!-- 6 -->
      <defs>
       <path d="M 33.015625 40.375 
Q 26.375 40.375 22.484375 35.828125 
Q 18.609375 31.296875 18.609375 23.390625 
Q 18.609375 15.53125 22.484375 10.953125 
Q 26.375 6.390625 33.015625 6.390625 
Q 39.65625 6.390625 43.53125 10.953125 
Q 47.40625 15.53125 47.40625 23.390625 
Q 47.40625 31.296875 43.53125 35.828125 
Q 39.65625 40.375 33.015625 40.375 
M 52.59375 71.296875 
L 52.59375 62.3125 
Q 48.875 64.0625 45.09375 64.984375 
Q 41.3125 65.921875 37.59375 65.921875 
Q 27.828125 65.921875 22.671875 59.328125 
Q 17.53125 52.734375 16.796875 39.40625 
Q 19.671875 43.65625 24.015625 45.921875 
Q 28.375 48.1875 33.59375 48.1875 
Q 44.578125 48.1875 50.953125 41.515625 
Q 57.328125 34.859375 57.328125 23.390625 
Q 57.328125 12.15625 50.6875 5.359375 
Q 44.046875 -1.421875 33.015625 -1.421875 
Q 20.359375 -1.421875 13.671875 8.265625 
Q 6.984375 17.96875 6.984375 36.375 
Q 6.984375 53.65625 15.1875 63.9375 
Q 23.390625 74.21875 37.203125 74.21875 
Q 40.921875 74.21875 44.703125 73.484375 
Q 48.484375 72.75 52.59375 71.296875 
" id="DejaVuSans-36"/>
      </defs>
      <g transform="translate(44.2375 121.303219)scale(0.1 -0.1)">
       <use xlink:href="#DejaVuSans-36"/>
      </g>
     </g>
    </g>
    <g id="ytick_8">
     <g id="line2d_17">
      <g>
       <use style="stroke:#000000;stroke-width:0.8;" x="57.6" xlink:href="#mb5a414b491" y="85.824"/>
      </g>
     </g>
     <g id="text_18">
      <!-- 7 -->
      <g transform="translate(44.2375 89.623219)scale(0.1 -0.1)">
       <use xlink:href="#DejaVuSans-37"/>
      </g>
     </g>
    </g>
    <g id="ytick_9">
     <g id="line2d_18">
      <g>
       <use style="stroke:#000000;stroke-width:0.8;" x="57.6" xlink:href="#mb5a414b491" y="54.144"/>
      </g>
     </g>
     <g id="text_19">
      <!-- 8 -->
      <defs>
       <path d="M 31.78125 34.625 
Q 24.75 34.625 20.71875 30.859375 
Q 16.703125 27.09375 16.703125 20.515625 
Q 16.703125 13.921875 20.71875 10.15625 
Q 24.75 6.390625 31.78125 6.390625 
Q 38.8125 6.390625 42.859375 10.171875 
Q 46.921875 13.96875 46.921875 20.515625 
Q 46.921875 27.09375 42.890625 30.859375 
Q 38.875 34.625 31.78125 34.625 
M 21.921875 38.8125 
Q 15.578125 40.375 12.03125 44.71875 
Q 8.5 49.078125 8.5 55.328125 
Q 8.5 64.0625 14.71875 69.140625 
Q 20.953125 74.21875 31.78125 74.21875 
Q 42.671875 74.21875 48.875 69.140625 
Q 55.078125 64.0625 55.078125 55.328125 
Q 55.078125 49.078125 51.53125 44.71875 
Q 48 40.375 41.703125 38.8125 
Q 48.828125 37.15625 52.796875 32.3125 
Q 56.78125 27.484375 56.78125 20.515625 
Q 56.78125 9.90625 50.3125 4.234375 
Q 43.84375 -1.421875 31.78125 -1.421875 
Q 19.734375 -1.421875 13.25 4.234375 
Q 6.78125 9.90625 6.78125 20.515625 
Q 6.78125 27.484375 10.78125 32.3125 
Q 14.796875 37.15625 21.921875 38.8125 
M 18.3125 54.390625 
Q 18.3125 48.734375 21.84375 45.5625 
Q 25.390625 42.390625 31.78125 42.390625 
Q 38.140625 42.390625 41.71875 45.5625 
Q 45.3125 48.734375 45.3125 54.390625 
Q 45.3125 60.0625 41.71875 63.234375 
Q 38.140625 66.40625 31.78125 66.40625 
Q 25.390625 66.40625 21.84375 63.234375 
Q 18.3125 60.0625 18.3125 54.390625 
" id="DejaVuSans-38"/>
      </defs>
      <g transform="translate(44.2375 57.943219)scale(0.1 -0.1)">
       <use xlink:href="#DejaVuSans-38"/>
      </g>
     </g>
    </g>
    <g id="text_20">
     <!-- Vezes Selecionado -->
     <defs>
      <path d="M 28.609375 0 
L 0.78125 72.90625 
L 11.078125 72.90625 
L 34.1875 11.53125 
L 57.328125 72.90625 
L 67.578125 72.90625 
L 39.796875 0 
z
" id="DejaVuSans-56"/>
      <path d="M 56.203125 29.59375 
L 56.203125 25.203125 
L 14.890625 25.203125 
Q 15.484375 15.921875 20.484375 11.0625 
Q 25.484375 6.203125 34.421875 6.203125 
Q 39.59375 6.203125 44.453125 7.46875 
Q 49.3125 8.734375 54.109375 11.28125 
L 54.109375 2.78125 
Q 49.265625 0.734375 44.1875 -0.34375 
Q 39.109375 -1.421875 33.890625 -1.421875 
Q 20.796875 -1.421875 13.15625 6.1875 
Q 5.515625 13.8125 5.515625 26.8125 
Q 5.515625 40.234375 12.765625 48.109375 
Q 20.015625 56 32.328125 56 
Q 43.359375 56 49.78125 48.890625 
Q 56.203125 41.796875 56.203125 29.59375 
M 47.21875 32.234375 
Q 47.125 39.59375 43.09375 43.984375 
Q 39.0625 48.390625 32.421875 48.390625 
Q 24.90625 48.390625 20.390625 44.140625 
Q 15.875 39.890625 15.1875 32.171875 
z
" id="DejaVuSans-65"/>
      <path d="M 5.515625 54.6875 
L 48.1875 54.6875 
L 48.1875 46.484375 
L 14.40625 7.171875 
L 48.1875 7.171875 
L 48.1875 0 
L 4.296875 0 
L 4.296875 8.203125 
L 38.09375 47.515625 
L 5.515625 47.515625 
z
" id="DejaVuSans-7a"/>
      <path d="M 44.28125 53.078125 
L 44.28125 44.578125 
Q 40.484375 46.53125 36.375 47.5 
Q 32.28125 48.484375 27.875 48.484375 
Q 21.1875 48.484375 17.84375 46.4375 
Q 14.5 44.390625 14.5 40.28125 
Q 14.5 37.15625 16.890625 35.375 
Q 19.28125 33.59375 26.515625 31.984375 
L 29.59375 31.296875 
Q 39.15625 29.25 43.1875 25.515625 
Q 47.21875 21.78125 47.21875 15.09375 
Q 47.21875 7.46875 41.1875 3.015625 
Q 35.15625 -1.421875 24.609375 -1.421875 
Q 20.21875 -1.421875 15.453125 -0.5625 
Q 10.6875 0.296875 5.421875 2 
L 5.421875 11.28125 
Q 10.40625 8.6875 15.234375 7.390625 
Q 20.0625 6.109375 24.8125 6.109375 
Q 31.15625 6.109375 34.5625 8.28125 
Q 37.984375 10.453125 37.984375 14.40625 
Q 37.984375 18.0625 35.515625 20.015625 
Q 33.0625 21.96875 24.703125 23.78125 
L 21.578125 24.515625 
Q 13.234375 26.265625 9.515625 29.90625 
Q 5.8125 33.546875 5.8125 39.890625 
Q 5.8125 47.609375 11.28125 51.796875 
Q 16.75 56 26.8125 56 
Q 31.78125 56 36.171875 55.265625 
Q 40.578125 54.546875 44.28125 53.078125 
" id="DejaVuSans-73"/>
      <path id="DejaVuSans-20"/>
      <path d="M 53.515625 70.515625 
L 53.515625 60.890625 
Q 47.90625 63.578125 42.921875 64.890625 
Q 37.9375 66.21875 33.296875 66.21875 
Q 25.25 66.21875 20.875 63.09375 
Q 16.5 59.96875 16.5 54.203125 
Q 16.5 49.359375 19.40625 46.890625 
Q 22.3125 44.4375 30.421875 42.921875 
L 36.375 41.703125 
Q 47.40625 39.59375 52.65625 34.296875 
Q 57.90625 29 57.90625 20.125 
Q 57.90625 9.515625 50.796875 4.046875 
Q 43.703125 -1.421875 29.984375 -1.421875 
Q 24.8125 -1.421875 18.96875 -0.25 
Q 13.140625 0.921875 6.890625 3.21875 
L 6.890625 13.375 
Q 12.890625 10.015625 18.65625 8.296875 
Q 24.421875 6.59375 29.984375 6.59375 
Q 38.421875 6.59375 43.015625 9.90625 
Q 47.609375 13.234375 47.609375 19.390625 
Q 47.609375 24.75 44.3125 27.78125 
Q 41.015625 30.8125 33.5 32.328125 
L 27.484375 33.5 
Q 16.453125 35.6875 11.515625 40.375 
Q 6.59375 45.0625 6.59375 53.421875 
Q 6.59375 63.09375 13.40625 68.65625 
Q 20.21875 74.21875 32.171875 74.21875 
Q 37.3125 74.21875 42.625 73.28125 
Q 47.953125 72.359375 53.515625 70.515625 
" id="DejaVuSans-53"/>
      <path d="M 9.421875 75.984375 
L 18.40625 75.984375 
L 18.40625 0 
L 9.421875 0 
z
" id="DejaVuSans-6c"/>
      <path d="M 48.78125 52.59375 
L 48.78125 44.1875 
Q 44.96875 46.296875 41.140625 47.34375 
Q 37.3125 48.390625 33.40625 48.390625 
Q 24.65625 48.390625 19.8125 42.84375 
Q 14.984375 37.3125 14.984375 27.296875 
Q 14.984375 17.28125 19.8125 11.734375 
Q 24.65625 6.203125 33.40625 6.203125 
Q 37.3125 6.203125 41.140625 7.25 
Q 44.96875 8.296875 48.78125 10.40625 
L 48.78125 2.09375 
Q 45.015625 0.34375 40.984375 -0.53125 
Q 36.96875 -1.421875 32.421875 -1.421875 
Q 20.0625 -1.421875 12.78125 6.34375 
Q 5.515625 14.109375 5.515625 27.296875 
Q 5.515625 40.671875 12.859375 48.328125 
Q 20.21875 56 33.015625 56 
Q 37.15625 56 41.109375 55.140625 
Q 45.0625 54.296875 48.78125 52.59375 
" id="DejaVuSans-63"/>
      <path d="M 34.28125 27.484375 
Q 23.390625 27.484375 19.1875 25 
Q 14.984375 22.515625 14.984375 16.5 
Q 14.984375 11.71875 18.140625 8.90625 
Q 21.296875 6.109375 26.703125 6.109375 
Q 34.1875 6.109375 38.703125 11.40625 
Q 43.21875 16.703125 43.21875 25.484375 
L 43.21875 27.484375 
z
M 52.203125 31.203125 
L 52.203125 0 
L 43.21875 0 
L 43.21875 8.296875 
Q 40.140625 3.328125 35.546875 0.953125 
Q 30.953125 -1.421875 24.3125 -1.421875 
Q 15.921875 -1.421875 10.953125 3.296875 
Q 6 8.015625 6 15.921875 
Q 6 25.140625 12.171875 29.828125 
Q 18.359375 34.515625 30.609375 34.515625 
L 43.21875 34.515625 
L 43.21875 35.40625 
Q 43.21875 41.609375 39.140625 45 
Q 35.0625 48.390625 27.6875 48.390625 
Q 23 48.390625 18.546875 47.265625 
Q 14.109375 46.140625 10.015625 43.890625 
L 10.015625 52.203125 
Q 14.9375 54.109375 19.578125 55.046875 
Q 24.21875 56 28.609375 56 
Q 40.484375 56 46.34375 49.84375 
Q 52.203125 43.703125 52.203125 31.203125 
" id="DejaVuSans-61"/>
     </defs>
     <g transform="translate(38.157812 221.294406)rotate(-90)scale(0.1 -0.1)">
      <use xlink:href="#DejaVuSans-56"/>
      <use x="68.298828" xlink:href="#DejaVuSans-65"/>
      <use x="129.822266" xlink:href="#DejaVuSans-7a"/>
      <use x="182.3125" xlink:href="#DejaVuSans-65"/>
      <use x="243.835938" xlink:href="#DejaVuSans-73"/>
      <use x="295.935547" xlink:href="#DejaVuSans-20"/>
      <use x="327.722656" xlink:href="#DejaVuSans-53"/>
      <use x="391.199219" xlink:href="#DejaVuSans-65"/>
      <use x="452.722656" xlink:href="#DejaVuSans-6c"/>
      <use x="480.505859" xlink:href="#DejaVuSans-65"/>
      <use x="542.029297" xlink:href="#DejaVuSans-63"/>
      <use x="597.009766" xlink:href="#DejaVuSans-69"/>
      <use x="624.792969" xlink:href="#DejaVuSans-6f"/>
      <use x="685.974609" xlink:href="#DejaVuSans-6e"/>
      <use x="749.353516" xlink:href="#DejaVuSans-61"/>
      <use x="810.632812" xlink:href="#DejaVuSans-64"/>
      <use x="874.109375" xlink:href="#DejaVuSans-6f"/>
     </g>
    </g>
   </g>
   <g id="patch_201">
    <path d="M 57.6 307.584 
L 57.6 41.472 
" style="fill:none;stroke:#000000;stroke-linecap:square;stroke-linejoin:miter;stroke-width:0.8;"/>
   </g>
   <g id="patch_202">
    <path d="M 414.72 307.584 
L 414.72 41.472 
" style="fill:none;stroke:#000000;stroke-linecap:square;stroke-linejoin:miter;stroke-width:0.8;"/>
   </g>
   <g id="patch_203">
    <path d="M 57.6 307.584 
L 414.72 307.584 
" style="fill:none;stroke:#000000;stroke-linecap:square;stroke-linejoin:miter;stroke-width:0.8;"/>
   </g>
   <g id="patch_204">
    <path d="M 57.6 41.472 
L 414.72 41.472 
" style="fill:none;stroke:#000000;stroke-linecap:square;stroke-linejoin:miter;stroke-width:0.8;"/>
   </g>
   <g id="text_21">
    <!-- GASIR - Genetic Algorithm for SIR Model -->
    <defs>
     <path d="M 59.515625 10.40625 
L 59.515625 29.984375 
L 43.40625 29.984375 
L 43.40625 38.09375 
L 69.28125 38.09375 
L 69.28125 6.78125 
Q 63.578125 2.734375 56.6875 0.65625 
Q 49.8125 -1.421875 42 -1.421875 
Q 24.90625 -1.421875 15.25 8.5625 
Q 5.609375 18.5625 5.609375 36.375 
Q 5.609375 54.25 15.25 64.234375 
Q 24.90625 74.21875 42 74.21875 
Q 49.125 74.21875 55.546875 72.453125 
Q 61.96875 70.703125 67.390625 67.28125 
L 67.390625 56.78125 
Q 61.921875 61.421875 55.765625 63.765625 
Q 49.609375 66.109375 42.828125 66.109375 
Q 29.4375 66.109375 22.71875 58.640625 
Q 16.015625 51.171875 16.015625 36.375 
Q 16.015625 21.625 22.71875 14.15625 
Q 29.4375 6.6875 42.828125 6.6875 
Q 48.046875 6.6875 52.140625 7.59375 
Q 56.25 8.5 59.515625 10.40625 
" id="DejaVuSans-47"/>
     <path d="M 34.1875 63.1875 
L 20.796875 26.90625 
L 47.609375 26.90625 
z
M 28.609375 72.90625 
L 39.796875 72.90625 
L 67.578125 0 
L 57.328125 0 
L 50.6875 18.703125 
L 17.828125 18.703125 
L 11.1875 0 
L 0.78125 0 
z
" id="DejaVuSans-41"/>
     <path d="M 44.390625 34.1875 
Q 47.5625 33.109375 50.5625 29.59375 
Q 53.5625 26.078125 56.59375 19.921875 
L 66.609375 0 
L 56 0 
L 46.6875 18.703125 
Q 43.0625 26.03125 39.671875 28.421875 
Q 36.28125 30.8125 30.421875 30.8125 
L 19.671875 30.8125 
L 19.671875 0 
L 9.8125 0 
L 9.8125 72.90625 
L 32.078125 72.90625 
Q 44.578125 72.90625 50.734375 67.671875 
Q 56.890625 62.453125 56.890625 51.90625 
Q 56.890625 45.015625 53.6875 40.46875 
Q 50.484375 35.9375 44.390625 34.1875 
M 19.671875 64.796875 
L 19.671875 38.921875 
L 32.078125 38.921875 
Q 39.203125 38.921875 42.84375 42.21875 
Q 46.484375 45.515625 46.484375 51.90625 
Q 46.484375 58.296875 42.84375 61.546875 
Q 39.203125 64.796875 32.078125 64.796875 
z
" id="DejaVuSans-52"/>
     <path d="M 4.890625 31.390625 
L 31.203125 31.390625 
L 31.203125 23.390625 
L 4.890625 23.390625 
z
" id="DejaVuSans-2d"/>
     <path d="M 18.3125 70.21875 
L 18.3125 54.6875 
L 36.8125 54.6875 
L 36.8125 47.703125 
L 18.3125 47.703125 
L 18.3125 18.015625 
Q 18.3125 11.328125 20.140625 9.421875 
Q 21.96875 7.515625 27.59375 7.515625 
L 36.8125 7.515625 
L 36.8125 0 
L 27.59375 0 
Q 17.1875 0 13.234375 3.875 
Q 9.28125 7.765625 9.28125 18.015625 
L 9.28125 47.703125 
L 2.6875 47.703125 
L 2.6875 54.6875 
L 9.28125 54.6875 
L 9.28125 70.21875 
z
" id="DejaVuSans-74"/>
     <path d="M 45.40625 27.984375 
Q 45.40625 37.75 41.375 43.109375 
Q 37.359375 48.484375 30.078125 48.484375 
Q 22.859375 48.484375 18.828125 43.109375 
Q 14.796875 37.75 14.796875 27.984375 
Q 14.796875 18.265625 18.828125 12.890625 
Q 22.859375 7.515625 30.078125 7.515625 
Q 37.359375 7.515625 41.375 12.890625 
Q 45.40625 18.265625 45.40625 27.984375 
M 54.390625 6.78125 
Q 54.390625 -7.171875 48.1875 -13.984375 
Q 42 -20.796875 29.203125 -20.796875 
Q 24.46875 -20.796875 20.265625 -20.09375 
Q 16.0625 -19.390625 12.109375 -17.921875 
L 12.109375 -9.1875 
Q 16.0625 -11.328125 19.921875 -12.34375 
Q 23.78125 -13.375 27.78125 -13.375 
Q 36.625 -13.375 41.015625 -8.765625 
Q 45.40625 -4.15625 45.40625 5.171875 
L 45.40625 9.625 
Q 42.625 4.78125 38.28125 2.390625 
Q 33.9375 0 27.875 0 
Q 17.828125 0 11.671875 7.65625 
Q 5.515625 15.328125 5.515625 27.984375 
Q 5.515625 40.671875 11.671875 48.328125 
Q 17.828125 56 27.875 56 
Q 33.9375 56 38.28125 53.609375 
Q 42.625 51.21875 45.40625 46.390625 
L 45.40625 54.6875 
L 54.390625 54.6875 
z
" id="DejaVuSans-67"/>
     <path d="M 41.109375 46.296875 
Q 39.59375 47.171875 37.8125 47.578125 
Q 36.03125 48 33.890625 48 
Q 26.265625 48 22.1875 43.046875 
Q 18.109375 38.09375 18.109375 28.8125 
L 18.109375 0 
L 9.078125 0 
L 9.078125 54.6875 
L 18.109375 54.6875 
L 18.109375 46.1875 
Q 20.953125 51.171875 25.484375 53.578125 
Q 30.03125 56 36.53125 56 
Q 37.453125 56 38.578125 55.875 
Q 39.703125 55.765625 41.0625 55.515625 
z
" id="DejaVuSans-72"/>
     <path d="M 54.890625 33.015625 
L 54.890625 0 
L 45.90625 0 
L 45.90625 32.71875 
Q 45.90625 40.484375 42.875 44.328125 
Q 39.84375 48.1875 33.796875 48.1875 
Q 26.515625 48.1875 22.3125 43.546875 
Q 18.109375 38.921875 18.109375 30.90625 
L 18.109375 0 
L 9.078125 0 
L 9.078125 75.984375 
L 18.109375 75.984375 
L 18.109375 46.1875 
Q 21.34375 51.125 25.703125 53.5625 
Q 30.078125 56 35.796875 56 
Q 45.21875 56 50.046875 50.171875 
Q 54.890625 44.34375 54.890625 33.015625 
" id="DejaVuSans-68"/>
     <path d="M 52 44.1875 
Q 55.375 50.25 60.0625 53.125 
Q 64.75 56 71.09375 56 
Q 79.640625 56 84.28125 50.015625 
Q 88.921875 44.046875 88.921875 33.015625 
L 88.921875 0 
L 79.890625 0 
L 79.890625 32.71875 
Q 79.890625 40.578125 77.09375 44.375 
Q 74.3125 48.1875 68.609375 48.1875 
Q 61.625 48.1875 57.5625 43.546875 
Q 53.515625 38.921875 53.515625 30.90625 
L 53.515625 0 
L 44.484375 0 
L 44.484375 32.71875 
Q 44.484375 40.625 41.703125 44.40625 
Q 38.921875 48.1875 33.109375 48.1875 
Q 26.21875 48.1875 22.15625 43.53125 
Q 18.109375 38.875 18.109375 30.90625 
L 18.109375 0 
L 9.078125 0 
L 9.078125 54.6875 
L 18.109375 54.6875 
L 18.109375 46.1875 
Q 21.1875 51.21875 25.484375 53.609375 
Q 29.78125 56 35.6875 56 
Q 41.65625 56 45.828125 52.96875 
Q 50 49.953125 52 44.1875 
" id="DejaVuSans-6d"/>
     <path d="M 37.109375 75.984375 
L 37.109375 68.5 
L 28.515625 68.5 
Q 23.6875 68.5 21.796875 66.546875 
Q 19.921875 64.59375 19.921875 59.515625 
L 19.921875 54.6875 
L 34.71875 54.6875 
L 34.71875 47.703125 
L 19.921875 47.703125 
L 19.921875 0 
L 10.890625 0 
L 10.890625 47.703125 
L 2.296875 47.703125 
L 2.296875 54.6875 
L 10.890625 54.6875 
L 10.890625 58.5 
Q 10.890625 67.625 15.140625 71.796875 
Q 19.390625 75.984375 28.609375 75.984375 
z
" id="DejaVuSans-66"/>
     <path d="M 9.8125 72.90625 
L 24.515625 72.90625 
L 43.109375 23.296875 
L 61.8125 72.90625 
L 76.515625 72.90625 
L 76.515625 0 
L 66.890625 0 
L 66.890625 64.015625 
L 48.09375 14.015625 
L 38.1875 14.015625 
L 19.390625 64.015625 
L 19.390625 0 
L 9.8125 0 
z
" id="DejaVuSans-4d"/>
    </defs>
    <g transform="translate(115.500938 35.472)scale(0.12 -0.12)">
     <use xlink:href="#DejaVuSans-47"/>
     <use x="77.490234" xlink:href="#DejaVuSans-41"/>
     <use x="145.898438" xlink:href="#DejaVuSans-53"/>
     <use x="209.375" xlink:href="#DejaVuSans-49"/>
     <use x="238.867188" xlink:href="#DejaVuSans-52"/>
     <use x="308.349609" xlink:href="#DejaVuSans-20"/>
     <use x="340.136719" xlink:href="#DejaVuSans-2d"/>
     <use x="376.220703" xlink:href="#DejaVuSans-20"/>
     <use x="408.007812" xlink:href="#DejaVuSans-47"/>
     <use x="485.498047" xlink:href="#DejaVuSans-65"/>
     <use x="547.021484" xlink:href="#DejaVuSans-6e"/>
     <use x="610.400391" xlink:href="#DejaVuSans-65"/>
     <use x="671.923828" xlink:href="#DejaVuSans-74"/>
     <use x="711.132812" xlink:href="#DejaVuSans-69"/>
     <use x="738.916016" xlink:href="#DejaVuSans-63"/>
     <use x="793.896484" xlink:href="#DejaVuSans-20"/>
     <use x="825.683594" xlink:href="#DejaVuSans-41"/>
     <use x="894.091797" xlink:href="#DejaVuSans-6c"/>
     <use x="921.875" xlink:href="#DejaVuSans-67"/>
     <use x="985.351562" xlink:href="#DejaVuSans-6f"/>
     <use x="1046.533203" xlink:href="#DejaVuSans-72"/>
     <use x="1087.646484" xlink:href="#DejaVuSans-69"/>
     <use x="1115.429688" xlink:href="#DejaVuSans-74"/>
     <use x="1154.638672" xlink:href="#DejaVuSans-68"/>
     <use x="1218.017578" xlink:href="#DejaVuSans-6d"/>
     <use x="1315.429688" xlink:href="#DejaVuSans-20"/>
     <use x="1347.216797" xlink:href="#DejaVuSans-66"/>
     <use x="1382.421875" xlink:href="#DejaVuSans-6f"/>
     <use x="1443.603516" xlink:href="#DejaVuSans-72"/>
     <use x="1484.716797" xlink:href="#DejaVuSans-20"/>
     <use x="1516.503906" xlink:href="#DejaVuSans-53"/>
     <use x="1579.980469" xlink:href="#DejaVuSans-49"/>
     <use x="1609.472656" xlink:href="#DejaVuSans-52"/>
     <use x="1678.955078" xlink:href="#DejaVuSans-20"/>
     <use x="1710.742188" xlink:href="#DejaVuSans-4d"/>
     <use x="1797.021484" xlink:href="#DejaVuSans-6f"/>
     <use x="1858.203125" xlink:href="#DejaVuSans-64"/>
     <use x="1921.679688" xlink:href="#DejaVuSans-65"/>
     <use x="1983.203125" xlink:href="#DejaVuSans-6c"/>
    </g>
   </g>
  </g>
 </g>
 <defs>
  <clipPath id="p7ce6ea3e2d">
   <rect height="266.112" width="357.12" x="57.6" y="41.472"/>
  </clipPath>
 </defs>
</svg>
