<?xml version="1.0" encoding="utf-8" standalone="no"?>
<!DOCTYPE svg PUBLIC "-//W3C//DTD SVG 1.1//EN"
  "http://www.w3.org/Graphics/SVG/1.1/DTD/svg11.dtd">
<!-- Created with matplotlib (http://matplotlib.org/) -->
<svg height="345pt" version="1.1" viewBox="0 0 460 345" width="460pt" xmlns="http://www.w3.org/2000/svg" xmlns:xlink="http://www.w3.org/1999/xlink">
 <defs>
  <style type="text/css">
*{stroke-linecap:butt;stroke-linejoin:round;}
  </style>
 </defs>
 <g id="figure_1">
  <g id="patch_1">
   <path d="M 0 345.6 
L 460.8 345.6 
L 460.8 0 
L 0 0 
z
" style="fill:#ffffff;"/>
  </g>
  <g id="axes_1">
   <g id="patch_2">
    <path d="M 57.6 307.584 
L 414.72 307.584 
L 414.72 41.472 
L 57.6 41.472 
z
" style="fill:#ffffff;"/>
   </g>
   <g id="patch_3">
    <path clip-path="url(#p984faeb734)" d="M 73.832727 307.584 
L 76.435169 307.584 
L 76.435169 307.584 
L 73.832727 307.584 
z
" style="fill:#440154;opacity:0.5;stroke:#440154;stroke-linejoin:miter;"/>
   </g>
   <g id="patch_4">
    <path clip-path="url(#p984faeb734)" d="M 77.085779 307.584 
L 79.68822 307.584 
L 79.68822 126.555429 
L 77.085779 126.555429 
z
" style="fill:#4ac16d;opacity:0.5;stroke:#4ac16d;stroke-linejoin:miter;"/>
   </g>
   <g id="patch_5">
    <path clip-path="url(#p984faeb734)" d="M 80.33883 307.584 
L 82.941272 307.584 
L 82.941272 271.378286 
L 80.33883 271.378286 
z
" style="fill:#46327e;opacity:0.5;stroke:#46327e;stroke-linejoin:miter;"/>
   </g>
   <g id="patch_6">
    <path clip-path="url(#p984faeb734)" d="M 83.591882 307.584 
L 86.194323 307.584 
L 86.194323 198.966857 
L 83.591882 198.966857 
z
" style="fill:#277f8e;opacity:0.5;stroke:#277f8e;stroke-linejoin:miter;"/>
   </g>
   <g id="patch_7">
    <path clip-path="url(#p984faeb734)" d="M 86.844934 307.584 
L 89.447375 307.584 
L 89.447375 126.555429 
L 86.844934 126.555429 
z
" style="fill:#4ac16d;opacity:0.5;stroke:#4ac16d;stroke-linejoin:miter;"/>
   </g>
   <g id="patch_8">
    <path clip-path="url(#p984faeb734)" d="M 90.097985 307.584 
L 92.700426 307.584 
L 92.700426 307.584 
L 90.097985 307.584 
z
" style="fill:#440154;opacity:0.5;stroke:#440154;stroke-linejoin:miter;"/>
   </g>
   <g id="patch_9">
    <path clip-path="url(#p984faeb734)" d="M 93.351037 307.584 
L 95.953478 307.584 
L 95.953478 235.172571 
L 93.351037 235.172571 
z
" style="fill:#365c8d;opacity:0.5;stroke:#365c8d;stroke-linejoin:miter;"/>
   </g>
   <g id="patch_10">
    <path clip-path="url(#p984faeb734)" d="M 96.604088 307.584 
L 99.206529 307.584 
L 99.206529 271.378286 
L 96.604088 271.378286 
z
" style="fill:#46327e;opacity:0.5;stroke:#46327e;stroke-linejoin:miter;"/>
   </g>
   <g id="patch_11">
    <path clip-path="url(#p984faeb734)" d="M 99.85714 307.584 
L 102.459581 307.584 
L 102.459581 235.172571 
L 99.85714 235.172571 
z
" style="fill:#365c8d;opacity:0.5;stroke:#365c8d;stroke-linejoin:miter;"/>
   </g>
   <g id="patch_12">
    <path clip-path="url(#p984faeb734)" d="M 103.110191 307.584 
L 105.712633 307.584 
L 105.712633 307.584 
L 103.110191 307.584 
z
" style="fill:#440154;opacity:0.5;stroke:#440154;stroke-linejoin:miter;"/>
   </g>
   <g id="patch_13">
    <path clip-path="url(#p984faeb734)" d="M 106.363243 307.584 
L 108.965684 307.584 
L 108.965684 235.172571 
L 106.363243 235.172571 
z
" style="fill:#365c8d;opacity:0.5;stroke:#365c8d;stroke-linejoin:miter;"/>
   </g>
   <g id="patch_14">
    <path clip-path="url(#p984faeb734)" d="M 109.616294 307.584 
L 112.218736 307.584 
L 112.218736 235.172571 
L 109.616294 235.172571 
z
" style="fill:#365c8d;opacity:0.5;stroke:#365c8d;stroke-linejoin:miter;"/>
   </g>
   <g id="patch_15">
    <path clip-path="url(#p984faeb734)" d="M 112.869346 307.584 
L 115.471787 307.584 
L 115.471787 307.584 
L 112.869346 307.584 
z
" style="fill:#440154;opacity:0.5;stroke:#440154;stroke-linejoin:miter;"/>
   </g>
   <g id="patch_16">
    <path clip-path="url(#p984faeb734)" d="M 116.122398 307.584 
L 118.724839 307.584 
L 118.724839 271.378286 
L 116.122398 271.378286 
z
" style="fill:#46327e;opacity:0.5;stroke:#46327e;stroke-linejoin:miter;"/>
   </g>
   <g id="patch_17">
    <path clip-path="url(#p984faeb734)" d="M 119.375449 307.584 
L 121.97789 307.584 
L 121.97789 235.172571 
L 119.375449 235.172571 
z
" style="fill:#365c8d;opacity:0.5;stroke:#365c8d;stroke-linejoin:miter;"/>
   </g>
   <g id="patch_18">
    <path clip-path="url(#p984faeb734)" d="M 122.628501 307.584 
L 125.230942 307.584 
L 125.230942 271.378286 
L 122.628501 271.378286 
z
" style="fill:#46327e;opacity:0.5;stroke:#46327e;stroke-linejoin:miter;"/>
   </g>
   <g id="patch_19">
    <path clip-path="url(#p984faeb734)" d="M 125.881552 307.584 
L 128.483993 307.584 
L 128.483993 162.761143 
L 125.881552 162.761143 
z
" style="fill:#1fa187;opacity:0.5;stroke:#1fa187;stroke-linejoin:miter;"/>
   </g>
   <g id="patch_20">
    <path clip-path="url(#p984faeb734)" d="M 129.134604 307.584 
L 131.737045 307.584 
L 131.737045 271.378286 
L 129.134604 271.378286 
z
" style="fill:#46327e;opacity:0.5;stroke:#46327e;stroke-linejoin:miter;"/>
   </g>
   <g id="patch_21">
    <path clip-path="url(#p984faeb734)" d="M 132.387655 307.584 
L 134.990097 307.584 
L 134.990097 271.378286 
L 132.387655 271.378286 
z
" style="fill:#46327e;opacity:0.5;stroke:#46327e;stroke-linejoin:miter;"/>
   </g>
   <g id="patch_22">
    <path clip-path="url(#p984faeb734)" d="M 135.640707 307.584 
L 138.243148 307.584 
L 138.243148 307.584 
L 135.640707 307.584 
z
" style="fill:#440154;opacity:0.5;stroke:#440154;stroke-linejoin:miter;"/>
   </g>
   <g id="patch_23">
    <path clip-path="url(#p984faeb734)" d="M 138.893758 307.584 
L 141.4962 307.584 
L 141.4962 235.172571 
L 138.893758 235.172571 
z
" style="fill:#365c8d;opacity:0.5;stroke:#365c8d;stroke-linejoin:miter;"/>
   </g>
   <g id="patch_24">
    <path clip-path="url(#p984faeb734)" d="M 142.14681 307.584 
L 144.749251 307.584 
L 144.749251 235.172571 
L 142.14681 235.172571 
z
" style="fill:#365c8d;opacity:0.5;stroke:#365c8d;stroke-linejoin:miter;"/>
   </g>
   <g id="patch_25">
    <path clip-path="url(#p984faeb734)" d="M 145.399862 307.584 
L 148.002303 307.584 
L 148.002303 271.378286 
L 145.399862 271.378286 
z
" style="fill:#46327e;opacity:0.5;stroke:#46327e;stroke-linejoin:miter;"/>
   </g>
   <g id="patch_26">
    <path clip-path="url(#p984faeb734)" d="M 148.652913 307.584 
L 151.255354 307.584 
L 151.255354 198.966857 
L 148.652913 198.966857 
z
" style="fill:#277f8e;opacity:0.5;stroke:#277f8e;stroke-linejoin:miter;"/>
   </g>
   <g id="patch_27">
    <path clip-path="url(#p984faeb734)" d="M 151.905965 307.584 
L 154.508406 307.584 
L 154.508406 271.378286 
L 151.905965 271.378286 
z
" style="fill:#46327e;opacity:0.5;stroke:#46327e;stroke-linejoin:miter;"/>
   </g>
   <g id="patch_28">
    <path clip-path="url(#p984faeb734)" d="M 155.159016 307.584 
L 157.761457 307.584 
L 157.761457 307.584 
L 155.159016 307.584 
z
" style="fill:#440154;opacity:0.5;stroke:#440154;stroke-linejoin:miter;"/>
   </g>
   <g id="patch_29">
    <path clip-path="url(#p984faeb734)" d="M 158.412068 307.584 
L 161.014509 307.584 
L 161.014509 271.378286 
L 158.412068 271.378286 
z
" style="fill:#46327e;opacity:0.5;stroke:#46327e;stroke-linejoin:miter;"/>
   </g>
   <g id="patch_30">
    <path clip-path="url(#p984faeb734)" d="M 161.665119 307.584 
L 164.267561 307.584 
L 164.267561 198.966857 
L 161.665119 198.966857 
z
" style="fill:#277f8e;opacity:0.5;stroke:#277f8e;stroke-linejoin:miter;"/>
   </g>
   <g id="patch_31">
    <path clip-path="url(#p984faeb734)" d="M 164.918171 307.584 
L 167.520612 307.584 
L 167.520612 307.584 
L 164.918171 307.584 
z
" style="fill:#440154;opacity:0.5;stroke:#440154;stroke-linejoin:miter;"/>
   </g>
   <g id="patch_32">
    <path clip-path="url(#p984faeb734)" d="M 168.171222 307.584 
L 170.773664 307.584 
L 170.773664 271.378286 
L 168.171222 271.378286 
z
" style="fill:#46327e;opacity:0.5;stroke:#46327e;stroke-linejoin:miter;"/>
   </g>
   <g id="patch_33">
    <path clip-path="url(#p984faeb734)" d="M 171.424274 307.584 
L 174.026715 307.584 
L 174.026715 271.378286 
L 171.424274 271.378286 
z
" style="fill:#46327e;opacity:0.5;stroke:#46327e;stroke-linejoin:miter;"/>
   </g>
   <g id="patch_34">
    <path clip-path="url(#p984faeb734)" d="M 174.677326 307.584 
L 177.279767 307.584 
L 177.279767 162.761143 
L 174.677326 162.761143 
z
" style="fill:#1fa187;opacity:0.5;stroke:#1fa187;stroke-linejoin:miter;"/>
   </g>
   <g id="patch_35">
    <path clip-path="url(#p984faeb734)" d="M 177.930377 307.584 
L 180.532818 307.584 
L 180.532818 307.584 
L 177.930377 307.584 
z
" style="fill:#440154;opacity:0.5;stroke:#440154;stroke-linejoin:miter;"/>
   </g>
   <g id="patch_36">
    <path clip-path="url(#p984faeb734)" d="M 181.183429 307.584 
L 183.78587 307.584 
L 183.78587 198.966857 
L 181.183429 198.966857 
z
" style="fill:#277f8e;opacity:0.5;stroke:#277f8e;stroke-linejoin:miter;"/>
   </g>
   <g id="patch_37">
    <path clip-path="url(#p984faeb734)" d="M 184.43648 307.584 
L 187.038921 307.584 
L 187.038921 54.144 
L 184.43648 54.144 
z
" style="fill:#fde725;opacity:0.5;stroke:#fde725;stroke-linejoin:miter;"/>
   </g>
   <g id="patch_38">
    <path clip-path="url(#p984faeb734)" d="M 187.689532 307.584 
L 190.291973 307.584 
L 190.291973 271.378286 
L 187.689532 271.378286 
z
" style="fill:#46327e;opacity:0.5;stroke:#46327e;stroke-linejoin:miter;"/>
   </g>
   <g id="patch_39">
    <path clip-path="url(#p984faeb734)" d="M 190.942583 307.584 
L 193.545025 307.584 
L 193.545025 271.378286 
L 190.942583 271.378286 
z
" style="fill:#46327e;opacity:0.5;stroke:#46327e;stroke-linejoin:miter;"/>
   </g>
   <g id="patch_40">
    <path clip-path="url(#p984faeb734)" d="M 194.195635 307.584 
L 196.798076 307.584 
L 196.798076 235.172571 
L 194.195635 235.172571 
z
" style="fill:#365c8d;opacity:0.5;stroke:#365c8d;stroke-linejoin:miter;"/>
   </g>
   <g id="patch_41">
    <path clip-path="url(#p984faeb734)" d="M 197.448686 307.584 
L 200.051128 307.584 
L 200.051128 271.378286 
L 197.448686 271.378286 
z
" style="fill:#46327e;opacity:0.5;stroke:#46327e;stroke-linejoin:miter;"/>
   </g>
   <g id="patch_42">
    <path clip-path="url(#p984faeb734)" d="M 200.701738 307.584 
L 203.304179 307.584 
L 203.304179 271.378286 
L 200.701738 271.378286 
z
" style="fill:#46327e;opacity:0.5;stroke:#46327e;stroke-linejoin:miter;"/>
   </g>
   <g id="patch_43">
    <path clip-path="url(#p984faeb734)" d="M 203.95479 307.584 
L 206.557231 307.584 
L 206.557231 271.378286 
L 203.95479 271.378286 
z
" style="fill:#46327e;opacity:0.5;stroke:#46327e;stroke-linejoin:miter;"/>
   </g>
   <g id="patch_44">
    <path clip-path="url(#p984faeb734)" d="M 207.207841 307.584 
L 209.810282 307.584 
L 209.810282 126.555429 
L 207.207841 126.555429 
z
" style="fill:#4ac16d;opacity:0.5;stroke:#4ac16d;stroke-linejoin:miter;"/>
   </g>
   <g id="patch_45">
    <path clip-path="url(#p984faeb734)" d="M 210.460893 307.584 
L 213.063334 307.584 
L 213.063334 235.172571 
L 210.460893 235.172571 
z
" style="fill:#365c8d;opacity:0.5;stroke:#365c8d;stroke-linejoin:miter;"/>
   </g>
   <g id="patch_46">
    <path clip-path="url(#p984faeb734)" d="M 213.713944 307.584 
L 216.316385 307.584 
L 216.316385 90.349714 
L 213.713944 90.349714 
z
" style="fill:#a0da39;opacity:0.5;stroke:#a0da39;stroke-linejoin:miter;"/>
   </g>
   <g id="patch_47">
    <path clip-path="url(#p984faeb734)" d="M 216.966996 307.584 
L 219.569437 307.584 
L 219.569437 271.378286 
L 216.966996 271.378286 
z
" style="fill:#46327e;opacity:0.5;stroke:#46327e;stroke-linejoin:miter;"/>
   </g>
   <g id="patch_48">
    <path clip-path="url(#p984faeb734)" d="M 220.220047 307.584 
L 222.822489 307.584 
L 222.822489 198.966857 
L 220.220047 198.966857 
z
" style="fill:#277f8e;opacity:0.5;stroke:#277f8e;stroke-linejoin:miter;"/>
   </g>
   <g id="patch_49">
    <path clip-path="url(#p984faeb734)" d="M 223.473099 307.584 
L 226.07554 307.584 
L 226.07554 271.378286 
L 223.473099 271.378286 
z
" style="fill:#46327e;opacity:0.5;stroke:#46327e;stroke-linejoin:miter;"/>
   </g>
   <g id="patch_50">
    <path clip-path="url(#p984faeb734)" d="M 226.72615 307.584 
L 229.328592 307.584 
L 229.328592 235.172571 
L 226.72615 235.172571 
z
" style="fill:#365c8d;opacity:0.5;stroke:#365c8d;stroke-linejoin:miter;"/>
   </g>
   <g id="patch_51">
    <path clip-path="url(#p984faeb734)" d="M 229.979202 307.584 
L 232.581643 307.584 
L 232.581643 271.378286 
L 229.979202 271.378286 
z
" style="fill:#46327e;opacity:0.5;stroke:#46327e;stroke-linejoin:miter;"/>
   </g>
   <g id="patch_52">
    <path clip-path="url(#p984faeb734)" d="M 233.232254 307.584 
L 235.834695 307.584 
L 235.834695 235.172571 
L 233.232254 235.172571 
z
" style="fill:#365c8d;opacity:0.5;stroke:#365c8d;stroke-linejoin:miter;"/>
   </g>
   <g id="patch_53">
    <path clip-path="url(#p984faeb734)" d="M 236.485305 307.584 
L 239.087746 307.584 
L 239.087746 198.966857 
L 236.485305 198.966857 
z
" style="fill:#277f8e;opacity:0.5;stroke:#277f8e;stroke-linejoin:miter;"/>
   </g>
   <g id="patch_54">
    <path clip-path="url(#p984faeb734)" d="M 239.738357 307.584 
L 242.340798 307.584 
L 242.340798 271.378286 
L 239.738357 271.378286 
z
" style="fill:#46327e;opacity:0.5;stroke:#46327e;stroke-linejoin:miter;"/>
   </g>
   <g id="patch_55">
    <path clip-path="url(#p984faeb734)" d="M 242.991408 307.584 
L 245.59385 307.584 
L 245.59385 235.172571 
L 242.991408 235.172571 
z
" style="fill:#365c8d;opacity:0.5;stroke:#365c8d;stroke-linejoin:miter;"/>
   </g>
   <g id="patch_56">
    <path clip-path="url(#p984faeb734)" d="M 246.24446 307.584 
L 248.846901 307.584 
L 248.846901 235.172571 
L 246.24446 235.172571 
z
" style="fill:#365c8d;opacity:0.5;stroke:#365c8d;stroke-linejoin:miter;"/>
   </g>
   <g id="patch_57">
    <path clip-path="url(#p984faeb734)" d="M 249.497511 307.584 
L 252.099953 307.584 
L 252.099953 271.378286 
L 249.497511 271.378286 
z
" style="fill:#46327e;opacity:0.5;stroke:#46327e;stroke-linejoin:miter;"/>
   </g>
   <g id="patch_58">
    <path clip-path="url(#p984faeb734)" d="M 252.750563 307.584 
L 255.353004 307.584 
L 255.353004 198.966857 
L 252.750563 198.966857 
z
" style="fill:#277f8e;opacity:0.5;stroke:#277f8e;stroke-linejoin:miter;"/>
   </g>
   <g id="patch_59">
    <path clip-path="url(#p984faeb734)" d="M 256.003615 307.584 
L 258.606056 307.584 
L 258.606056 198.966857 
L 256.003615 198.966857 
z
" style="fill:#277f8e;opacity:0.5;stroke:#277f8e;stroke-linejoin:miter;"/>
   </g>
   <g id="patch_60">
    <path clip-path="url(#p984faeb734)" d="M 259.256666 307.584 
L 261.859107 307.584 
L 261.859107 235.172571 
L 259.256666 235.172571 
z
" style="fill:#365c8d;opacity:0.5;stroke:#365c8d;stroke-linejoin:miter;"/>
   </g>
   <g id="patch_61">
    <path clip-path="url(#p984faeb734)" d="M 262.509718 307.584 
L 265.112159 307.584 
L 265.112159 235.172571 
L 262.509718 235.172571 
z
" style="fill:#365c8d;opacity:0.5;stroke:#365c8d;stroke-linejoin:miter;"/>
   </g>
   <g id="patch_62">
    <path clip-path="url(#p984faeb734)" d="M 265.762769 307.584 
L 268.36521 307.584 
L 268.36521 162.761143 
L 265.762769 162.761143 
z
" style="fill:#1fa187;opacity:0.5;stroke:#1fa187;stroke-linejoin:miter;"/>
   </g>
   <g id="patch_63">
    <path clip-path="url(#p984faeb734)" d="M 269.015821 307.584 
L 271.618262 307.584 
L 271.618262 271.378286 
L 269.015821 271.378286 
z
" style="fill:#46327e;opacity:0.5;stroke:#46327e;stroke-linejoin:miter;"/>
   </g>
   <g id="patch_64">
    <path clip-path="url(#p984faeb734)" d="M 272.268872 307.584 
L 274.871314 307.584 
L 274.871314 271.378286 
L 272.268872 271.378286 
z
" style="fill:#46327e;opacity:0.5;stroke:#46327e;stroke-linejoin:miter;"/>
   </g>
   <g id="patch_65">
    <path clip-path="url(#p984faeb734)" d="M 275.521924 307.584 
L 278.124365 307.584 
L 278.124365 271.378286 
L 275.521924 271.378286 
z
" style="fill:#46327e;opacity:0.5;stroke:#46327e;stroke-linejoin:miter;"/>
   </g>
   <g id="patch_66">
    <path clip-path="url(#p984faeb734)" d="M 278.774975 307.584 
L 281.377417 307.584 
L 281.377417 198.966857 
L 278.774975 198.966857 
z
" style="fill:#277f8e;opacity:0.5;stroke:#277f8e;stroke-linejoin:miter;"/>
   </g>
   <g id="patch_67">
    <path clip-path="url(#p984faeb734)" d="M 282.028027 307.584 
L 284.630468 307.584 
L 284.630468 235.172571 
L 282.028027 235.172571 
z
" style="fill:#365c8d;opacity:0.5;stroke:#365c8d;stroke-linejoin:miter;"/>
   </g>
   <g id="patch_68">
    <path clip-path="url(#p984faeb734)" d="M 285.281079 307.584 
L 287.88352 307.584 
L 287.88352 126.555429 
L 285.281079 126.555429 
z
" style="fill:#4ac16d;opacity:0.5;stroke:#4ac16d;stroke-linejoin:miter;"/>
   </g>
   <g id="patch_69">
    <path clip-path="url(#p984faeb734)" d="M 288.53413 307.584 
L 291.136571 307.584 
L 291.136571 307.584 
L 288.53413 307.584 
z
" style="fill:#440154;opacity:0.5;stroke:#440154;stroke-linejoin:miter;"/>
   </g>
   <g id="patch_70">
    <path clip-path="url(#p984faeb734)" d="M 291.787182 307.584 
L 294.389623 307.584 
L 294.389623 162.761143 
L 291.787182 162.761143 
z
" style="fill:#1fa187;opacity:0.5;stroke:#1fa187;stroke-linejoin:miter;"/>
   </g>
   <g id="patch_71">
    <path clip-path="url(#p984faeb734)" d="M 295.040233 307.584 
L 297.642674 307.584 
L 297.642674 235.172571 
L 295.040233 235.172571 
z
" style="fill:#365c8d;opacity:0.5;stroke:#365c8d;stroke-linejoin:miter;"/>
   </g>
   <g id="patch_72">
    <path clip-path="url(#p984faeb734)" d="M 298.293285 307.584 
L 300.895726 307.584 
L 300.895726 271.378286 
L 298.293285 271.378286 
z
" style="fill:#46327e;opacity:0.5;stroke:#46327e;stroke-linejoin:miter;"/>
   </g>
   <g id="patch_73">
    <path clip-path="url(#p984faeb734)" d="M 301.546336 307.584 
L 304.148778 307.584 
L 304.148778 271.378286 
L 301.546336 271.378286 
z
" style="fill:#46327e;opacity:0.5;stroke:#46327e;stroke-linejoin:miter;"/>
   </g>
   <g id="patch_74">
    <path clip-path="url(#p984faeb734)" d="M 304.799388 307.584 
L 307.401829 307.584 
L 307.401829 271.378286 
L 304.799388 271.378286 
z
" style="fill:#46327e;opacity:0.5;stroke:#46327e;stroke-linejoin:miter;"/>
   </g>
   <g id="patch_75">
    <path clip-path="url(#p984faeb734)" d="M 308.052439 307.584 
L 310.654881 307.584 
L 310.654881 235.172571 
L 308.052439 235.172571 
z
" style="fill:#365c8d;opacity:0.5;stroke:#365c8d;stroke-linejoin:miter;"/>
   </g>
   <g id="patch_76">
    <path clip-path="url(#p984faeb734)" d="M 311.305491 307.584 
L 313.907932 307.584 
L 313.907932 235.172571 
L 311.305491 235.172571 
z
" style="fill:#365c8d;opacity:0.5;stroke:#365c8d;stroke-linejoin:miter;"/>
   </g>
   <g id="patch_77">
    <path clip-path="url(#p984faeb734)" d="M 314.558543 307.584 
L 317.160984 307.584 
L 317.160984 271.378286 
L 314.558543 271.378286 
z
" style="fill:#46327e;opacity:0.5;stroke:#46327e;stroke-linejoin:miter;"/>
   </g>
   <g id="patch_78">
    <path clip-path="url(#p984faeb734)" d="M 317.811594 307.584 
L 320.414035 307.584 
L 320.414035 271.378286 
L 317.811594 271.378286 
z
" style="fill:#46327e;opacity:0.5;stroke:#46327e;stroke-linejoin:miter;"/>
   </g>
   <g id="patch_79">
    <path clip-path="url(#p984faeb734)" d="M 321.064646 307.584 
L 323.667087 307.584 
L 323.667087 126.555429 
L 321.064646 126.555429 
z
" style="fill:#4ac16d;opacity:0.5;stroke:#4ac16d;stroke-linejoin:miter;"/>
   </g>
   <g id="patch_80">
    <path clip-path="url(#p984faeb734)" d="M 324.317697 307.584 
L 326.920138 307.584 
L 326.920138 198.966857 
L 324.317697 198.966857 
z
" style="fill:#277f8e;opacity:0.5;stroke:#277f8e;stroke-linejoin:miter;"/>
   </g>
   <g id="patch_81">
    <path clip-path="url(#p984faeb734)" d="M 327.570749 307.584 
L 330.17319 307.584 
L 330.17319 198.966857 
L 327.570749 198.966857 
z
" style="fill:#277f8e;opacity:0.5;stroke:#277f8e;stroke-linejoin:miter;"/>
   </g>
   <g id="patch_82">
    <path clip-path="url(#p984faeb734)" d="M 330.8238 307.584 
L 333.426242 307.584 
L 333.426242 90.349714 
L 330.8238 90.349714 
z
" style="fill:#a0da39;opacity:0.5;stroke:#a0da39;stroke-linejoin:miter;"/>
   </g>
   <g id="patch_83">
    <path clip-path="url(#p984faeb734)" d="M 334.076852 307.584 
L 336.679293 307.584 
L 336.679293 307.584 
L 334.076852 307.584 
z
" style="fill:#440154;opacity:0.5;stroke:#440154;stroke-linejoin:miter;"/>
   </g>
   <g id="patch_84">
    <path clip-path="url(#p984faeb734)" d="M 337.329903 307.584 
L 339.932345 307.584 
L 339.932345 162.761143 
L 337.329903 162.761143 
z
" style="fill:#1fa187;opacity:0.5;stroke:#1fa187;stroke-linejoin:miter;"/>
   </g>
   <g id="patch_85">
    <path clip-path="url(#p984faeb734)" d="M 340.582955 307.584 
L 343.185396 307.584 
L 343.185396 271.378286 
L 340.582955 271.378286 
z
" style="fill:#46327e;opacity:0.5;stroke:#46327e;stroke-linejoin:miter;"/>
   </g>
   <g id="patch_86">
    <path clip-path="url(#p984faeb734)" d="M 343.836007 307.584 
L 346.438448 307.584 
L 346.438448 198.966857 
L 343.836007 198.966857 
z
" style="fill:#277f8e;opacity:0.5;stroke:#277f8e;stroke-linejoin:miter;"/>
   </g>
   <g id="patch_87">
    <path clip-path="url(#p984faeb734)" d="M 347.089058 307.584 
L 349.691499 307.584 
L 349.691499 126.555429 
L 347.089058 126.555429 
z
" style="fill:#4ac16d;opacity:0.5;stroke:#4ac16d;stroke-linejoin:miter;"/>
   </g>
   <g id="patch_88">
    <path clip-path="url(#p984faeb734)" d="M 350.34211 307.584 
L 352.944551 307.584 
L 352.944551 162.761143 
L 350.34211 162.761143 
z
" style="fill:#1fa187;opacity:0.5;stroke:#1fa187;stroke-linejoin:miter;"/>
   </g>
   <g id="patch_89">
    <path clip-path="url(#p984faeb734)" d="M 353.595161 307.584 
L 356.197602 307.584 
L 356.197602 271.378286 
L 353.595161 271.378286 
z
" style="fill:#46327e;opacity:0.5;stroke:#46327e;stroke-linejoin:miter;"/>
   </g>
   <g id="patch_90">
    <path clip-path="url(#p984faeb734)" d="M 356.848213 307.584 
L 359.450654 307.584 
L 359.450654 235.172571 
L 356.848213 235.172571 
z
" style="fill:#365c8d;opacity:0.5;stroke:#365c8d;stroke-linejoin:miter;"/>
   </g>
   <g id="patch_91">
    <path clip-path="url(#p984faeb734)" d="M 360.101264 307.584 
L 362.703706 307.584 
L 362.703706 198.966857 
L 360.101264 198.966857 
z
" style="fill:#277f8e;opacity:0.5;stroke:#277f8e;stroke-linejoin:miter;"/>
   </g>
   <g id="patch_92">
    <path clip-path="url(#p984faeb734)" d="M 363.354316 307.584 
L 365.956757 307.584 
L 365.956757 235.172571 
L 363.354316 235.172571 
z
" style="fill:#365c8d;opacity:0.5;stroke:#365c8d;stroke-linejoin:miter;"/>
   </g>
   <g id="patch_93">
    <path clip-path="url(#p984faeb734)" d="M 366.607367 307.584 
L 369.209809 307.584 
L 369.209809 307.584 
L 366.607367 307.584 
z
" style="fill:#440154;opacity:0.5;stroke:#440154;stroke-linejoin:miter;"/>
   </g>
   <g id="patch_94">
    <path clip-path="url(#p984faeb734)" d="M 369.860419 307.584 
L 372.46286 307.584 
L 372.46286 307.584 
L 369.860419 307.584 
z
" style="fill:#440154;opacity:0.5;stroke:#440154;stroke-linejoin:miter;"/>
   </g>
   <g id="patch_95">
    <path clip-path="url(#p984faeb734)" d="M 373.113471 307.584 
L 375.715912 307.584 
L 375.715912 126.555429 
L 373.113471 126.555429 
z
" style="fill:#4ac16d;opacity:0.5;stroke:#4ac16d;stroke-linejoin:miter;"/>
   </g>
   <g id="patch_96">
    <path clip-path="url(#p984faeb734)" d="M 376.366522 307.584 
L 378.968963 307.584 
L 378.968963 235.172571 
L 376.366522 235.172571 
z
" style="fill:#365c8d;opacity:0.5;stroke:#365c8d;stroke-linejoin:miter;"/>
   </g>
   <g id="patch_97">
    <path clip-path="url(#p984faeb734)" d="M 379.619574 307.584 
L 382.222015 307.584 
L 382.222015 235.172571 
L 379.619574 235.172571 
z
" style="fill:#365c8d;opacity:0.5;stroke:#365c8d;stroke-linejoin:miter;"/>
   </g>
   <g id="patch_98">
    <path clip-path="url(#p984faeb734)" d="M 382.872625 307.584 
L 385.475066 307.584 
L 385.475066 235.172571 
L 382.872625 235.172571 
z
" style="fill:#365c8d;opacity:0.5;stroke:#365c8d;stroke-linejoin:miter;"/>
   </g>
   <g id="patch_99">
    <path clip-path="url(#p984faeb734)" d="M 386.125677 307.584 
L 388.728118 307.584 
L 388.728118 307.584 
L 386.125677 307.584 
z
" style="fill:#440154;opacity:0.5;stroke:#440154;stroke-linejoin:miter;"/>
   </g>
   <g id="patch_100">
    <path clip-path="url(#p984faeb734)" d="M 389.378728 307.584 
L 391.98117 307.584 
L 391.98117 235.172571 
L 389.378728 235.172571 
z
" style="fill:#365c8d;opacity:0.5;stroke:#365c8d;stroke-linejoin:miter;"/>
   </g>
   <g id="patch_101">
    <path clip-path="url(#p984faeb734)" d="M 392.63178 307.584 
L 395.234221 307.584 
L 395.234221 271.378286 
L 392.63178 271.378286 
z
" style="fill:#46327e;opacity:0.5;stroke:#46327e;stroke-linejoin:miter;"/>
   </g>
   <g id="patch_102">
    <path clip-path="url(#p984faeb734)" d="M 395.884831 307.584 
L 398.487273 307.584 
L 398.487273 271.378286 
L 395.884831 271.378286 
z
" style="fill:#46327e;opacity:0.5;stroke:#46327e;stroke-linejoin:miter;"/>
   </g>
   <g id="matplotlib.axis_1">
    <g id="xtick_1">
     <g id="line2d_1">
      <defs>
       <path d="M 0 0 
L 0 3.5 
" id="m44b99f06de" style="stroke:#000000;stroke-width:0.8;"/>
      </defs>
      <g>
       <use style="stroke:#000000;stroke-width:0.8;" x="75.133948" xlink:href="#m44b99f06de" y="307.584"/>
      </g>
     </g>
     <g id="text_1">
      <!-- 0 -->
      <defs>
       <path d="M 31.78125 66.40625 
Q 24.171875 66.40625 20.328125 58.90625 
Q 16.5 51.421875 16.5 36.375 
Q 16.5 21.390625 20.328125 13.890625 
Q 24.171875 6.390625 31.78125 6.390625 
Q 39.453125 6.390625 43.28125 13.890625 
Q 47.125 21.390625 47.125 36.375 
Q 47.125 51.421875 43.28125 58.90625 
Q 39.453125 66.40625 31.78125 66.40625 
M 31.78125 74.21875 
Q 44.046875 74.21875 50.515625 64.515625 
Q 56.984375 54.828125 56.984375 36.375 
Q 56.984375 17.96875 50.515625 8.265625 
Q 44.046875 -1.421875 31.78125 -1.421875 
Q 19.53125 -1.421875 13.0625 8.265625 
Q 6.59375 17.96875 6.59375 36.375 
Q 6.59375 54.828125 13.0625 64.515625 
Q 19.53125 74.21875 31.78125 74.21875 
" id="DejaVuSans-30"/>
      </defs>
      <g transform="translate(71.952698 322.182437)scale(0.1 -0.1)">
       <use xlink:href="#DejaVuSans-30"/>
      </g>
     </g>
    </g>
    <g id="xtick_2">
     <g id="line2d_2">
      <g>
       <use style="stroke:#000000;stroke-width:0.8;" x="140.194979" xlink:href="#m44b99f06de" y="307.584"/>
      </g>
     </g>
     <g id="text_2">
      <!-- 20 -->
      <defs>
       <path d="M 19.1875 8.296875 
L 53.609375 8.296875 
L 53.609375 0 
L 7.328125 0 
L 7.328125 8.296875 
Q 12.9375 14.109375 22.625 23.890625 
Q 32.328125 33.6875 34.8125 36.53125 
Q 39.546875 41.84375 41.421875 45.53125 
Q 43.3125 49.21875 43.3125 52.78125 
Q 43.3125 58.59375 39.234375 62.25 
Q 35.15625 65.921875 28.609375 65.921875 
Q 23.96875 65.921875 18.8125 64.3125 
Q 13.671875 62.703125 7.8125 59.421875 
L 7.8125 69.390625 
Q 13.765625 71.78125 18.9375 73 
Q 24.125 74.21875 28.421875 74.21875 
Q 39.75 74.21875 46.484375 68.546875 
Q 53.21875 62.890625 53.21875 53.421875 
Q 53.21875 48.921875 51.53125 44.890625 
Q 49.859375 40.875 45.40625 35.40625 
Q 44.1875 33.984375 37.640625 27.21875 
Q 31.109375 20.453125 19.1875 8.296875 
" id="DejaVuSans-32"/>
      </defs>
      <g transform="translate(133.832479 322.182437)scale(0.1 -0.1)">
       <use xlink:href="#DejaVuSans-32"/>
       <use x="63.623047" xlink:href="#DejaVuSans-30"/>
      </g>
     </g>
    </g>
    <g id="xtick_3">
     <g id="line2d_3">
      <g>
       <use style="stroke:#000000;stroke-width:0.8;" x="205.25601" xlink:href="#m44b99f06de" y="307.584"/>
      </g>
     </g>
     <g id="text_3">
      <!-- 40 -->
      <defs>
       <path d="M 37.796875 64.3125 
L 12.890625 25.390625 
L 37.796875 25.390625 
z
M 35.203125 72.90625 
L 47.609375 72.90625 
L 47.609375 25.390625 
L 58.015625 25.390625 
L 58.015625 17.1875 
L 47.609375 17.1875 
L 47.609375 0 
L 37.796875 0 
L 37.796875 17.1875 
L 4.890625 17.1875 
L 4.890625 26.703125 
z
" id="DejaVuSans-34"/>
      </defs>
      <g transform="translate(198.89351 322.182437)scale(0.1 -0.1)">
       <use xlink:href="#DejaVuSans-34"/>
       <use x="63.623047" xlink:href="#DejaVuSans-30"/>
      </g>
     </g>
    </g>
    <g id="xtick_4">
     <g id="line2d_4">
      <g>
       <use style="stroke:#000000;stroke-width:0.8;" x="270.317041" xlink:href="#m44b99f06de" y="307.584"/>
      </g>
     </g>
     <g id="text_4">
      <!-- 60 -->
      <defs>
       <path d="M 33.015625 40.375 
Q 26.375 40.375 22.484375 35.828125 
Q 18.609375 31.296875 18.609375 23.390625 
Q 18.609375 15.53125 22.484375 10.953125 
Q 26.375 6.390625 33.015625 6.390625 
Q 39.65625 6.390625 43.53125 10.953125 
Q 47.40625 15.53125 47.40625 23.390625 
Q 47.40625 31.296875 43.53125 35.828125 
Q 39.65625 40.375 33.015625 40.375 
M 52.59375 71.296875 
L 52.59375 62.3125 
Q 48.875 64.0625 45.09375 64.984375 
Q 41.3125 65.921875 37.59375 65.921875 
Q 27.828125 65.921875 22.671875 59.328125 
Q 17.53125 52.734375 16.796875 39.40625 
Q 19.671875 43.65625 24.015625 45.921875 
Q 28.375 48.1875 33.59375 48.1875 
Q 44.578125 48.1875 50.953125 41.515625 
Q 57.328125 34.859375 57.328125 23.390625 
Q 57.328125 12.15625 50.6875 5.359375 
Q 44.046875 -1.421875 33.015625 -1.421875 
Q 20.359375 -1.421875 13.671875 8.265625 
Q 6.984375 17.96875 6.984375 36.375 
Q 6.984375 53.65625 15.1875 63.9375 
Q 23.390625 74.21875 37.203125 74.21875 
Q 40.921875 74.21875 44.703125 73.484375 
Q 48.484375 72.75 52.59375 71.296875 
" id="DejaVuSans-36"/>
      </defs>
      <g transform="translate(263.954541 322.182437)scale(0.1 -0.1)">
       <use xlink:href="#DejaVuSans-36"/>
       <use x="63.623047" xlink:href="#DejaVuSans-30"/>
      </g>
     </g>
    </g>
    <g id="xtick_5">
     <g id="line2d_5">
      <g>
       <use style="stroke:#000000;stroke-width:0.8;" x="335.378073" xlink:href="#m44b99f06de" y="307.584"/>
      </g>
     </g>
     <g id="text_5">
      <!-- 80 -->
      <defs>
       <path d="M 31.78125 34.625 
Q 24.75 34.625 20.71875 30.859375 
Q 16.703125 27.09375 16.703125 20.515625 
Q 16.703125 13.921875 20.71875 10.15625 
Q 24.75 6.390625 31.78125 6.390625 
Q 38.8125 6.390625 42.859375 10.171875 
Q 46.921875 13.96875 46.921875 20.515625 
Q 46.921875 27.09375 42.890625 30.859375 
Q 38.875 34.625 31.78125 34.625 
M 21.921875 38.8125 
Q 15.578125 40.375 12.03125 44.71875 
Q 8.5 49.078125 8.5 55.328125 
Q 8.5 64.0625 14.71875 69.140625 
Q 20.953125 74.21875 31.78125 74.21875 
Q 42.671875 74.21875 48.875 69.140625 
Q 55.078125 64.0625 55.078125 55.328125 
Q 55.078125 49.078125 51.53125 44.71875 
Q 48 40.375 41.703125 38.8125 
Q 48.828125 37.15625 52.796875 32.3125 
Q 56.78125 27.484375 56.78125 20.515625 
Q 56.78125 9.90625 50.3125 4.234375 
Q 43.84375 -1.421875 31.78125 -1.421875 
Q 19.734375 -1.421875 13.25 4.234375 
Q 6.78125 9.90625 6.78125 20.515625 
Q 6.78125 27.484375 10.78125 32.3125 
Q 14.796875 37.15625 21.921875 38.8125 
M 18.3125 54.390625 
Q 18.3125 48.734375 21.84375 45.5625 
Q 25.390625 42.390625 31.78125 42.390625 
Q 38.140625 42.390625 41.71875 45.5625 
Q 45.3125 48.734375 45.3125 54.390625 
Q 45.3125 60.0625 41.71875 63.234375 
Q 38.140625 66.40625 31.78125 66.40625 
Q 25.390625 66.40625 21.84375 63.234375 
Q 18.3125 60.0625 18.3125 54.390625 
" id="DejaVuSans-38"/>
      </defs>
      <g transform="translate(329.015573 322.182437)scale(0.1 -0.1)">
       <use xlink:href="#DejaVuSans-38"/>
       <use x="63.623047" xlink:href="#DejaVuSans-30"/>
      </g>
     </g>
    </g>
    <g id="xtick_6">
     <g id="line2d_6">
      <g>
       <use style="stroke:#000000;stroke-width:0.8;" x="400.439104" xlink:href="#m44b99f06de" y="307.584"/>
      </g>
     </g>
     <g id="text_6">
      <!-- 100 -->
      <defs>
       <path d="M 12.40625 8.296875 
L 28.515625 8.296875 
L 28.515625 63.921875 
L 10.984375 60.40625 
L 10.984375 69.390625 
L 28.421875 72.90625 
L 38.28125 72.90625 
L 38.28125 8.296875 
L 54.390625 8.296875 
L 54.390625 0 
L 12.40625 0 
z
" id="DejaVuSans-31"/>
      </defs>
      <g transform="translate(390.895354 322.182437)scale(0.1 -0.1)">
       <use xlink:href="#DejaVuSans-31"/>
       <use x="63.623047" xlink:href="#DejaVuSans-30"/>
       <use x="127.246094" xlink:href="#DejaVuSans-30"/>
      </g>
     </g>
    </g>
    <g id="text_7">
     <!-- Individuo -->
     <defs>
      <path d="M 9.8125 72.90625 
L 19.671875 72.90625 
L 19.671875 0 
L 9.8125 0 
z
" id="DejaVuSans-49"/>
      <path d="M 54.890625 33.015625 
L 54.890625 0 
L 45.90625 0 
L 45.90625 32.71875 
Q 45.90625 40.484375 42.875 44.328125 
Q 39.84375 48.1875 33.796875 48.1875 
Q 26.515625 48.1875 22.3125 43.546875 
Q 18.109375 38.921875 18.109375 30.90625 
L 18.109375 0 
L 9.078125 0 
L 9.078125 54.6875 
L 18.109375 54.6875 
L 18.109375 46.1875 
Q 21.34375 51.125 25.703125 53.5625 
Q 30.078125 56 35.796875 56 
Q 45.21875 56 50.046875 50.171875 
Q 54.890625 44.34375 54.890625 33.015625 
" id="DejaVuSans-6e"/>
      <path d="M 45.40625 46.390625 
L 45.40625 75.984375 
L 54.390625 75.984375 
L 54.390625 0 
L 45.40625 0 
L 45.40625 8.203125 
Q 42.578125 3.328125 38.25 0.953125 
Q 33.9375 -1.421875 27.875 -1.421875 
Q 17.96875 -1.421875 11.734375 6.484375 
Q 5.515625 14.40625 5.515625 27.296875 
Q 5.515625 40.1875 11.734375 48.09375 
Q 17.96875 56 27.875 56 
Q 33.9375 56 38.25 53.625 
Q 42.578125 51.265625 45.40625 46.390625 
M 14.796875 27.296875 
Q 14.796875 17.390625 18.875 11.75 
Q 22.953125 6.109375 30.078125 6.109375 
Q 37.203125 6.109375 41.296875 11.75 
Q 45.40625 17.390625 45.40625 27.296875 
Q 45.40625 37.203125 41.296875 42.84375 
Q 37.203125 48.484375 30.078125 48.484375 
Q 22.953125 48.484375 18.875 42.84375 
Q 14.796875 37.203125 14.796875 27.296875 
" id="DejaVuSans-64"/>
      <path d="M 9.421875 54.6875 
L 18.40625 54.6875 
L 18.40625 0 
L 9.421875 0 
z
M 9.421875 75.984375 
L 18.40625 75.984375 
L 18.40625 64.59375 
L 9.421875 64.59375 
z
" id="DejaVuSans-69"/>
      <path d="M 2.984375 54.6875 
L 12.5 54.6875 
L 29.59375 8.796875 
L 46.6875 54.6875 
L 56.203125 54.6875 
L 35.6875 0 
L 23.484375 0 
z
" id="DejaVuSans-76"/>
      <path d="M 8.5 21.578125 
L 8.5 54.6875 
L 17.484375 54.6875 
L 17.484375 21.921875 
Q 17.484375 14.15625 20.5 10.265625 
Q 23.53125 6.390625 29.59375 6.390625 
Q 36.859375 6.390625 41.078125 11.03125 
Q 45.3125 15.671875 45.3125 23.6875 
L 45.3125 54.6875 
L 54.296875 54.6875 
L 54.296875 0 
L 45.3125 0 
L 45.3125 8.40625 
Q 42.046875 3.421875 37.71875 1 
Q 33.40625 -1.421875 27.6875 -1.421875 
Q 18.265625 -1.421875 13.375 4.4375 
Q 8.5 10.296875 8.5 21.578125 
M 31.109375 56 
z
" id="DejaVuSans-75"/>
      <path d="M 30.609375 48.390625 
Q 23.390625 48.390625 19.1875 42.75 
Q 14.984375 37.109375 14.984375 27.296875 
Q 14.984375 17.484375 19.15625 11.84375 
Q 23.34375 6.203125 30.609375 6.203125 
Q 37.796875 6.203125 41.984375 11.859375 
Q 46.1875 17.53125 46.1875 27.296875 
Q 46.1875 37.015625 41.984375 42.703125 
Q 37.796875 48.390625 30.609375 48.390625 
M 30.609375 56 
Q 42.328125 56 49.015625 48.375 
Q 55.71875 40.765625 55.71875 27.296875 
Q 55.71875 13.875 49.015625 6.21875 
Q 42.328125 -1.421875 30.609375 -1.421875 
Q 18.84375 -1.421875 12.171875 6.21875 
Q 5.515625 13.875 5.515625 27.296875 
Q 5.515625 40.765625 12.171875 48.375 
Q 18.84375 56 30.609375 56 
" id="DejaVuSans-6f"/>
     </defs>
     <g transform="translate(213.202187 335.860562)scale(0.1 -0.1)">
      <use xlink:href="#DejaVuSans-49"/>
      <use x="29.492188" xlink:href="#DejaVuSans-6e"/>
      <use x="92.871094" xlink:href="#DejaVuSans-64"/>
      <use x="156.347656" xlink:href="#DejaVuSans-69"/>
      <use x="184.130859" xlink:href="#DejaVuSans-76"/>
      <use x="243.310547" xlink:href="#DejaVuSans-69"/>
      <use x="271.09375" xlink:href="#DejaVuSans-64"/>
      <use x="334.570312" xlink:href="#DejaVuSans-75"/>
      <use x="397.949219" xlink:href="#DejaVuSans-6f"/>
     </g>
    </g>
   </g>
   <g id="matplotlib.axis_2">
    <g id="ytick_1">
     <g id="line2d_7">
      <defs>
       <path d="M 0 0 
L -3.5 0 
" id="m8e152eb27d" style="stroke:#000000;stroke-width:0.8;"/>
      </defs>
      <g>
       <use style="stroke:#000000;stroke-width:0.8;" x="57.6" xlink:href="#m8e152eb27d" y="307.584"/>
      </g>
     </g>
     <g id="text_8">
      <!-- 0 -->
      <g transform="translate(44.2375 311.383219)scale(0.1 -0.1)">
       <use xlink:href="#DejaVuSans-30"/>
      </g>
     </g>
    </g>
    <g id="ytick_2">
     <g id="line2d_8">
      <g>
       <use style="stroke:#000000;stroke-width:0.8;" x="57.6" xlink:href="#m8e152eb27d" y="271.378286"/>
      </g>
     </g>
     <g id="text_9">
      <!-- 1 -->
      <g transform="translate(44.2375 275.177504)scale(0.1 -0.1)">
       <use xlink:href="#DejaVuSans-31"/>
      </g>
     </g>
    </g>
    <g id="ytick_3">
     <g id="line2d_9">
      <g>
       <use style="stroke:#000000;stroke-width:0.8;" x="57.6" xlink:href="#m8e152eb27d" y="235.172571"/>
      </g>
     </g>
     <g id="text_10">
      <!-- 2 -->
      <g transform="translate(44.2375 238.97179)scale(0.1 -0.1)">
       <use xlink:href="#DejaVuSans-32"/>
      </g>
     </g>
    </g>
    <g id="ytick_4">
     <g id="line2d_10">
      <g>
       <use style="stroke:#000000;stroke-width:0.8;" x="57.6" xlink:href="#m8e152eb27d" y="198.966857"/>
      </g>
     </g>
     <g id="text_11">
      <!-- 3 -->
      <defs>
       <path d="M 40.578125 39.3125 
Q 47.65625 37.796875 51.625 33 
Q 55.609375 28.21875 55.609375 21.1875 
Q 55.609375 10.40625 48.1875 4.484375 
Q 40.765625 -1.421875 27.09375 -1.421875 
Q 22.515625 -1.421875 17.65625 -0.515625 
Q 12.796875 0.390625 7.625 2.203125 
L 7.625 11.71875 
Q 11.71875 9.328125 16.59375 8.109375 
Q 21.484375 6.890625 26.8125 6.890625 
Q 36.078125 6.890625 40.9375 10.546875 
Q 45.796875 14.203125 45.796875 21.1875 
Q 45.796875 27.640625 41.28125 31.265625 
Q 36.765625 34.90625 28.71875 34.90625 
L 20.21875 34.90625 
L 20.21875 43.015625 
L 29.109375 43.015625 
Q 36.375 43.015625 40.234375 45.921875 
Q 44.09375 48.828125 44.09375 54.296875 
Q 44.09375 59.90625 40.109375 62.90625 
Q 36.140625 65.921875 28.71875 65.921875 
Q 24.65625 65.921875 20.015625 65.03125 
Q 15.375 64.15625 9.8125 62.3125 
L 9.8125 71.09375 
Q 15.4375 72.65625 20.34375 73.4375 
Q 25.25 74.21875 29.59375 74.21875 
Q 40.828125 74.21875 47.359375 69.109375 
Q 53.90625 64.015625 53.90625 55.328125 
Q 53.90625 49.265625 50.4375 45.09375 
Q 46.96875 40.921875 40.578125 39.3125 
" id="DejaVuSans-33"/>
      </defs>
      <g transform="translate(44.2375 202.766076)scale(0.1 -0.1)">
       <use xlink:href="#DejaVuSans-33"/>
      </g>
     </g>
    </g>
    <g id="ytick_5">
     <g id="line2d_11">
      <g>
       <use style="stroke:#000000;stroke-width:0.8;" x="57.6" xlink:href="#m8e152eb27d" y="162.761143"/>
      </g>
     </g>
     <g id="text_12">
      <!-- 4 -->
      <g transform="translate(44.2375 166.560362)scale(0.1 -0.1)">
       <use xlink:href="#DejaVuSans-34"/>
      </g>
     </g>
    </g>
    <g id="ytick_6">
     <g id="line2d_12">
      <g>
       <use style="stroke:#000000;stroke-width:0.8;" x="57.6" xlink:href="#m8e152eb27d" y="126.555429"/>
      </g>
     </g>
     <g id="text_13">
      <!-- 5 -->
      <defs>
       <path d="M 10.796875 72.90625 
L 49.515625 72.90625 
L 49.515625 64.59375 
L 19.828125 64.59375 
L 19.828125 46.734375 
Q 21.96875 47.46875 24.109375 47.828125 
Q 26.265625 48.1875 28.421875 48.1875 
Q 40.625 48.1875 47.75 41.5 
Q 54.890625 34.8125 54.890625 23.390625 
Q 54.890625 11.625 47.5625 5.09375 
Q 40.234375 -1.421875 26.90625 -1.421875 
Q 22.3125 -1.421875 17.546875 -0.640625 
Q 12.796875 0.140625 7.71875 1.703125 
L 7.71875 11.625 
Q 12.109375 9.234375 16.796875 8.0625 
Q 21.484375 6.890625 26.703125 6.890625 
Q 35.15625 6.890625 40.078125 11.328125 
Q 45.015625 15.765625 45.015625 23.390625 
Q 45.015625 31 40.078125 35.4375 
Q 35.15625 39.890625 26.703125 39.890625 
Q 22.75 39.890625 18.8125 39.015625 
Q 14.890625 38.140625 10.796875 36.28125 
z
" id="DejaVuSans-35"/>
      </defs>
      <g transform="translate(44.2375 130.354647)scale(0.1 -0.1)">
       <use xlink:href="#DejaVuSans-35"/>
      </g>
     </g>
    </g>
    <g id="ytick_7">
     <g id="line2d_13">
      <g>
       <use style="stroke:#000000;stroke-width:0.8;" x="57.6" xlink:href="#m8e152eb27d" y="90.349714"/>
      </g>
     </g>
     <g id="text_14">
      <!-- 6 -->
      <g transform="translate(44.2375 94.148933)scale(0.1 -0.1)">
       <use xlink:href="#DejaVuSans-36"/>
      </g>
     </g>
    </g>
    <g id="ytick_8">
     <g id="line2d_14">
      <g>
       <use style="stroke:#000000;stroke-width:0.8;" x="57.6" xlink:href="#m8e152eb27d" y="54.144"/>
      </g>
     </g>
     <g id="text_15">
      <!-- 7 -->
      <defs>
       <path d="M 8.203125 72.90625 
L 55.078125 72.90625 
L 55.078125 68.703125 
L 28.609375 0 
L 18.3125 0 
L 43.21875 64.59375 
L 8.203125 64.59375 
z
" id="DejaVuSans-37"/>
      </defs>
      <g transform="translate(44.2375 57.943219)scale(0.1 -0.1)">
       <use xlink:href="#DejaVuSans-37"/>
      </g>
     </g>
    </g>
    <g id="text_16">
     <!-- Vezes Selecionado -->
     <defs>
      <path d="M 28.609375 0 
L 0.78125 72.90625 
L 11.078125 72.90625 
L 34.1875 11.53125 
L 57.328125 72.90625 
L 67.578125 72.90625 
L 39.796875 0 
z
" id="DejaVuSans-56"/>
      <path d="M 56.203125 29.59375 
L 56.203125 25.203125 
L 14.890625 25.203125 
Q 15.484375 15.921875 20.484375 11.0625 
Q 25.484375 6.203125 34.421875 6.203125 
Q 39.59375 6.203125 44.453125 7.46875 
Q 49.3125 8.734375 54.109375 11.28125 
L 54.109375 2.78125 
Q 49.265625 0.734375 44.1875 -0.34375 
Q 39.109375 -1.421875 33.890625 -1.421875 
Q 20.796875 -1.421875 13.15625 6.1875 
Q 5.515625 13.8125 5.515625 26.8125 
Q 5.515625 40.234375 12.765625 48.109375 
Q 20.015625 56 32.328125 56 
Q 43.359375 56 49.78125 48.890625 
Q 56.203125 41.796875 56.203125 29.59375 
M 47.21875 32.234375 
Q 47.125 39.59375 43.09375 43.984375 
Q 39.0625 48.390625 32.421875 48.390625 
Q 24.90625 48.390625 20.390625 44.140625 
Q 15.875 39.890625 15.1875 32.171875 
z
" id="DejaVuSans-65"/>
      <path d="M 5.515625 54.6875 
L 48.1875 54.6875 
L 48.1875 46.484375 
L 14.40625 7.171875 
L 48.1875 7.171875 
L 48.1875 0 
L 4.296875 0 
L 4.296875 8.203125 
L 38.09375 47.515625 
L 5.515625 47.515625 
z
" id="DejaVuSans-7a"/>
      <path d="M 44.28125 53.078125 
L 44.28125 44.578125 
Q 40.484375 46.53125 36.375 47.5 
Q 32.28125 48.484375 27.875 48.484375 
Q 21.1875 48.484375 17.84375 46.4375 
Q 14.5 44.390625 14.5 40.28125 
Q 14.5 37.15625 16.890625 35.375 
Q 19.28125 33.59375 26.515625 31.984375 
L 29.59375 31.296875 
Q 39.15625 29.25 43.1875 25.515625 
Q 47.21875 21.78125 47.21875 15.09375 
Q 47.21875 7.46875 41.1875 3.015625 
Q 35.15625 -1.421875 24.609375 -1.421875 
Q 20.21875 -1.421875 15.453125 -0.5625 
Q 10.6875 0.296875 5.421875 2 
L 5.421875 11.28125 
Q 10.40625 8.6875 15.234375 7.390625 
Q 20.0625 6.109375 24.8125 6.109375 
Q 31.15625 6.109375 34.5625 8.28125 
Q 37.984375 10.453125 37.984375 14.40625 
Q 37.984375 18.0625 35.515625 20.015625 
Q 33.0625 21.96875 24.703125 23.78125 
L 21.578125 24.515625 
Q 13.234375 26.265625 9.515625 29.90625 
Q 5.8125 33.546875 5.8125 39.890625 
Q 5.8125 47.609375 11.28125 51.796875 
Q 16.75 56 26.8125 56 
Q 31.78125 56 36.171875 55.265625 
Q 40.578125 54.546875 44.28125 53.078125 
" id="DejaVuSans-73"/>
      <path id="DejaVuSans-20"/>
      <path d="M 53.515625 70.515625 
L 53.515625 60.890625 
Q 47.90625 63.578125 42.921875 64.890625 
Q 37.9375 66.21875 33.296875 66.21875 
Q 25.25 66.21875 20.875 63.09375 
Q 16.5 59.96875 16.5 54.203125 
Q 16.5 49.359375 19.40625 46.890625 
Q 22.3125 44.4375 30.421875 42.921875 
L 36.375 41.703125 
Q 47.40625 39.59375 52.65625 34.296875 
Q 57.90625 29 57.90625 20.125 
Q 57.90625 9.515625 50.796875 4.046875 
Q 43.703125 -1.421875 29.984375 -1.421875 
Q 24.8125 -1.421875 18.96875 -0.25 
Q 13.140625 0.921875 6.890625 3.21875 
L 6.890625 13.375 
Q 12.890625 10.015625 18.65625 8.296875 
Q 24.421875 6.59375 29.984375 6.59375 
Q 38.421875 6.59375 43.015625 9.90625 
Q 47.609375 13.234375 47.609375 19.390625 
Q 47.609375 24.75 44.3125 27.78125 
Q 41.015625 30.8125 33.5 32.328125 
L 27.484375 33.5 
Q 16.453125 35.6875 11.515625 40.375 
Q 6.59375 45.0625 6.59375 53.421875 
Q 6.59375 63.09375 13.40625 68.65625 
Q 20.21875 74.21875 32.171875 74.21875 
Q 37.3125 74.21875 42.625 73.28125 
Q 47.953125 72.359375 53.515625 70.515625 
" id="DejaVuSans-53"/>
      <path d="M 9.421875 75.984375 
L 18.40625 75.984375 
L 18.40625 0 
L 9.421875 0 
z
" id="DejaVuSans-6c"/>
      <path d="M 48.78125 52.59375 
L 48.78125 44.1875 
Q 44.96875 46.296875 41.140625 47.34375 
Q 37.3125 48.390625 33.40625 48.390625 
Q 24.65625 48.390625 19.8125 42.84375 
Q 14.984375 37.3125 14.984375 27.296875 
Q 14.984375 17.28125 19.8125 11.734375 
Q 24.65625 6.203125 33.40625 6.203125 
Q 37.3125 6.203125 41.140625 7.25 
Q 44.96875 8.296875 48.78125 10.40625 
L 48.78125 2.09375 
Q 45.015625 0.34375 40.984375 -0.53125 
Q 36.96875 -1.421875 32.421875 -1.421875 
Q 20.0625 -1.421875 12.78125 6.34375 
Q 5.515625 14.109375 5.515625 27.296875 
Q 5.515625 40.671875 12.859375 48.328125 
Q 20.21875 56 33.015625 56 
Q 37.15625 56 41.109375 55.140625 
Q 45.0625 54.296875 48.78125 52.59375 
" id="DejaVuSans-63"/>
      <path d="M 34.28125 27.484375 
Q 23.390625 27.484375 19.1875 25 
Q 14.984375 22.515625 14.984375 16.5 
Q 14.984375 11.71875 18.140625 8.90625 
Q 21.296875 6.109375 26.703125 6.109375 
Q 34.1875 6.109375 38.703125 11.40625 
Q 43.21875 16.703125 43.21875 25.484375 
L 43.21875 27.484375 
z
M 52.203125 31.203125 
L 52.203125 0 
L 43.21875 0 
L 43.21875 8.296875 
Q 40.140625 3.328125 35.546875 0.953125 
Q 30.953125 -1.421875 24.3125 -1.421875 
Q 15.921875 -1.421875 10.953125 3.296875 
Q 6 8.015625 6 15.921875 
Q 6 25.140625 12.171875 29.828125 
Q 18.359375 34.515625 30.609375 34.515625 
L 43.21875 34.515625 
L 43.21875 35.40625 
Q 43.21875 41.609375 39.140625 45 
Q 35.0625 48.390625 27.6875 48.390625 
Q 23 48.390625 18.546875 47.265625 
Q 14.109375 46.140625 10.015625 43.890625 
L 10.015625 52.203125 
Q 14.9375 54.109375 19.578125 55.046875 
Q 24.21875 56 28.609375 56 
Q 40.484375 56 46.34375 49.84375 
Q 52.203125 43.703125 52.203125 31.203125 
" id="DejaVuSans-61"/>
     </defs>
     <g transform="translate(38.157812 221.294406)rotate(-90)scale(0.1 -0.1)">
      <use xlink:href="#DejaVuSans-56"/>
      <use x="68.298828" xlink:href="#DejaVuSans-65"/>
      <use x="129.822266" xlink:href="#DejaVuSans-7a"/>
      <use x="182.3125" xlink:href="#DejaVuSans-65"/>
      <use x="243.835938" xlink:href="#DejaVuSans-73"/>
      <use x="295.935547" xlink:href="#DejaVuSans-20"/>
      <use x="327.722656" xlink:href="#DejaVuSans-53"/>
      <use x="391.199219" xlink:href="#DejaVuSans-65"/>
      <use x="452.722656" xlink:href="#DejaVuSans-6c"/>
      <use x="480.505859" xlink:href="#DejaVuSans-65"/>
      <use x="542.029297" xlink:href="#DejaVuSans-63"/>
      <use x="597.009766" xlink:href="#DejaVuSans-69"/>
      <use x="624.792969" xlink:href="#DejaVuSans-6f"/>
      <use x="685.974609" xlink:href="#DejaVuSans-6e"/>
      <use x="749.353516" xlink:href="#DejaVuSans-61"/>
      <use x="810.632812" xlink:href="#DejaVuSans-64"/>
      <use x="874.109375" xlink:href="#DejaVuSans-6f"/>
     </g>
    </g>
   </g>
   <g id="patch_103">
    <path d="M 57.6 307.584 
L 57.6 41.472 
" style="fill:none;stroke:#000000;stroke-linecap:square;stroke-linejoin:miter;stroke-width:0.8;"/>
   </g>
   <g id="patch_104">
    <path d="M 414.72 307.584 
L 414.72 41.472 
" style="fill:none;stroke:#000000;stroke-linecap:square;stroke-linejoin:miter;stroke-width:0.8;"/>
   </g>
   <g id="patch_105">
    <path d="M 57.6 307.584 
L 414.72 307.584 
" style="fill:none;stroke:#000000;stroke-linecap:square;stroke-linejoin:miter;stroke-width:0.8;"/>
   </g>
   <g id="patch_106">
    <path d="M 57.6 41.472 
L 414.72 41.472 
" style="fill:none;stroke:#000000;stroke-linecap:square;stroke-linejoin:miter;stroke-width:0.8;"/>
   </g>
   <g id="text_17">
    <!-- GASIR - Genetic Algorithm for SIR Model -->
    <defs>
     <path d="M 59.515625 10.40625 
L 59.515625 29.984375 
L 43.40625 29.984375 
L 43.40625 38.09375 
L 69.28125 38.09375 
L 69.28125 6.78125 
Q 63.578125 2.734375 56.6875 0.65625 
Q 49.8125 -1.421875 42 -1.421875 
Q 24.90625 -1.421875 15.25 8.5625 
Q 5.609375 18.5625 5.609375 36.375 
Q 5.609375 54.25 15.25 64.234375 
Q 24.90625 74.21875 42 74.21875 
Q 49.125 74.21875 55.546875 72.453125 
Q 61.96875 70.703125 67.390625 67.28125 
L 67.390625 56.78125 
Q 61.921875 61.421875 55.765625 63.765625 
Q 49.609375 66.109375 42.828125 66.109375 
Q 29.4375 66.109375 22.71875 58.640625 
Q 16.015625 51.171875 16.015625 36.375 
Q 16.015625 21.625 22.71875 14.15625 
Q 29.4375 6.6875 42.828125 6.6875 
Q 48.046875 6.6875 52.140625 7.59375 
Q 56.25 8.5 59.515625 10.40625 
" id="DejaVuSans-47"/>
     <path d="M 34.1875 63.1875 
L 20.796875 26.90625 
L 47.609375 26.90625 
z
M 28.609375 72.90625 
L 39.796875 72.90625 
L 67.578125 0 
L 57.328125 0 
L 50.6875 18.703125 
L 17.828125 18.703125 
L 11.1875 0 
L 0.78125 0 
z
" id="DejaVuSans-41"/>
     <path d="M 44.390625 34.1875 
Q 47.5625 33.109375 50.5625 29.59375 
Q 53.5625 26.078125 56.59375 19.921875 
L 66.609375 0 
L 56 0 
L 46.6875 18.703125 
Q 43.0625 26.03125 39.671875 28.421875 
Q 36.28125 30.8125 30.421875 30.8125 
L 19.671875 30.8125 
L 19.671875 0 
L 9.8125 0 
L 9.8125 72.90625 
L 32.078125 72.90625 
Q 44.578125 72.90625 50.734375 67.671875 
Q 56.890625 62.453125 56.890625 51.90625 
Q 56.890625 45.015625 53.6875 40.46875 
Q 50.484375 35.9375 44.390625 34.1875 
M 19.671875 64.796875 
L 19.671875 38.921875 
L 32.078125 38.921875 
Q 39.203125 38.921875 42.84375 42.21875 
Q 46.484375 45.515625 46.484375 51.90625 
Q 46.484375 58.296875 42.84375 61.546875 
Q 39.203125 64.796875 32.078125 64.796875 
z
" id="DejaVuSans-52"/>
     <path d="M 4.890625 31.390625 
L 31.203125 31.390625 
L 31.203125 23.390625 
L 4.890625 23.390625 
z
" id="DejaVuSans-2d"/>
     <path d="M 18.3125 70.21875 
L 18.3125 54.6875 
L 36.8125 54.6875 
L 36.8125 47.703125 
L 18.3125 47.703125 
L 18.3125 18.015625 
Q 18.3125 11.328125 20.140625 9.421875 
Q 21.96875 7.515625 27.59375 7.515625 
L 36.8125 7.515625 
L 36.8125 0 
L 27.59375 0 
Q 17.1875 0 13.234375 3.875 
Q 9.28125 7.765625 9.28125 18.015625 
L 9.28125 47.703125 
L 2.6875 47.703125 
L 2.6875 54.6875 
L 9.28125 54.6875 
L 9.28125 70.21875 
z
" id="DejaVuSans-74"/>
     <path d="M 45.40625 27.984375 
Q 45.40625 37.75 41.375 43.109375 
Q 37.359375 48.484375 30.078125 48.484375 
Q 22.859375 48.484375 18.828125 43.109375 
Q 14.796875 37.75 14.796875 27.984375 
Q 14.796875 18.265625 18.828125 12.890625 
Q 22.859375 7.515625 30.078125 7.515625 
Q 37.359375 7.515625 41.375 12.890625 
Q 45.40625 18.265625 45.40625 27.984375 
M 54.390625 6.78125 
Q 54.390625 -7.171875 48.1875 -13.984375 
Q 42 -20.796875 29.203125 -20.796875 
Q 24.46875 -20.796875 20.265625 -20.09375 
Q 16.0625 -19.390625 12.109375 -17.921875 
L 12.109375 -9.1875 
Q 16.0625 -11.328125 19.921875 -12.34375 
Q 23.78125 -13.375 27.78125 -13.375 
Q 36.625 -13.375 41.015625 -8.765625 
Q 45.40625 -4.15625 45.40625 5.171875 
L 45.40625 9.625 
Q 42.625 4.78125 38.28125 2.390625 
Q 33.9375 0 27.875 0 
Q 17.828125 0 11.671875 7.65625 
Q 5.515625 15.328125 5.515625 27.984375 
Q 5.515625 40.671875 11.671875 48.328125 
Q 17.828125 56 27.875 56 
Q 33.9375 56 38.28125 53.609375 
Q 42.625 51.21875 45.40625 46.390625 
L 45.40625 54.6875 
L 54.390625 54.6875 
z
" id="DejaVuSans-67"/>
     <path d="M 41.109375 46.296875 
Q 39.59375 47.171875 37.8125 47.578125 
Q 36.03125 48 33.890625 48 
Q 26.265625 48 22.1875 43.046875 
Q 18.109375 38.09375 18.109375 28.8125 
L 18.109375 0 
L 9.078125 0 
L 9.078125 54.6875 
L 18.109375 54.6875 
L 18.109375 46.1875 
Q 20.953125 51.171875 25.484375 53.578125 
Q 30.03125 56 36.53125 56 
Q 37.453125 56 38.578125 55.875 
Q 39.703125 55.765625 41.0625 55.515625 
z
" id="DejaVuSans-72"/>
     <path d="M 54.890625 33.015625 
L 54.890625 0 
L 45.90625 0 
L 45.90625 32.71875 
Q 45.90625 40.484375 42.875 44.328125 
Q 39.84375 48.1875 33.796875 48.1875 
Q 26.515625 48.1875 22.3125 43.546875 
Q 18.109375 38.921875 18.109375 30.90625 
L 18.109375 0 
L 9.078125 0 
L 9.078125 75.984375 
L 18.109375 75.984375 
L 18.109375 46.1875 
Q 21.34375 51.125 25.703125 53.5625 
Q 30.078125 56 35.796875 56 
Q 45.21875 56 50.046875 50.171875 
Q 54.890625 44.34375 54.890625 33.015625 
" id="DejaVuSans-68"/>
     <path d="M 52 44.1875 
Q 55.375 50.25 60.0625 53.125 
Q 64.75 56 71.09375 56 
Q 79.640625 56 84.28125 50.015625 
Q 88.921875 44.046875 88.921875 33.015625 
L 88.921875 0 
L 79.890625 0 
L 79.890625 32.71875 
Q 79.890625 40.578125 77.09375 44.375 
Q 74.3125 48.1875 68.609375 48.1875 
Q 61.625 48.1875 57.5625 43.546875 
Q 53.515625 38.921875 53.515625 30.90625 
L 53.515625 0 
L 44.484375 0 
L 44.484375 32.71875 
Q 44.484375 40.625 41.703125 44.40625 
Q 38.921875 48.1875 33.109375 48.1875 
Q 26.21875 48.1875 22.15625 43.53125 
Q 18.109375 38.875 18.109375 30.90625 
L 18.109375 0 
L 9.078125 0 
L 9.078125 54.6875 
L 18.109375 54.6875 
L 18.109375 46.1875 
Q 21.1875 51.21875 25.484375 53.609375 
Q 29.78125 56 35.6875 56 
Q 41.65625 56 45.828125 52.96875 
Q 50 49.953125 52 44.1875 
" id="DejaVuSans-6d"/>
     <path d="M 37.109375 75.984375 
L 37.109375 68.5 
L 28.515625 68.5 
Q 23.6875 68.5 21.796875 66.546875 
Q 19.921875 64.59375 19.921875 59.515625 
L 19.921875 54.6875 
L 34.71875 54.6875 
L 34.71875 47.703125 
L 19.921875 47.703125 
L 19.921875 0 
L 10.890625 0 
L 10.890625 47.703125 
L 2.296875 47.703125 
L 2.296875 54.6875 
L 10.890625 54.6875 
L 10.890625 58.5 
Q 10.890625 67.625 15.140625 71.796875 
Q 19.390625 75.984375 28.609375 75.984375 
z
" id="DejaVuSans-66"/>
     <path d="M 9.8125 72.90625 
L 24.515625 72.90625 
L 43.109375 23.296875 
L 61.8125 72.90625 
L 76.515625 72.90625 
L 76.515625 0 
L 66.890625 0 
L 66.890625 64.015625 
L 48.09375 14.015625 
L 38.1875 14.015625 
L 19.390625 64.015625 
L 19.390625 0 
L 9.8125 0 
z
" id="DejaVuSans-4d"/>
    </defs>
    <g transform="translate(115.500938 35.472)scale(0.12 -0.12)">
     <use xlink:href="#DejaVuSans-47"/>
     <use x="77.490234" xlink:href="#DejaVuSans-41"/>
     <use x="145.898438" xlink:href="#DejaVuSans-53"/>
     <use x="209.375" xlink:href="#DejaVuSans-49"/>
     <use x="238.867188" xlink:href="#DejaVuSans-52"/>
     <use x="308.349609" xlink:href="#DejaVuSans-20"/>
     <use x="340.136719" xlink:href="#DejaVuSans-2d"/>
     <use x="376.220703" xlink:href="#DejaVuSans-20"/>
     <use x="408.007812" xlink:href="#DejaVuSans-47"/>
     <use x="485.498047" xlink:href="#DejaVuSans-65"/>
     <use x="547.021484" xlink:href="#DejaVuSans-6e"/>
     <use x="610.400391" xlink:href="#DejaVuSans-65"/>
     <use x="671.923828" xlink:href="#DejaVuSans-74"/>
     <use x="711.132812" xlink:href="#DejaVuSans-69"/>
     <use x="738.916016" xlink:href="#DejaVuSans-63"/>
     <use x="793.896484" xlink:href="#DejaVuSans-20"/>
     <use x="825.683594" xlink:href="#DejaVuSans-41"/>
     <use x="894.091797" xlink:href="#DejaVuSans-6c"/>
     <use x="921.875" xlink:href="#DejaVuSans-67"/>
     <use x="985.351562" xlink:href="#DejaVuSans-6f"/>
     <use x="1046.533203" xlink:href="#DejaVuSans-72"/>
     <use x="1087.646484" xlink:href="#DejaVuSans-69"/>
     <use x="1115.429688" xlink:href="#DejaVuSans-74"/>
     <use x="1154.638672" xlink:href="#DejaVuSans-68"/>
     <use x="1218.017578" xlink:href="#DejaVuSans-6d"/>
     <use x="1315.429688" xlink:href="#DejaVuSans-20"/>
     <use x="1347.216797" xlink:href="#DejaVuSans-66"/>
     <use x="1382.421875" xlink:href="#DejaVuSans-6f"/>
     <use x="1443.603516" xlink:href="#DejaVuSans-72"/>
     <use x="1484.716797" xlink:href="#DejaVuSans-20"/>
     <use x="1516.503906" xlink:href="#DejaVuSans-53"/>
     <use x="1579.980469" xlink:href="#DejaVuSans-49"/>
     <use x="1609.472656" xlink:href="#DejaVuSans-52"/>
     <use x="1678.955078" xlink:href="#DejaVuSans-20"/>
     <use x="1710.742188" xlink:href="#DejaVuSans-4d"/>
     <use x="1797.021484" xlink:href="#DejaVuSans-6f"/>
     <use x="1858.203125" xlink:href="#DejaVuSans-64"/>
     <use x="1921.679688" xlink:href="#DejaVuSans-65"/>
     <use x="1983.203125" xlink:href="#DejaVuSans-6c"/>
    </g>
   </g>
  </g>
 </g>
 <defs>
  <clipPath id="p984faeb734">
   <rect height="266.112" width="357.12" x="57.6" y="41.472"/>
  </clipPath>
 </defs>
</svg>
