<?xml version="1.0" encoding="utf-8" standalone="no"?>
<!DOCTYPE svg PUBLIC "-//W3C//DTD SVG 1.1//EN"
  "http://www.w3.org/Graphics/SVG/1.1/DTD/svg11.dtd">
<!-- Created with matplotlib (http://matplotlib.org/) -->
<svg height="345pt" version="1.1" viewBox="0 0 460 345" width="460pt" xmlns="http://www.w3.org/2000/svg" xmlns:xlink="http://www.w3.org/1999/xlink">
 <defs>
  <style type="text/css">
*{stroke-linecap:butt;stroke-linejoin:round;}
  </style>
 </defs>
 <g id="figure_1">
  <g id="patch_1">
   <path d="M 0 345.6 
L 460.8 345.6 
L 460.8 0 
L 0 0 
z
" style="fill:#ffffff;"/>
  </g>
  <g id="axes_1">
   <g id="patch_2">
    <path d="M 57.6 307.584 
L 414.72 307.584 
L 414.72 41.472 
L 57.6 41.472 
z
" style="fill:#ffffff;"/>
   </g>
   <g id="matplotlib.axis_1">
    <g id="xtick_1">
     <g id="line2d_1">
      <defs>
       <path d="M 0 0 
L 0 3.5 
" id="m2c95face31" style="stroke:#000000;stroke-width:0.8;"/>
      </defs>
      <g>
       <use style="stroke:#000000;stroke-width:0.8;" x="57.6" xlink:href="#m2c95face31" y="307.584"/>
      </g>
     </g>
     <g id="text_1">
      <!-- 0 -->
      <defs>
       <path d="M 31.78125 66.40625 
Q 24.171875 66.40625 20.328125 58.90625 
Q 16.5 51.421875 16.5 36.375 
Q 16.5 21.390625 20.328125 13.890625 
Q 24.171875 6.390625 31.78125 6.390625 
Q 39.453125 6.390625 43.28125 13.890625 
Q 47.125 21.390625 47.125 36.375 
Q 47.125 51.421875 43.28125 58.90625 
Q 39.453125 66.40625 31.78125 66.40625 
M 31.78125 74.21875 
Q 44.046875 74.21875 50.515625 64.515625 
Q 56.984375 54.828125 56.984375 36.375 
Q 56.984375 17.96875 50.515625 8.265625 
Q 44.046875 -1.421875 31.78125 -1.421875 
Q 19.53125 -1.421875 13.0625 8.265625 
Q 6.59375 17.96875 6.59375 36.375 
Q 6.59375 54.828125 13.0625 64.515625 
Q 19.53125 74.21875 31.78125 74.21875 
" id="DejaVuSans-30"/>
      </defs>
      <g transform="translate(54.41875 322.182437)scale(0.1 -0.1)">
       <use xlink:href="#DejaVuSans-30"/>
      </g>
     </g>
    </g>
    <g id="xtick_2">
     <g id="line2d_2">
      <g>
       <use style="stroke:#000000;stroke-width:0.8;" x="102.464322" xlink:href="#m2c95face31" y="307.584"/>
      </g>
     </g>
     <g id="text_2">
      <!-- 25 -->
      <defs>
       <path d="M 19.1875 8.296875 
L 53.609375 8.296875 
L 53.609375 0 
L 7.328125 0 
L 7.328125 8.296875 
Q 12.9375 14.109375 22.625 23.890625 
Q 32.328125 33.6875 34.8125 36.53125 
Q 39.546875 41.84375 41.421875 45.53125 
Q 43.3125 49.21875 43.3125 52.78125 
Q 43.3125 58.59375 39.234375 62.25 
Q 35.15625 65.921875 28.609375 65.921875 
Q 23.96875 65.921875 18.8125 64.3125 
Q 13.671875 62.703125 7.8125 59.421875 
L 7.8125 69.390625 
Q 13.765625 71.78125 18.9375 73 
Q 24.125 74.21875 28.421875 74.21875 
Q 39.75 74.21875 46.484375 68.546875 
Q 53.21875 62.890625 53.21875 53.421875 
Q 53.21875 48.921875 51.53125 44.890625 
Q 49.859375 40.875 45.40625 35.40625 
Q 44.1875 33.984375 37.640625 27.21875 
Q 31.109375 20.453125 19.1875 8.296875 
" id="DejaVuSans-32"/>
       <path d="M 10.796875 72.90625 
L 49.515625 72.90625 
L 49.515625 64.59375 
L 19.828125 64.59375 
L 19.828125 46.734375 
Q 21.96875 47.46875 24.109375 47.828125 
Q 26.265625 48.1875 28.421875 48.1875 
Q 40.625 48.1875 47.75 41.5 
Q 54.890625 34.8125 54.890625 23.390625 
Q 54.890625 11.625 47.5625 5.09375 
Q 40.234375 -1.421875 26.90625 -1.421875 
Q 22.3125 -1.421875 17.546875 -0.640625 
Q 12.796875 0.140625 7.71875 1.703125 
L 7.71875 11.625 
Q 12.109375 9.234375 16.796875 8.0625 
Q 21.484375 6.890625 26.703125 6.890625 
Q 35.15625 6.890625 40.078125 11.328125 
Q 45.015625 15.765625 45.015625 23.390625 
Q 45.015625 31 40.078125 35.4375 
Q 35.15625 39.890625 26.703125 39.890625 
Q 22.75 39.890625 18.8125 39.015625 
Q 14.890625 38.140625 10.796875 36.28125 
z
" id="DejaVuSans-35"/>
      </defs>
      <g transform="translate(96.101822 322.182437)scale(0.1 -0.1)">
       <use xlink:href="#DejaVuSans-32"/>
       <use x="63.623047" xlink:href="#DejaVuSans-35"/>
      </g>
     </g>
    </g>
    <g id="xtick_3">
     <g id="line2d_3">
      <g>
       <use style="stroke:#000000;stroke-width:0.8;" x="147.328643" xlink:href="#m2c95face31" y="307.584"/>
      </g>
     </g>
     <g id="text_3">
      <!-- 50 -->
      <g transform="translate(140.966143 322.182437)scale(0.1 -0.1)">
       <use xlink:href="#DejaVuSans-35"/>
       <use x="63.623047" xlink:href="#DejaVuSans-30"/>
      </g>
     </g>
    </g>
    <g id="xtick_4">
     <g id="line2d_4">
      <g>
       <use style="stroke:#000000;stroke-width:0.8;" x="192.192965" xlink:href="#m2c95face31" y="307.584"/>
      </g>
     </g>
     <g id="text_4">
      <!-- 75 -->
      <defs>
       <path d="M 8.203125 72.90625 
L 55.078125 72.90625 
L 55.078125 68.703125 
L 28.609375 0 
L 18.3125 0 
L 43.21875 64.59375 
L 8.203125 64.59375 
z
" id="DejaVuSans-37"/>
      </defs>
      <g transform="translate(185.830465 322.182437)scale(0.1 -0.1)">
       <use xlink:href="#DejaVuSans-37"/>
       <use x="63.623047" xlink:href="#DejaVuSans-35"/>
      </g>
     </g>
    </g>
    <g id="xtick_5">
     <g id="line2d_5">
      <g>
       <use style="stroke:#000000;stroke-width:0.8;" x="237.057286" xlink:href="#m2c95face31" y="307.584"/>
      </g>
     </g>
     <g id="text_5">
      <!-- 100 -->
      <defs>
       <path d="M 12.40625 8.296875 
L 28.515625 8.296875 
L 28.515625 63.921875 
L 10.984375 60.40625 
L 10.984375 69.390625 
L 28.421875 72.90625 
L 38.28125 72.90625 
L 38.28125 8.296875 
L 54.390625 8.296875 
L 54.390625 0 
L 12.40625 0 
z
" id="DejaVuSans-31"/>
      </defs>
      <g transform="translate(227.513536 322.182437)scale(0.1 -0.1)">
       <use xlink:href="#DejaVuSans-31"/>
       <use x="63.623047" xlink:href="#DejaVuSans-30"/>
       <use x="127.246094" xlink:href="#DejaVuSans-30"/>
      </g>
     </g>
    </g>
    <g id="xtick_6">
     <g id="line2d_6">
      <g>
       <use style="stroke:#000000;stroke-width:0.8;" x="281.921608" xlink:href="#m2c95face31" y="307.584"/>
      </g>
     </g>
     <g id="text_6">
      <!-- 125 -->
      <g transform="translate(272.377858 322.182437)scale(0.1 -0.1)">
       <use xlink:href="#DejaVuSans-31"/>
       <use x="63.623047" xlink:href="#DejaVuSans-32"/>
       <use x="127.246094" xlink:href="#DejaVuSans-35"/>
      </g>
     </g>
    </g>
    <g id="xtick_7">
     <g id="line2d_7">
      <g>
       <use style="stroke:#000000;stroke-width:0.8;" x="326.78593" xlink:href="#m2c95face31" y="307.584"/>
      </g>
     </g>
     <g id="text_7">
      <!-- 150 -->
      <g transform="translate(317.24218 322.182437)scale(0.1 -0.1)">
       <use xlink:href="#DejaVuSans-31"/>
       <use x="63.623047" xlink:href="#DejaVuSans-35"/>
       <use x="127.246094" xlink:href="#DejaVuSans-30"/>
      </g>
     </g>
    </g>
    <g id="xtick_8">
     <g id="line2d_8">
      <g>
       <use style="stroke:#000000;stroke-width:0.8;" x="371.650251" xlink:href="#m2c95face31" y="307.584"/>
      </g>
     </g>
     <g id="text_8">
      <!-- 175 -->
      <g transform="translate(362.106501 322.182437)scale(0.1 -0.1)">
       <use xlink:href="#DejaVuSans-31"/>
       <use x="63.623047" xlink:href="#DejaVuSans-37"/>
       <use x="127.246094" xlink:href="#DejaVuSans-35"/>
      </g>
     </g>
    </g>
    <g id="text_9">
     <!-- Geracoes -->
     <defs>
      <path d="M 59.515625 10.40625 
L 59.515625 29.984375 
L 43.40625 29.984375 
L 43.40625 38.09375 
L 69.28125 38.09375 
L 69.28125 6.78125 
Q 63.578125 2.734375 56.6875 0.65625 
Q 49.8125 -1.421875 42 -1.421875 
Q 24.90625 -1.421875 15.25 8.5625 
Q 5.609375 18.5625 5.609375 36.375 
Q 5.609375 54.25 15.25 64.234375 
Q 24.90625 74.21875 42 74.21875 
Q 49.125 74.21875 55.546875 72.453125 
Q 61.96875 70.703125 67.390625 67.28125 
L 67.390625 56.78125 
Q 61.921875 61.421875 55.765625 63.765625 
Q 49.609375 66.109375 42.828125 66.109375 
Q 29.4375 66.109375 22.71875 58.640625 
Q 16.015625 51.171875 16.015625 36.375 
Q 16.015625 21.625 22.71875 14.15625 
Q 29.4375 6.6875 42.828125 6.6875 
Q 48.046875 6.6875 52.140625 7.59375 
Q 56.25 8.5 59.515625 10.40625 
" id="DejaVuSans-47"/>
      <path d="M 56.203125 29.59375 
L 56.203125 25.203125 
L 14.890625 25.203125 
Q 15.484375 15.921875 20.484375 11.0625 
Q 25.484375 6.203125 34.421875 6.203125 
Q 39.59375 6.203125 44.453125 7.46875 
Q 49.3125 8.734375 54.109375 11.28125 
L 54.109375 2.78125 
Q 49.265625 0.734375 44.1875 -0.34375 
Q 39.109375 -1.421875 33.890625 -1.421875 
Q 20.796875 -1.421875 13.15625 6.1875 
Q 5.515625 13.8125 5.515625 26.8125 
Q 5.515625 40.234375 12.765625 48.109375 
Q 20.015625 56 32.328125 56 
Q 43.359375 56 49.78125 48.890625 
Q 56.203125 41.796875 56.203125 29.59375 
M 47.21875 32.234375 
Q 47.125 39.59375 43.09375 43.984375 
Q 39.0625 48.390625 32.421875 48.390625 
Q 24.90625 48.390625 20.390625 44.140625 
Q 15.875 39.890625 15.1875 32.171875 
z
" id="DejaVuSans-65"/>
      <path d="M 41.109375 46.296875 
Q 39.59375 47.171875 37.8125 47.578125 
Q 36.03125 48 33.890625 48 
Q 26.265625 48 22.1875 43.046875 
Q 18.109375 38.09375 18.109375 28.8125 
L 18.109375 0 
L 9.078125 0 
L 9.078125 54.6875 
L 18.109375 54.6875 
L 18.109375 46.1875 
Q 20.953125 51.171875 25.484375 53.578125 
Q 30.03125 56 36.53125 56 
Q 37.453125 56 38.578125 55.875 
Q 39.703125 55.765625 41.0625 55.515625 
z
" id="DejaVuSans-72"/>
      <path d="M 34.28125 27.484375 
Q 23.390625 27.484375 19.1875 25 
Q 14.984375 22.515625 14.984375 16.5 
Q 14.984375 11.71875 18.140625 8.90625 
Q 21.296875 6.109375 26.703125 6.109375 
Q 34.1875 6.109375 38.703125 11.40625 
Q 43.21875 16.703125 43.21875 25.484375 
L 43.21875 27.484375 
z
M 52.203125 31.203125 
L 52.203125 0 
L 43.21875 0 
L 43.21875 8.296875 
Q 40.140625 3.328125 35.546875 0.953125 
Q 30.953125 -1.421875 24.3125 -1.421875 
Q 15.921875 -1.421875 10.953125 3.296875 
Q 6 8.015625 6 15.921875 
Q 6 25.140625 12.171875 29.828125 
Q 18.359375 34.515625 30.609375 34.515625 
L 43.21875 34.515625 
L 43.21875 35.40625 
Q 43.21875 41.609375 39.140625 45 
Q 35.0625 48.390625 27.6875 48.390625 
Q 23 48.390625 18.546875 47.265625 
Q 14.109375 46.140625 10.015625 43.890625 
L 10.015625 52.203125 
Q 14.9375 54.109375 19.578125 55.046875 
Q 24.21875 56 28.609375 56 
Q 40.484375 56 46.34375 49.84375 
Q 52.203125 43.703125 52.203125 31.203125 
" id="DejaVuSans-61"/>
      <path d="M 48.78125 52.59375 
L 48.78125 44.1875 
Q 44.96875 46.296875 41.140625 47.34375 
Q 37.3125 48.390625 33.40625 48.390625 
Q 24.65625 48.390625 19.8125 42.84375 
Q 14.984375 37.3125 14.984375 27.296875 
Q 14.984375 17.28125 19.8125 11.734375 
Q 24.65625 6.203125 33.40625 6.203125 
Q 37.3125 6.203125 41.140625 7.25 
Q 44.96875 8.296875 48.78125 10.40625 
L 48.78125 2.09375 
Q 45.015625 0.34375 40.984375 -0.53125 
Q 36.96875 -1.421875 32.421875 -1.421875 
Q 20.0625 -1.421875 12.78125 6.34375 
Q 5.515625 14.109375 5.515625 27.296875 
Q 5.515625 40.671875 12.859375 48.328125 
Q 20.21875 56 33.015625 56 
Q 37.15625 56 41.109375 55.140625 
Q 45.0625 54.296875 48.78125 52.59375 
" id="DejaVuSans-63"/>
      <path d="M 30.609375 48.390625 
Q 23.390625 48.390625 19.1875 42.75 
Q 14.984375 37.109375 14.984375 27.296875 
Q 14.984375 17.484375 19.15625 11.84375 
Q 23.34375 6.203125 30.609375 6.203125 
Q 37.796875 6.203125 41.984375 11.859375 
Q 46.1875 17.53125 46.1875 27.296875 
Q 46.1875 37.015625 41.984375 42.703125 
Q 37.796875 48.390625 30.609375 48.390625 
M 30.609375 56 
Q 42.328125 56 49.015625 48.375 
Q 55.71875 40.765625 55.71875 27.296875 
Q 55.71875 13.875 49.015625 6.21875 
Q 42.328125 -1.421875 30.609375 -1.421875 
Q 18.84375 -1.421875 12.171875 6.21875 
Q 5.515625 13.875 5.515625 27.296875 
Q 5.515625 40.765625 12.171875 48.375 
Q 18.84375 56 30.609375 56 
" id="DejaVuSans-6f"/>
      <path d="M 44.28125 53.078125 
L 44.28125 44.578125 
Q 40.484375 46.53125 36.375 47.5 
Q 32.28125 48.484375 27.875 48.484375 
Q 21.1875 48.484375 17.84375 46.4375 
Q 14.5 44.390625 14.5 40.28125 
Q 14.5 37.15625 16.890625 35.375 
Q 19.28125 33.59375 26.515625 31.984375 
L 29.59375 31.296875 
Q 39.15625 29.25 43.1875 25.515625 
Q 47.21875 21.78125 47.21875 15.09375 
Q 47.21875 7.46875 41.1875 3.015625 
Q 35.15625 -1.421875 24.609375 -1.421875 
Q 20.21875 -1.421875 15.453125 -0.5625 
Q 10.6875 0.296875 5.421875 2 
L 5.421875 11.28125 
Q 10.40625 8.6875 15.234375 7.390625 
Q 20.0625 6.109375 24.8125 6.109375 
Q 31.15625 6.109375 34.5625 8.28125 
Q 37.984375 10.453125 37.984375 14.40625 
Q 37.984375 18.0625 35.515625 20.015625 
Q 33.0625 21.96875 24.703125 23.78125 
L 21.578125 24.515625 
Q 13.234375 26.265625 9.515625 29.90625 
Q 5.8125 33.546875 5.8125 39.890625 
Q 5.8125 47.609375 11.28125 51.796875 
Q 16.75 56 26.8125 56 
Q 31.78125 56 36.171875 55.265625 
Q 40.578125 54.546875 44.28125 53.078125 
" id="DejaVuSans-73"/>
     </defs>
     <g transform="translate(212.599844 335.860562)scale(0.1 -0.1)">
      <use xlink:href="#DejaVuSans-47"/>
      <use x="77.490234" xlink:href="#DejaVuSans-65"/>
      <use x="139.013672" xlink:href="#DejaVuSans-72"/>
      <use x="180.126953" xlink:href="#DejaVuSans-61"/>
      <use x="241.40625" xlink:href="#DejaVuSans-63"/>
      <use x="296.386719" xlink:href="#DejaVuSans-6f"/>
      <use x="357.568359" xlink:href="#DejaVuSans-65"/>
      <use x="419.091797" xlink:href="#DejaVuSans-73"/>
     </g>
    </g>
   </g>
   <g id="matplotlib.axis_2">
    <g id="ytick_1">
     <g id="line2d_9">
      <defs>
       <path d="M 0 0 
L -3.5 0 
" id="m76d67ae251" style="stroke:#000000;stroke-width:0.8;"/>
      </defs>
      <g>
       <use style="stroke:#000000;stroke-width:0.8;" x="57.6" xlink:href="#m76d67ae251" y="307.584"/>
      </g>
     </g>
     <g id="text_10">
      <!-- 0 -->
      <g transform="translate(44.2375 311.383219)scale(0.1 -0.1)">
       <use xlink:href="#DejaVuSans-30"/>
      </g>
     </g>
    </g>
    <g id="ytick_2">
     <g id="line2d_10">
      <g>
       <use style="stroke:#000000;stroke-width:0.8;" x="57.6" xlink:href="#m76d67ae251" y="275.131317"/>
      </g>
     </g>
     <g id="text_11">
      <!-- 50 -->
      <g transform="translate(37.875 278.930536)scale(0.1 -0.1)">
       <use xlink:href="#DejaVuSans-35"/>
       <use x="63.623047" xlink:href="#DejaVuSans-30"/>
      </g>
     </g>
    </g>
    <g id="ytick_3">
     <g id="line2d_11">
      <g>
       <use style="stroke:#000000;stroke-width:0.8;" x="57.6" xlink:href="#m76d67ae251" y="242.678634"/>
      </g>
     </g>
     <g id="text_12">
      <!-- 100 -->
      <g transform="translate(31.5125 246.477853)scale(0.1 -0.1)">
       <use xlink:href="#DejaVuSans-31"/>
       <use x="63.623047" xlink:href="#DejaVuSans-30"/>
       <use x="127.246094" xlink:href="#DejaVuSans-30"/>
      </g>
     </g>
    </g>
    <g id="ytick_4">
     <g id="line2d_12">
      <g>
       <use style="stroke:#000000;stroke-width:0.8;" x="57.6" xlink:href="#m76d67ae251" y="210.225951"/>
      </g>
     </g>
     <g id="text_13">
      <!-- 150 -->
      <g transform="translate(31.5125 214.02517)scale(0.1 -0.1)">
       <use xlink:href="#DejaVuSans-31"/>
       <use x="63.623047" xlink:href="#DejaVuSans-35"/>
       <use x="127.246094" xlink:href="#DejaVuSans-30"/>
      </g>
     </g>
    </g>
    <g id="ytick_5">
     <g id="line2d_13">
      <g>
       <use style="stroke:#000000;stroke-width:0.8;" x="57.6" xlink:href="#m76d67ae251" y="177.773268"/>
      </g>
     </g>
     <g id="text_14">
      <!-- 200 -->
      <g transform="translate(31.5125 181.572487)scale(0.1 -0.1)">
       <use xlink:href="#DejaVuSans-32"/>
       <use x="63.623047" xlink:href="#DejaVuSans-30"/>
       <use x="127.246094" xlink:href="#DejaVuSans-30"/>
      </g>
     </g>
    </g>
    <g id="ytick_6">
     <g id="line2d_14">
      <g>
       <use style="stroke:#000000;stroke-width:0.8;" x="57.6" xlink:href="#m76d67ae251" y="145.320585"/>
      </g>
     </g>
     <g id="text_15">
      <!-- 250 -->
      <g transform="translate(31.5125 149.119804)scale(0.1 -0.1)">
       <use xlink:href="#DejaVuSans-32"/>
       <use x="63.623047" xlink:href="#DejaVuSans-35"/>
       <use x="127.246094" xlink:href="#DejaVuSans-30"/>
      </g>
     </g>
    </g>
    <g id="ytick_7">
     <g id="line2d_15">
      <g>
       <use style="stroke:#000000;stroke-width:0.8;" x="57.6" xlink:href="#m76d67ae251" y="112.867902"/>
      </g>
     </g>
     <g id="text_16">
      <!-- 300 -->
      <defs>
       <path d="M 40.578125 39.3125 
Q 47.65625 37.796875 51.625 33 
Q 55.609375 28.21875 55.609375 21.1875 
Q 55.609375 10.40625 48.1875 4.484375 
Q 40.765625 -1.421875 27.09375 -1.421875 
Q 22.515625 -1.421875 17.65625 -0.515625 
Q 12.796875 0.390625 7.625 2.203125 
L 7.625 11.71875 
Q 11.71875 9.328125 16.59375 8.109375 
Q 21.484375 6.890625 26.8125 6.890625 
Q 36.078125 6.890625 40.9375 10.546875 
Q 45.796875 14.203125 45.796875 21.1875 
Q 45.796875 27.640625 41.28125 31.265625 
Q 36.765625 34.90625 28.71875 34.90625 
L 20.21875 34.90625 
L 20.21875 43.015625 
L 29.109375 43.015625 
Q 36.375 43.015625 40.234375 45.921875 
Q 44.09375 48.828125 44.09375 54.296875 
Q 44.09375 59.90625 40.109375 62.90625 
Q 36.140625 65.921875 28.71875 65.921875 
Q 24.65625 65.921875 20.015625 65.03125 
Q 15.375 64.15625 9.8125 62.3125 
L 9.8125 71.09375 
Q 15.4375 72.65625 20.34375 73.4375 
Q 25.25 74.21875 29.59375 74.21875 
Q 40.828125 74.21875 47.359375 69.109375 
Q 53.90625 64.015625 53.90625 55.328125 
Q 53.90625 49.265625 50.4375 45.09375 
Q 46.96875 40.921875 40.578125 39.3125 
" id="DejaVuSans-33"/>
      </defs>
      <g transform="translate(31.5125 116.667121)scale(0.1 -0.1)">
       <use xlink:href="#DejaVuSans-33"/>
       <use x="63.623047" xlink:href="#DejaVuSans-30"/>
       <use x="127.246094" xlink:href="#DejaVuSans-30"/>
      </g>
     </g>
    </g>
    <g id="ytick_8">
     <g id="line2d_16">
      <g>
       <use style="stroke:#000000;stroke-width:0.8;" x="57.6" xlink:href="#m76d67ae251" y="80.41522"/>
      </g>
     </g>
     <g id="text_17">
      <!-- 350 -->
      <g transform="translate(31.5125 84.214438)scale(0.1 -0.1)">
       <use xlink:href="#DejaVuSans-33"/>
       <use x="63.623047" xlink:href="#DejaVuSans-35"/>
       <use x="127.246094" xlink:href="#DejaVuSans-30"/>
      </g>
     </g>
    </g>
    <g id="ytick_9">
     <g id="line2d_17">
      <g>
       <use style="stroke:#000000;stroke-width:0.8;" x="57.6" xlink:href="#m76d67ae251" y="47.962537"/>
      </g>
     </g>
     <g id="text_18">
      <!-- 400 -->
      <defs>
       <path d="M 37.796875 64.3125 
L 12.890625 25.390625 
L 37.796875 25.390625 
z
M 35.203125 72.90625 
L 47.609375 72.90625 
L 47.609375 25.390625 
L 58.015625 25.390625 
L 58.015625 17.1875 
L 47.609375 17.1875 
L 47.609375 0 
L 37.796875 0 
L 37.796875 17.1875 
L 4.890625 17.1875 
L 4.890625 26.703125 
z
" id="DejaVuSans-34"/>
      </defs>
      <g transform="translate(31.5125 51.761755)scale(0.1 -0.1)">
       <use xlink:href="#DejaVuSans-34"/>
       <use x="63.623047" xlink:href="#DejaVuSans-30"/>
       <use x="127.246094" xlink:href="#DejaVuSans-30"/>
      </g>
     </g>
    </g>
    <g id="text_19">
     <!-- Individuos Infectados -->
     <defs>
      <path d="M 9.8125 72.90625 
L 19.671875 72.90625 
L 19.671875 0 
L 9.8125 0 
z
" id="DejaVuSans-49"/>
      <path d="M 54.890625 33.015625 
L 54.890625 0 
L 45.90625 0 
L 45.90625 32.71875 
Q 45.90625 40.484375 42.875 44.328125 
Q 39.84375 48.1875 33.796875 48.1875 
Q 26.515625 48.1875 22.3125 43.546875 
Q 18.109375 38.921875 18.109375 30.90625 
L 18.109375 0 
L 9.078125 0 
L 9.078125 54.6875 
L 18.109375 54.6875 
L 18.109375 46.1875 
Q 21.34375 51.125 25.703125 53.5625 
Q 30.078125 56 35.796875 56 
Q 45.21875 56 50.046875 50.171875 
Q 54.890625 44.34375 54.890625 33.015625 
" id="DejaVuSans-6e"/>
      <path d="M 45.40625 46.390625 
L 45.40625 75.984375 
L 54.390625 75.984375 
L 54.390625 0 
L 45.40625 0 
L 45.40625 8.203125 
Q 42.578125 3.328125 38.25 0.953125 
Q 33.9375 -1.421875 27.875 -1.421875 
Q 17.96875 -1.421875 11.734375 6.484375 
Q 5.515625 14.40625 5.515625 27.296875 
Q 5.515625 40.1875 11.734375 48.09375 
Q 17.96875 56 27.875 56 
Q 33.9375 56 38.25 53.625 
Q 42.578125 51.265625 45.40625 46.390625 
M 14.796875 27.296875 
Q 14.796875 17.390625 18.875 11.75 
Q 22.953125 6.109375 30.078125 6.109375 
Q 37.203125 6.109375 41.296875 11.75 
Q 45.40625 17.390625 45.40625 27.296875 
Q 45.40625 37.203125 41.296875 42.84375 
Q 37.203125 48.484375 30.078125 48.484375 
Q 22.953125 48.484375 18.875 42.84375 
Q 14.796875 37.203125 14.796875 27.296875 
" id="DejaVuSans-64"/>
      <path d="M 9.421875 54.6875 
L 18.40625 54.6875 
L 18.40625 0 
L 9.421875 0 
z
M 9.421875 75.984375 
L 18.40625 75.984375 
L 18.40625 64.59375 
L 9.421875 64.59375 
z
" id="DejaVuSans-69"/>
      <path d="M 2.984375 54.6875 
L 12.5 54.6875 
L 29.59375 8.796875 
L 46.6875 54.6875 
L 56.203125 54.6875 
L 35.6875 0 
L 23.484375 0 
z
" id="DejaVuSans-76"/>
      <path d="M 8.5 21.578125 
L 8.5 54.6875 
L 17.484375 54.6875 
L 17.484375 21.921875 
Q 17.484375 14.15625 20.5 10.265625 
Q 23.53125 6.390625 29.59375 6.390625 
Q 36.859375 6.390625 41.078125 11.03125 
Q 45.3125 15.671875 45.3125 23.6875 
L 45.3125 54.6875 
L 54.296875 54.6875 
L 54.296875 0 
L 45.3125 0 
L 45.3125 8.40625 
Q 42.046875 3.421875 37.71875 1 
Q 33.40625 -1.421875 27.6875 -1.421875 
Q 18.265625 -1.421875 13.375 4.4375 
Q 8.5 10.296875 8.5 21.578125 
M 31.109375 56 
z
" id="DejaVuSans-75"/>
      <path id="DejaVuSans-20"/>
      <path d="M 37.109375 75.984375 
L 37.109375 68.5 
L 28.515625 68.5 
Q 23.6875 68.5 21.796875 66.546875 
Q 19.921875 64.59375 19.921875 59.515625 
L 19.921875 54.6875 
L 34.71875 54.6875 
L 34.71875 47.703125 
L 19.921875 47.703125 
L 19.921875 0 
L 10.890625 0 
L 10.890625 47.703125 
L 2.296875 47.703125 
L 2.296875 54.6875 
L 10.890625 54.6875 
L 10.890625 58.5 
Q 10.890625 67.625 15.140625 71.796875 
Q 19.390625 75.984375 28.609375 75.984375 
z
" id="DejaVuSans-66"/>
      <path d="M 18.3125 70.21875 
L 18.3125 54.6875 
L 36.8125 54.6875 
L 36.8125 47.703125 
L 18.3125 47.703125 
L 18.3125 18.015625 
Q 18.3125 11.328125 20.140625 9.421875 
Q 21.96875 7.515625 27.59375 7.515625 
L 36.8125 7.515625 
L 36.8125 0 
L 27.59375 0 
Q 17.1875 0 13.234375 3.875 
Q 9.28125 7.765625 9.28125 18.015625 
L 9.28125 47.703125 
L 2.6875 47.703125 
L 2.6875 54.6875 
L 9.28125 54.6875 
L 9.28125 70.21875 
z
" id="DejaVuSans-74"/>
     </defs>
     <g transform="translate(25.432812 227.77175)rotate(-90)scale(0.1 -0.1)">
      <use xlink:href="#DejaVuSans-49"/>
      <use x="29.492188" xlink:href="#DejaVuSans-6e"/>
      <use x="92.871094" xlink:href="#DejaVuSans-64"/>
      <use x="156.347656" xlink:href="#DejaVuSans-69"/>
      <use x="184.130859" xlink:href="#DejaVuSans-76"/>
      <use x="243.310547" xlink:href="#DejaVuSans-69"/>
      <use x="271.09375" xlink:href="#DejaVuSans-64"/>
      <use x="334.570312" xlink:href="#DejaVuSans-75"/>
      <use x="397.949219" xlink:href="#DejaVuSans-6f"/>
      <use x="459.130859" xlink:href="#DejaVuSans-73"/>
      <use x="511.230469" xlink:href="#DejaVuSans-20"/>
      <use x="543.017578" xlink:href="#DejaVuSans-49"/>
      <use x="572.509766" xlink:href="#DejaVuSans-6e"/>
      <use x="635.888672" xlink:href="#DejaVuSans-66"/>
      <use x="671.09375" xlink:href="#DejaVuSans-65"/>
      <use x="732.617188" xlink:href="#DejaVuSans-63"/>
      <use x="787.597656" xlink:href="#DejaVuSans-74"/>
      <use x="826.806641" xlink:href="#DejaVuSans-61"/>
      <use x="888.085938" xlink:href="#DejaVuSans-64"/>
      <use x="951.5625" xlink:href="#DejaVuSans-6f"/>
      <use x="1012.744141" xlink:href="#DejaVuSans-73"/>
     </g>
    </g>
   </g>
   <g id="line2d_18">
    <defs>
     <path d="M 0 3 
C 0.795609 3 1.55874 2.683901 2.12132 2.12132 
C 2.683901 1.55874 3 0.795609 3 0 
C 3 -0.795609 2.683901 -1.55874 2.12132 -2.12132 
C 1.55874 -2.683901 0.795609 -3 0 -3 
C -0.795609 -3 -1.55874 -2.683901 -2.12132 -2.12132 
C -2.683901 -1.55874 -3 -0.795609 -3 0 
C -3 0.795609 -2.683901 1.55874 -2.12132 2.12132 
C -1.55874 2.683901 -0.795609 3 0 3 
z
" id="m4524ace545" style="stroke:#ff0000;"/>
    </defs>
    <g clip-path="url(#p4c1e7bcf36)">
     <use style="fill:#ff0000;stroke:#ff0000;" x="57.6" xlink:href="#m4524ace545" y="157.003551"/>
     <use style="fill:#ff0000;stroke:#ff0000;" x="59.394573" xlink:href="#m4524ace545" y="155.705444"/>
     <use style="fill:#ff0000;stroke:#ff0000;" x="61.189146" xlink:href="#m4524ace545" y="156.354498"/>
     <use style="fill:#ff0000;stroke:#ff0000;" x="62.983719" xlink:href="#m4524ace545" y="160.897873"/>
     <use style="fill:#ff0000;stroke:#ff0000;" x="64.778291" xlink:href="#m4524ace545" y="154.407337"/>
     <use style="fill:#ff0000;stroke:#ff0000;" x="66.572864" xlink:href="#m4524ace545" y="165.441249"/>
     <use style="fill:#ff0000;stroke:#ff0000;" x="68.367437" xlink:href="#m4524ace545" y="173.229893"/>
     <use style="fill:#ff0000;stroke:#ff0000;" x="70.16201" xlink:href="#m4524ace545" y="173.229893"/>
     <use style="fill:#ff0000;stroke:#ff0000;" x="71.956583" xlink:href="#m4524ace545" y="157.003551"/>
     <use style="fill:#ff0000;stroke:#ff0000;" x="73.751156" xlink:href="#m4524ace545" y="158.301659"/>
     <use style="fill:#ff0000;stroke:#ff0000;" x="75.545729" xlink:href="#m4524ace545" y="173.878946"/>
     <use style="fill:#ff0000;stroke:#ff0000;" x="77.340302" xlink:href="#m4524ace545" y="167.38841"/>
     <use style="fill:#ff0000;stroke:#ff0000;" x="79.134874" xlink:href="#m4524ace545" y="167.38841"/>
     <use style="fill:#ff0000;stroke:#ff0000;" x="80.929447" xlink:href="#m4524ace545" y="163.494088"/>
     <use style="fill:#ff0000;stroke:#ff0000;" x="82.72402" xlink:href="#m4524ace545" y="174.528"/>
     <use style="fill:#ff0000;stroke:#ff0000;" x="84.518593" xlink:href="#m4524ace545" y="162.845034"/>
     <use style="fill:#ff0000;stroke:#ff0000;" x="86.313166" xlink:href="#m4524ace545" y="179.720429"/>
     <use style="fill:#ff0000;stroke:#ff0000;" x="88.107739" xlink:href="#m4524ace545" y="174.528"/>
     <use style="fill:#ff0000;stroke:#ff0000;" x="89.902312" xlink:href="#m4524ace545" y="167.38841"/>
     <use style="fill:#ff0000;stroke:#ff0000;" x="91.696884" xlink:href="#m4524ace545" y="179.720429"/>
     <use style="fill:#ff0000;stroke:#ff0000;" x="93.491457" xlink:href="#m4524ace545" y="176.475161"/>
     <use style="fill:#ff0000;stroke:#ff0000;" x="95.28603" xlink:href="#m4524ace545" y="171.931785"/>
     <use style="fill:#ff0000;stroke:#ff0000;" x="97.080603" xlink:href="#m4524ace545" y="171.931785"/>
     <use style="fill:#ff0000;stroke:#ff0000;" x="98.875176" xlink:href="#m4524ace545" y="176.475161"/>
     <use style="fill:#ff0000;stroke:#ff0000;" x="100.669749" xlink:href="#m4524ace545" y="173.229893"/>
     <use style="fill:#ff0000;stroke:#ff0000;" x="102.464322" xlink:href="#m4524ace545" y="181.018537"/>
     <use style="fill:#ff0000;stroke:#ff0000;" x="104.258894" xlink:href="#m4524ace545" y="174.528"/>
     <use style="fill:#ff0000;stroke:#ff0000;" x="106.053467" xlink:href="#m4524ace545" y="173.229893"/>
     <use style="fill:#ff0000;stroke:#ff0000;" x="107.84804" xlink:href="#m4524ace545" y="173.878946"/>
     <use style="fill:#ff0000;stroke:#ff0000;" x="109.642613" xlink:href="#m4524ace545" y="169.984624"/>
     <use style="fill:#ff0000;stroke:#ff0000;" x="111.437186" xlink:href="#m4524ace545" y="170.633678"/>
     <use style="fill:#ff0000;stroke:#ff0000;" x="113.231759" xlink:href="#m4524ace545" y="164.143141"/>
     <use style="fill:#ff0000;stroke:#ff0000;" x="115.026332" xlink:href="#m4524ace545" y="176.475161"/>
     <use style="fill:#ff0000;stroke:#ff0000;" x="116.820905" xlink:href="#m4524ace545" y="172.580839"/>
     <use style="fill:#ff0000;stroke:#ff0000;" x="118.615477" xlink:href="#m4524ace545" y="177.124215"/>
     <use style="fill:#ff0000;stroke:#ff0000;" x="120.41005" xlink:href="#m4524ace545" y="172.580839"/>
     <use style="fill:#ff0000;stroke:#ff0000;" x="122.204623" xlink:href="#m4524ace545" y="172.580839"/>
     <use style="fill:#ff0000;stroke:#ff0000;" x="123.999196" xlink:href="#m4524ace545" y="170.633678"/>
     <use style="fill:#ff0000;stroke:#ff0000;" x="125.793769" xlink:href="#m4524ace545" y="171.931785"/>
     <use style="fill:#ff0000;stroke:#ff0000;" x="127.588342" xlink:href="#m4524ace545" y="173.878946"/>
     <use style="fill:#ff0000;stroke:#ff0000;" x="129.382915" xlink:href="#m4524ace545" y="175.826107"/>
     <use style="fill:#ff0000;stroke:#ff0000;" x="131.177487" xlink:href="#m4524ace545" y="177.124215"/>
     <use style="fill:#ff0000;stroke:#ff0000;" x="132.97206" xlink:href="#m4524ace545" y="177.124215"/>
     <use style="fill:#ff0000;stroke:#ff0000;" x="134.766633" xlink:href="#m4524ace545" y="174.528"/>
     <use style="fill:#ff0000;stroke:#ff0000;" x="136.561206" xlink:href="#m4524ace545" y="171.282732"/>
     <use style="fill:#ff0000;stroke:#ff0000;" x="138.355779" xlink:href="#m4524ace545" y="173.229893"/>
     <use style="fill:#ff0000;stroke:#ff0000;" x="140.150352" xlink:href="#m4524ace545" y="170.633678"/>
     <use style="fill:#ff0000;stroke:#ff0000;" x="141.944925" xlink:href="#m4524ace545" y="174.528"/>
     <use style="fill:#ff0000;stroke:#ff0000;" x="143.739497" xlink:href="#m4524ace545" y="174.528"/>
     <use style="fill:#ff0000;stroke:#ff0000;" x="145.53407" xlink:href="#m4524ace545" y="175.177054"/>
     <use style="fill:#ff0000;stroke:#ff0000;" x="147.328643" xlink:href="#m4524ace545" y="173.229893"/>
     <use style="fill:#ff0000;stroke:#ff0000;" x="149.123216" xlink:href="#m4524ace545" y="167.38841"/>
     <use style="fill:#ff0000;stroke:#ff0000;" x="150.917789" xlink:href="#m4524ace545" y="172.580839"/>
     <use style="fill:#ff0000;stroke:#ff0000;" x="152.712362" xlink:href="#m4524ace545" y="168.037463"/>
     <use style="fill:#ff0000;stroke:#ff0000;" x="154.506935" xlink:href="#m4524ace545" y="178.422322"/>
     <use style="fill:#ff0000;stroke:#ff0000;" x="156.301508" xlink:href="#m4524ace545" y="175.177054"/>
     <use style="fill:#ff0000;stroke:#ff0000;" x="158.09608" xlink:href="#m4524ace545" y="175.826107"/>
     <use style="fill:#ff0000;stroke:#ff0000;" x="159.890653" xlink:href="#m4524ace545" y="174.528"/>
     <use style="fill:#ff0000;stroke:#ff0000;" x="161.685226" xlink:href="#m4524ace545" y="174.528"/>
     <use style="fill:#ff0000;stroke:#ff0000;" x="163.479799" xlink:href="#m4524ace545" y="172.580839"/>
     <use style="fill:#ff0000;stroke:#ff0000;" x="165.274372" xlink:href="#m4524ace545" y="175.177054"/>
     <use style="fill:#ff0000;stroke:#ff0000;" x="167.068945" xlink:href="#m4524ace545" y="178.422322"/>
     <use style="fill:#ff0000;stroke:#ff0000;" x="168.863518" xlink:href="#m4524ace545" y="179.720429"/>
     <use style="fill:#ff0000;stroke:#ff0000;" x="170.65809" xlink:href="#m4524ace545" y="177.773268"/>
     <use style="fill:#ff0000;stroke:#ff0000;" x="172.452663" xlink:href="#m4524ace545" y="169.984624"/>
     <use style="fill:#ff0000;stroke:#ff0000;" x="174.247236" xlink:href="#m4524ace545" y="174.528"/>
     <use style="fill:#ff0000;stroke:#ff0000;" x="176.041809" xlink:href="#m4524ace545" y="178.422322"/>
     <use style="fill:#ff0000;stroke:#ff0000;" x="177.836382" xlink:href="#m4524ace545" y="174.528"/>
     <use style="fill:#ff0000;stroke:#ff0000;" x="179.630955" xlink:href="#m4524ace545" y="181.018537"/>
     <use style="fill:#ff0000;stroke:#ff0000;" x="181.425528" xlink:href="#m4524ace545" y="177.124215"/>
     <use style="fill:#ff0000;stroke:#ff0000;" x="183.220101" xlink:href="#m4524ace545" y="177.124215"/>
     <use style="fill:#ff0000;stroke:#ff0000;" x="185.014673" xlink:href="#m4524ace545" y="176.475161"/>
     <use style="fill:#ff0000;stroke:#ff0000;" x="186.809246" xlink:href="#m4524ace545" y="173.878946"/>
     <use style="fill:#ff0000;stroke:#ff0000;" x="188.603819" xlink:href="#m4524ace545" y="179.720429"/>
     <use style="fill:#ff0000;stroke:#ff0000;" x="190.398392" xlink:href="#m4524ace545" y="177.124215"/>
     <use style="fill:#ff0000;stroke:#ff0000;" x="192.192965" xlink:href="#m4524ace545" y="173.229893"/>
     <use style="fill:#ff0000;stroke:#ff0000;" x="193.987538" xlink:href="#m4524ace545" y="172.580839"/>
     <use style="fill:#ff0000;stroke:#ff0000;" x="195.782111" xlink:href="#m4524ace545" y="174.528"/>
     <use style="fill:#ff0000;stroke:#ff0000;" x="197.576683" xlink:href="#m4524ace545" y="181.66759"/>
     <use style="fill:#ff0000;stroke:#ff0000;" x="199.371256" xlink:href="#m4524ace545" y="177.124215"/>
     <use style="fill:#ff0000;stroke:#ff0000;" x="201.165829" xlink:href="#m4524ace545" y="174.528"/>
     <use style="fill:#ff0000;stroke:#ff0000;" x="202.960402" xlink:href="#m4524ace545" y="170.633678"/>
     <use style="fill:#ff0000;stroke:#ff0000;" x="204.754975" xlink:href="#m4524ace545" y="178.422322"/>
     <use style="fill:#ff0000;stroke:#ff0000;" x="206.549548" xlink:href="#m4524ace545" y="169.335571"/>
     <use style="fill:#ff0000;stroke:#ff0000;" x="208.344121" xlink:href="#m4524ace545" y="175.177054"/>
     <use style="fill:#ff0000;stroke:#ff0000;" x="210.138693" xlink:href="#m4524ace545" y="173.229893"/>
     <use style="fill:#ff0000;stroke:#ff0000;" x="211.933266" xlink:href="#m4524ace545" y="177.124215"/>
     <use style="fill:#ff0000;stroke:#ff0000;" x="213.727839" xlink:href="#m4524ace545" y="175.177054"/>
     <use style="fill:#ff0000;stroke:#ff0000;" x="215.522412" xlink:href="#m4524ace545" y="179.071376"/>
     <use style="fill:#ff0000;stroke:#ff0000;" x="217.316985" xlink:href="#m4524ace545" y="167.38841"/>
     <use style="fill:#ff0000;stroke:#ff0000;" x="219.111558" xlink:href="#m4524ace545" y="173.229893"/>
     <use style="fill:#ff0000;stroke:#ff0000;" x="220.906131" xlink:href="#m4524ace545" y="175.177054"/>
     <use style="fill:#ff0000;stroke:#ff0000;" x="222.700704" xlink:href="#m4524ace545" y="171.931785"/>
     <use style="fill:#ff0000;stroke:#ff0000;" x="224.495276" xlink:href="#m4524ace545" y="177.773268"/>
     <use style="fill:#ff0000;stroke:#ff0000;" x="226.289849" xlink:href="#m4524ace545" y="188.158127"/>
     <use style="fill:#ff0000;stroke:#ff0000;" x="228.084422" xlink:href="#m4524ace545" y="174.528"/>
     <use style="fill:#ff0000;stroke:#ff0000;" x="229.878995" xlink:href="#m4524ace545" y="179.071376"/>
     <use style="fill:#ff0000;stroke:#ff0000;" x="231.673568" xlink:href="#m4524ace545" y="173.229893"/>
     <use style="fill:#ff0000;stroke:#ff0000;" x="233.468141" xlink:href="#m4524ace545" y="172.580839"/>
     <use style="fill:#ff0000;stroke:#ff0000;" x="235.262714" xlink:href="#m4524ace545" y="173.229893"/>
     <use style="fill:#ff0000;stroke:#ff0000;" x="237.057286" xlink:href="#m4524ace545" y="173.229893"/>
     <use style="fill:#ff0000;stroke:#ff0000;" x="238.851859" xlink:href="#m4524ace545" y="175.177054"/>
     <use style="fill:#ff0000;stroke:#ff0000;" x="240.646432" xlink:href="#m4524ace545" y="169.984624"/>
     <use style="fill:#ff0000;stroke:#ff0000;" x="242.441005" xlink:href="#m4524ace545" y="169.984624"/>
     <use style="fill:#ff0000;stroke:#ff0000;" x="244.235578" xlink:href="#m4524ace545" y="179.071376"/>
     <use style="fill:#ff0000;stroke:#ff0000;" x="246.030151" xlink:href="#m4524ace545" y="176.475161"/>
     <use style="fill:#ff0000;stroke:#ff0000;" x="247.824724" xlink:href="#m4524ace545" y="170.633678"/>
     <use style="fill:#ff0000;stroke:#ff0000;" x="249.619296" xlink:href="#m4524ace545" y="175.826107"/>
     <use style="fill:#ff0000;stroke:#ff0000;" x="251.413869" xlink:href="#m4524ace545" y="177.773268"/>
     <use style="fill:#ff0000;stroke:#ff0000;" x="253.208442" xlink:href="#m4524ace545" y="174.528"/>
     <use style="fill:#ff0000;stroke:#ff0000;" x="255.003015" xlink:href="#m4524ace545" y="174.528"/>
     <use style="fill:#ff0000;stroke:#ff0000;" x="256.797588" xlink:href="#m4524ace545" y="180.369483"/>
     <use style="fill:#ff0000;stroke:#ff0000;" x="258.592161" xlink:href="#m4524ace545" y="180.369483"/>
     <use style="fill:#ff0000;stroke:#ff0000;" x="260.386734" xlink:href="#m4524ace545" y="180.369483"/>
     <use style="fill:#ff0000;stroke:#ff0000;" x="262.181307" xlink:href="#m4524ace545" y="179.071376"/>
     <use style="fill:#ff0000;stroke:#ff0000;" x="263.975879" xlink:href="#m4524ace545" y="181.66759"/>
     <use style="fill:#ff0000;stroke:#ff0000;" x="265.770452" xlink:href="#m4524ace545" y="173.878946"/>
     <use style="fill:#ff0000;stroke:#ff0000;" x="267.565025" xlink:href="#m4524ace545" y="175.177054"/>
     <use style="fill:#ff0000;stroke:#ff0000;" x="269.359598" xlink:href="#m4524ace545" y="180.369483"/>
     <use style="fill:#ff0000;stroke:#ff0000;" x="271.154171" xlink:href="#m4524ace545" y="173.878946"/>
     <use style="fill:#ff0000;stroke:#ff0000;" x="272.948744" xlink:href="#m4524ace545" y="179.071376"/>
     <use style="fill:#ff0000;stroke:#ff0000;" x="274.743317" xlink:href="#m4524ace545" y="175.177054"/>
     <use style="fill:#ff0000;stroke:#ff0000;" x="276.537889" xlink:href="#m4524ace545" y="173.229893"/>
     <use style="fill:#ff0000;stroke:#ff0000;" x="278.332462" xlink:href="#m4524ace545" y="177.124215"/>
     <use style="fill:#ff0000;stroke:#ff0000;" x="280.127035" xlink:href="#m4524ace545" y="178.422322"/>
     <use style="fill:#ff0000;stroke:#ff0000;" x="281.921608" xlink:href="#m4524ace545" y="175.826107"/>
     <use style="fill:#ff0000;stroke:#ff0000;" x="283.716181" xlink:href="#m4524ace545" y="178.422322"/>
     <use style="fill:#ff0000;stroke:#ff0000;" x="285.510754" xlink:href="#m4524ace545" y="175.177054"/>
     <use style="fill:#ff0000;stroke:#ff0000;" x="287.305327" xlink:href="#m4524ace545" y="175.826107"/>
     <use style="fill:#ff0000;stroke:#ff0000;" x="289.099899" xlink:href="#m4524ace545" y="175.826107"/>
     <use style="fill:#ff0000;stroke:#ff0000;" x="290.894472" xlink:href="#m4524ace545" y="175.826107"/>
     <use style="fill:#ff0000;stroke:#ff0000;" x="292.689045" xlink:href="#m4524ace545" y="175.826107"/>
     <use style="fill:#ff0000;stroke:#ff0000;" x="294.483618" xlink:href="#m4524ace545" y="176.475161"/>
     <use style="fill:#ff0000;stroke:#ff0000;" x="296.278191" xlink:href="#m4524ace545" y="177.124215"/>
     <use style="fill:#ff0000;stroke:#ff0000;" x="298.072764" xlink:href="#m4524ace545" y="182.965698"/>
     <use style="fill:#ff0000;stroke:#ff0000;" x="299.867337" xlink:href="#m4524ace545" y="178.422322"/>
     <use style="fill:#ff0000;stroke:#ff0000;" x="301.66191" xlink:href="#m4524ace545" y="179.071376"/>
     <use style="fill:#ff0000;stroke:#ff0000;" x="303.456482" xlink:href="#m4524ace545" y="178.422322"/>
     <use style="fill:#ff0000;stroke:#ff0000;" x="305.251055" xlink:href="#m4524ace545" y="181.66759"/>
     <use style="fill:#ff0000;stroke:#ff0000;" x="307.045628" xlink:href="#m4524ace545" y="182.965698"/>
     <use style="fill:#ff0000;stroke:#ff0000;" x="308.840201" xlink:href="#m4524ace545" y="180.369483"/>
     <use style="fill:#ff0000;stroke:#ff0000;" x="310.634774" xlink:href="#m4524ace545" y="180.369483"/>
     <use style="fill:#ff0000;stroke:#ff0000;" x="312.429347" xlink:href="#m4524ace545" y="175.177054"/>
     <use style="fill:#ff0000;stroke:#ff0000;" x="314.22392" xlink:href="#m4524ace545" y="181.018537"/>
     <use style="fill:#ff0000;stroke:#ff0000;" x="316.018492" xlink:href="#m4524ace545" y="178.422322"/>
     <use style="fill:#ff0000;stroke:#ff0000;" x="317.813065" xlink:href="#m4524ace545" y="175.177054"/>
     <use style="fill:#ff0000;stroke:#ff0000;" x="319.607638" xlink:href="#m4524ace545" y="179.720429"/>
     <use style="fill:#ff0000;stroke:#ff0000;" x="321.402211" xlink:href="#m4524ace545" y="178.422322"/>
     <use style="fill:#ff0000;stroke:#ff0000;" x="323.196784" xlink:href="#m4524ace545" y="179.720429"/>
     <use style="fill:#ff0000;stroke:#ff0000;" x="324.991357" xlink:href="#m4524ace545" y="179.720429"/>
     <use style="fill:#ff0000;stroke:#ff0000;" x="326.78593" xlink:href="#m4524ace545" y="180.369483"/>
     <use style="fill:#ff0000;stroke:#ff0000;" x="328.580503" xlink:href="#m4524ace545" y="177.124215"/>
     <use style="fill:#ff0000;stroke:#ff0000;" x="330.375075" xlink:href="#m4524ace545" y="175.826107"/>
     <use style="fill:#ff0000;stroke:#ff0000;" x="332.169648" xlink:href="#m4524ace545" y="177.773268"/>
     <use style="fill:#ff0000;stroke:#ff0000;" x="333.964221" xlink:href="#m4524ace545" y="177.773268"/>
     <use style="fill:#ff0000;stroke:#ff0000;" x="335.758794" xlink:href="#m4524ace545" y="177.773268"/>
     <use style="fill:#ff0000;stroke:#ff0000;" x="337.553367" xlink:href="#m4524ace545" y="177.773268"/>
     <use style="fill:#ff0000;stroke:#ff0000;" x="339.34794" xlink:href="#m4524ace545" y="179.071376"/>
     <use style="fill:#ff0000;stroke:#ff0000;" x="341.142513" xlink:href="#m4524ace545" y="183.614751"/>
     <use style="fill:#ff0000;stroke:#ff0000;" x="342.937085" xlink:href="#m4524ace545" y="180.369483"/>
     <use style="fill:#ff0000;stroke:#ff0000;" x="344.731658" xlink:href="#m4524ace545" y="179.720429"/>
     <use style="fill:#ff0000;stroke:#ff0000;" x="346.526231" xlink:href="#m4524ace545" y="178.422322"/>
     <use style="fill:#ff0000;stroke:#ff0000;" x="348.320804" xlink:href="#m4524ace545" y="184.263805"/>
     <use style="fill:#ff0000;stroke:#ff0000;" x="350.115377" xlink:href="#m4524ace545" y="176.475161"/>
     <use style="fill:#ff0000;stroke:#ff0000;" x="351.90995" xlink:href="#m4524ace545" y="179.071376"/>
     <use style="fill:#ff0000;stroke:#ff0000;" x="353.704523" xlink:href="#m4524ace545" y="177.124215"/>
     <use style="fill:#ff0000;stroke:#ff0000;" x="355.499095" xlink:href="#m4524ace545" y="182.316644"/>
     <use style="fill:#ff0000;stroke:#ff0000;" x="357.293668" xlink:href="#m4524ace545" y="183.614751"/>
     <use style="fill:#ff0000;stroke:#ff0000;" x="359.088241" xlink:href="#m4524ace545" y="176.475161"/>
     <use style="fill:#ff0000;stroke:#ff0000;" x="360.882814" xlink:href="#m4524ace545" y="179.720429"/>
     <use style="fill:#ff0000;stroke:#ff0000;" x="362.677387" xlink:href="#m4524ace545" y="181.66759"/>
     <use style="fill:#ff0000;stroke:#ff0000;" x="364.47196" xlink:href="#m4524ace545" y="180.369483"/>
     <use style="fill:#ff0000;stroke:#ff0000;" x="366.266533" xlink:href="#m4524ace545" y="176.475161"/>
     <use style="fill:#ff0000;stroke:#ff0000;" x="368.061106" xlink:href="#m4524ace545" y="180.369483"/>
     <use style="fill:#ff0000;stroke:#ff0000;" x="369.855678" xlink:href="#m4524ace545" y="185.561912"/>
     <use style="fill:#ff0000;stroke:#ff0000;" x="371.650251" xlink:href="#m4524ace545" y="181.66759"/>
     <use style="fill:#ff0000;stroke:#ff0000;" x="373.444824" xlink:href="#m4524ace545" y="179.720429"/>
     <use style="fill:#ff0000;stroke:#ff0000;" x="375.239397" xlink:href="#m4524ace545" y="179.071376"/>
     <use style="fill:#ff0000;stroke:#ff0000;" x="377.03397" xlink:href="#m4524ace545" y="178.422322"/>
     <use style="fill:#ff0000;stroke:#ff0000;" x="378.828543" xlink:href="#m4524ace545" y="175.177054"/>
     <use style="fill:#ff0000;stroke:#ff0000;" x="380.623116" xlink:href="#m4524ace545" y="177.124215"/>
     <use style="fill:#ff0000;stroke:#ff0000;" x="382.417688" xlink:href="#m4524ace545" y="175.826107"/>
     <use style="fill:#ff0000;stroke:#ff0000;" x="384.212261" xlink:href="#m4524ace545" y="182.316644"/>
     <use style="fill:#ff0000;stroke:#ff0000;" x="386.006834" xlink:href="#m4524ace545" y="179.720429"/>
     <use style="fill:#ff0000;stroke:#ff0000;" x="387.801407" xlink:href="#m4524ace545" y="179.071376"/>
     <use style="fill:#ff0000;stroke:#ff0000;" x="389.59598" xlink:href="#m4524ace545" y="182.965698"/>
     <use style="fill:#ff0000;stroke:#ff0000;" x="391.390553" xlink:href="#m4524ace545" y="175.826107"/>
     <use style="fill:#ff0000;stroke:#ff0000;" x="393.185126" xlink:href="#m4524ace545" y="179.071376"/>
     <use style="fill:#ff0000;stroke:#ff0000;" x="394.979698" xlink:href="#m4524ace545" y="173.878946"/>
     <use style="fill:#ff0000;stroke:#ff0000;" x="396.774271" xlink:href="#m4524ace545" y="177.773268"/>
     <use style="fill:#ff0000;stroke:#ff0000;" x="398.568844" xlink:href="#m4524ace545" y="179.720429"/>
     <use style="fill:#ff0000;stroke:#ff0000;" x="400.363417" xlink:href="#m4524ace545" y="180.369483"/>
     <use style="fill:#ff0000;stroke:#ff0000;" x="402.15799" xlink:href="#m4524ace545" y="178.422322"/>
     <use style="fill:#ff0000;stroke:#ff0000;" x="403.952563" xlink:href="#m4524ace545" y="180.369483"/>
     <use style="fill:#ff0000;stroke:#ff0000;" x="405.747136" xlink:href="#m4524ace545" y="182.965698"/>
     <use style="fill:#ff0000;stroke:#ff0000;" x="407.541709" xlink:href="#m4524ace545" y="186.210966"/>
     <use style="fill:#ff0000;stroke:#ff0000;" x="409.336281" xlink:href="#m4524ace545" y="182.965698"/>
     <use style="fill:#ff0000;stroke:#ff0000;" x="411.130854" xlink:href="#m4524ace545" y="181.66759"/>
     <use style="fill:#ff0000;stroke:#ff0000;" x="412.925427" xlink:href="#m4524ace545" y="182.965698"/>
    </g>
   </g>
   <g id="patch_3">
    <path d="M 57.6 307.584 
L 57.6 41.472 
" style="fill:none;stroke:#000000;stroke-linecap:square;stroke-linejoin:miter;stroke-width:0.8;"/>
   </g>
   <g id="patch_4">
    <path d="M 414.72 307.584 
L 414.72 41.472 
" style="fill:none;stroke:#000000;stroke-linecap:square;stroke-linejoin:miter;stroke-width:0.8;"/>
   </g>
   <g id="patch_5">
    <path d="M 57.6 307.584 
L 414.72 307.584 
" style="fill:none;stroke:#000000;stroke-linecap:square;stroke-linejoin:miter;stroke-width:0.8;"/>
   </g>
   <g id="patch_6">
    <path d="M 57.6 41.472 
L 414.72 41.472 
" style="fill:none;stroke:#000000;stroke-linecap:square;stroke-linejoin:miter;stroke-width:0.8;"/>
   </g>
   <g id="text_20">
    <!-- GASIR - Genetic Algorithm for SIR Model - Melhor Caso -->
    <defs>
     <path d="M 34.1875 63.1875 
L 20.796875 26.90625 
L 47.609375 26.90625 
z
M 28.609375 72.90625 
L 39.796875 72.90625 
L 67.578125 0 
L 57.328125 0 
L 50.6875 18.703125 
L 17.828125 18.703125 
L 11.1875 0 
L 0.78125 0 
z
" id="DejaVuSans-41"/>
     <path d="M 53.515625 70.515625 
L 53.515625 60.890625 
Q 47.90625 63.578125 42.921875 64.890625 
Q 37.9375 66.21875 33.296875 66.21875 
Q 25.25 66.21875 20.875 63.09375 
Q 16.5 59.96875 16.5 54.203125 
Q 16.5 49.359375 19.40625 46.890625 
Q 22.3125 44.4375 30.421875 42.921875 
L 36.375 41.703125 
Q 47.40625 39.59375 52.65625 34.296875 
Q 57.90625 29 57.90625 20.125 
Q 57.90625 9.515625 50.796875 4.046875 
Q 43.703125 -1.421875 29.984375 -1.421875 
Q 24.8125 -1.421875 18.96875 -0.25 
Q 13.140625 0.921875 6.890625 3.21875 
L 6.890625 13.375 
Q 12.890625 10.015625 18.65625 8.296875 
Q 24.421875 6.59375 29.984375 6.59375 
Q 38.421875 6.59375 43.015625 9.90625 
Q 47.609375 13.234375 47.609375 19.390625 
Q 47.609375 24.75 44.3125 27.78125 
Q 41.015625 30.8125 33.5 32.328125 
L 27.484375 33.5 
Q 16.453125 35.6875 11.515625 40.375 
Q 6.59375 45.0625 6.59375 53.421875 
Q 6.59375 63.09375 13.40625 68.65625 
Q 20.21875 74.21875 32.171875 74.21875 
Q 37.3125 74.21875 42.625 73.28125 
Q 47.953125 72.359375 53.515625 70.515625 
" id="DejaVuSans-53"/>
     <path d="M 44.390625 34.1875 
Q 47.5625 33.109375 50.5625 29.59375 
Q 53.5625 26.078125 56.59375 19.921875 
L 66.609375 0 
L 56 0 
L 46.6875 18.703125 
Q 43.0625 26.03125 39.671875 28.421875 
Q 36.28125 30.8125 30.421875 30.8125 
L 19.671875 30.8125 
L 19.671875 0 
L 9.8125 0 
L 9.8125 72.90625 
L 32.078125 72.90625 
Q 44.578125 72.90625 50.734375 67.671875 
Q 56.890625 62.453125 56.890625 51.90625 
Q 56.890625 45.015625 53.6875 40.46875 
Q 50.484375 35.9375 44.390625 34.1875 
M 19.671875 64.796875 
L 19.671875 38.921875 
L 32.078125 38.921875 
Q 39.203125 38.921875 42.84375 42.21875 
Q 46.484375 45.515625 46.484375 51.90625 
Q 46.484375 58.296875 42.84375 61.546875 
Q 39.203125 64.796875 32.078125 64.796875 
z
" id="DejaVuSans-52"/>
     <path d="M 4.890625 31.390625 
L 31.203125 31.390625 
L 31.203125 23.390625 
L 4.890625 23.390625 
z
" id="DejaVuSans-2d"/>
     <path d="M 9.421875 75.984375 
L 18.40625 75.984375 
L 18.40625 0 
L 9.421875 0 
z
" id="DejaVuSans-6c"/>
     <path d="M 45.40625 27.984375 
Q 45.40625 37.75 41.375 43.109375 
Q 37.359375 48.484375 30.078125 48.484375 
Q 22.859375 48.484375 18.828125 43.109375 
Q 14.796875 37.75 14.796875 27.984375 
Q 14.796875 18.265625 18.828125 12.890625 
Q 22.859375 7.515625 30.078125 7.515625 
Q 37.359375 7.515625 41.375 12.890625 
Q 45.40625 18.265625 45.40625 27.984375 
M 54.390625 6.78125 
Q 54.390625 -7.171875 48.1875 -13.984375 
Q 42 -20.796875 29.203125 -20.796875 
Q 24.46875 -20.796875 20.265625 -20.09375 
Q 16.0625 -19.390625 12.109375 -17.921875 
L 12.109375 -9.1875 
Q 16.0625 -11.328125 19.921875 -12.34375 
Q 23.78125 -13.375 27.78125 -13.375 
Q 36.625 -13.375 41.015625 -8.765625 
Q 45.40625 -4.15625 45.40625 5.171875 
L 45.40625 9.625 
Q 42.625 4.78125 38.28125 2.390625 
Q 33.9375 0 27.875 0 
Q 17.828125 0 11.671875 7.65625 
Q 5.515625 15.328125 5.515625 27.984375 
Q 5.515625 40.671875 11.671875 48.328125 
Q 17.828125 56 27.875 56 
Q 33.9375 56 38.28125 53.609375 
Q 42.625 51.21875 45.40625 46.390625 
L 45.40625 54.6875 
L 54.390625 54.6875 
z
" id="DejaVuSans-67"/>
     <path d="M 54.890625 33.015625 
L 54.890625 0 
L 45.90625 0 
L 45.90625 32.71875 
Q 45.90625 40.484375 42.875 44.328125 
Q 39.84375 48.1875 33.796875 48.1875 
Q 26.515625 48.1875 22.3125 43.546875 
Q 18.109375 38.921875 18.109375 30.90625 
L 18.109375 0 
L 9.078125 0 
L 9.078125 75.984375 
L 18.109375 75.984375 
L 18.109375 46.1875 
Q 21.34375 51.125 25.703125 53.5625 
Q 30.078125 56 35.796875 56 
Q 45.21875 56 50.046875 50.171875 
Q 54.890625 44.34375 54.890625 33.015625 
" id="DejaVuSans-68"/>
     <path d="M 52 44.1875 
Q 55.375 50.25 60.0625 53.125 
Q 64.75 56 71.09375 56 
Q 79.640625 56 84.28125 50.015625 
Q 88.921875 44.046875 88.921875 33.015625 
L 88.921875 0 
L 79.890625 0 
L 79.890625 32.71875 
Q 79.890625 40.578125 77.09375 44.375 
Q 74.3125 48.1875 68.609375 48.1875 
Q 61.625 48.1875 57.5625 43.546875 
Q 53.515625 38.921875 53.515625 30.90625 
L 53.515625 0 
L 44.484375 0 
L 44.484375 32.71875 
Q 44.484375 40.625 41.703125 44.40625 
Q 38.921875 48.1875 33.109375 48.1875 
Q 26.21875 48.1875 22.15625 43.53125 
Q 18.109375 38.875 18.109375 30.90625 
L 18.109375 0 
L 9.078125 0 
L 9.078125 54.6875 
L 18.109375 54.6875 
L 18.109375 46.1875 
Q 21.1875 51.21875 25.484375 53.609375 
Q 29.78125 56 35.6875 56 
Q 41.65625 56 45.828125 52.96875 
Q 50 49.953125 52 44.1875 
" id="DejaVuSans-6d"/>
     <path d="M 9.8125 72.90625 
L 24.515625 72.90625 
L 43.109375 23.296875 
L 61.8125 72.90625 
L 76.515625 72.90625 
L 76.515625 0 
L 66.890625 0 
L 66.890625 64.015625 
L 48.09375 14.015625 
L 38.1875 14.015625 
L 19.390625 64.015625 
L 19.390625 0 
L 9.8125 0 
z
" id="DejaVuSans-4d"/>
     <path d="M 64.40625 67.28125 
L 64.40625 56.890625 
Q 59.421875 61.53125 53.78125 63.8125 
Q 48.140625 66.109375 41.796875 66.109375 
Q 29.296875 66.109375 22.65625 58.46875 
Q 16.015625 50.828125 16.015625 36.375 
Q 16.015625 21.96875 22.65625 14.328125 
Q 29.296875 6.6875 41.796875 6.6875 
Q 48.140625 6.6875 53.78125 8.984375 
Q 59.421875 11.28125 64.40625 15.921875 
L 64.40625 5.609375 
Q 59.234375 2.09375 53.4375 0.328125 
Q 47.65625 -1.421875 41.21875 -1.421875 
Q 24.65625 -1.421875 15.125 8.703125 
Q 5.609375 18.84375 5.609375 36.375 
Q 5.609375 53.953125 15.125 64.078125 
Q 24.65625 74.21875 41.21875 74.21875 
Q 47.75 74.21875 53.53125 72.484375 
Q 59.328125 70.75 64.40625 67.28125 
" id="DejaVuSans-43"/>
    </defs>
    <g transform="translate(72.47625 35.472)scale(0.12 -0.12)">
     <use xlink:href="#DejaVuSans-47"/>
     <use x="77.490234" xlink:href="#DejaVuSans-41"/>
     <use x="145.898438" xlink:href="#DejaVuSans-53"/>
     <use x="209.375" xlink:href="#DejaVuSans-49"/>
     <use x="238.867188" xlink:href="#DejaVuSans-52"/>
     <use x="308.349609" xlink:href="#DejaVuSans-20"/>
     <use x="340.136719" xlink:href="#DejaVuSans-2d"/>
     <use x="376.220703" xlink:href="#DejaVuSans-20"/>
     <use x="408.007812" xlink:href="#DejaVuSans-47"/>
     <use x="485.498047" xlink:href="#DejaVuSans-65"/>
     <use x="547.021484" xlink:href="#DejaVuSans-6e"/>
     <use x="610.400391" xlink:href="#DejaVuSans-65"/>
     <use x="671.923828" xlink:href="#DejaVuSans-74"/>
     <use x="711.132812" xlink:href="#DejaVuSans-69"/>
     <use x="738.916016" xlink:href="#DejaVuSans-63"/>
     <use x="793.896484" xlink:href="#DejaVuSans-20"/>
     <use x="825.683594" xlink:href="#DejaVuSans-41"/>
     <use x="894.091797" xlink:href="#DejaVuSans-6c"/>
     <use x="921.875" xlink:href="#DejaVuSans-67"/>
     <use x="985.351562" xlink:href="#DejaVuSans-6f"/>
     <use x="1046.533203" xlink:href="#DejaVuSans-72"/>
     <use x="1087.646484" xlink:href="#DejaVuSans-69"/>
     <use x="1115.429688" xlink:href="#DejaVuSans-74"/>
     <use x="1154.638672" xlink:href="#DejaVuSans-68"/>
     <use x="1218.017578" xlink:href="#DejaVuSans-6d"/>
     <use x="1315.429688" xlink:href="#DejaVuSans-20"/>
     <use x="1347.216797" xlink:href="#DejaVuSans-66"/>
     <use x="1382.421875" xlink:href="#DejaVuSans-6f"/>
     <use x="1443.603516" xlink:href="#DejaVuSans-72"/>
     <use x="1484.716797" xlink:href="#DejaVuSans-20"/>
     <use x="1516.503906" xlink:href="#DejaVuSans-53"/>
     <use x="1579.980469" xlink:href="#DejaVuSans-49"/>
     <use x="1609.472656" xlink:href="#DejaVuSans-52"/>
     <use x="1678.955078" xlink:href="#DejaVuSans-20"/>
     <use x="1710.742188" xlink:href="#DejaVuSans-4d"/>
     <use x="1797.021484" xlink:href="#DejaVuSans-6f"/>
     <use x="1858.203125" xlink:href="#DejaVuSans-64"/>
     <use x="1921.679688" xlink:href="#DejaVuSans-65"/>
     <use x="1983.203125" xlink:href="#DejaVuSans-6c"/>
     <use x="2010.986328" xlink:href="#DejaVuSans-20"/>
     <use x="2042.773438" xlink:href="#DejaVuSans-2d"/>
     <use x="2078.857422" xlink:href="#DejaVuSans-20"/>
     <use x="2110.644531" xlink:href="#DejaVuSans-4d"/>
     <use x="2196.923828" xlink:href="#DejaVuSans-65"/>
     <use x="2258.447266" xlink:href="#DejaVuSans-6c"/>
     <use x="2286.230469" xlink:href="#DejaVuSans-68"/>
     <use x="2349.609375" xlink:href="#DejaVuSans-6f"/>
     <use x="2410.791016" xlink:href="#DejaVuSans-72"/>
     <use x="2451.904297" xlink:href="#DejaVuSans-20"/>
     <use x="2483.691406" xlink:href="#DejaVuSans-43"/>
     <use x="2553.515625" xlink:href="#DejaVuSans-61"/>
     <use x="2614.794922" xlink:href="#DejaVuSans-73"/>
     <use x="2666.894531" xlink:href="#DejaVuSans-6f"/>
    </g>
   </g>
  </g>
 </g>
 <defs>
  <clipPath id="p4c1e7bcf36">
   <rect height="266.112" width="357.12" x="57.6" y="41.472"/>
  </clipPath>
 </defs>
</svg>
