<?xml version="1.0" encoding="utf-8" standalone="no"?>
<!DOCTYPE svg PUBLIC "-//W3C//DTD SVG 1.1//EN"
  "http://www.w3.org/Graphics/SVG/1.1/DTD/svg11.dtd">
<!-- Created with matplotlib (http://matplotlib.org/) -->
<svg height="432pt" version="1.1" viewBox="0 0 576 432" width="576pt" xmlns="http://www.w3.org/2000/svg" xmlns:xlink="http://www.w3.org/1999/xlink">
 <defs>
  <style type="text/css">
*{stroke-linecap:butt;stroke-linejoin:round;stroke-miterlimit:100000;}
  </style>
 </defs>
 <g id="figure_1">
  <g id="patch_1">
   <path d="M 0 432 
L 576 432 
L 576 0 
L 0 0 
z
" style="fill:#ffffff;"/>
  </g>
  <g id="axes_1">
   <g id="patch_2">
    <path d="M 72 388.8 
L 518.4 388.8 
L 518.4 43.2 
L 72 43.2 
z
" style="fill:#ffffff;"/>
   </g>
   <g id="line2d_1">
    <defs>
     <path d="M 0 3 
C 0.795609 3 1.55874 2.683901 2.12132 2.12132 
C 2.683901 1.55874 3 0.795609 3 0 
C 3 -0.795609 2.683901 -1.55874 2.12132 -2.12132 
C 1.55874 -2.683901 0.795609 -3 0 -3 
C -0.795609 -3 -1.55874 -2.683901 -2.12132 -2.12132 
C -2.683901 -1.55874 -3 -0.795609 -3 0 
C -3 0.795609 -2.683901 1.55874 -2.12132 2.12132 
C -1.55874 2.683901 -0.795609 3 0 3 
z
" id="mf0dfba2fe9" style="stroke:#000000;stroke-width:0.5;"/>
    </defs>
    <g clip-path="url(#p243e6f28be)">
     <use style="fill:#ff0000;stroke:#000000;stroke-width:0.5;" x="72.0" xlink:href="#mf0dfba2fe9" y="68.6652631579"/>
     <use style="fill:#ff0000;stroke:#000000;stroke-width:0.5;" x="76.5090909091" xlink:href="#mf0dfba2fe9" y="43.2"/>
     <use style="fill:#ff0000;stroke:#000000;stroke-width:0.5;" x="81.0181818182" xlink:href="#mf0dfba2fe9" y="94.1305263158"/>
     <use style="fill:#ff0000;stroke:#000000;stroke-width:0.5;" x="85.5272727273" xlink:href="#mf0dfba2fe9" y="61.3894736842"/>
     <use style="fill:#ff0000;stroke:#000000;stroke-width:0.5;" x="90.0363636364" xlink:href="#mf0dfba2fe9" y="72.3031578947"/>
     <use style="fill:#ff0000;stroke:#000000;stroke-width:0.5;" x="94.5454545455" xlink:href="#mf0dfba2fe9" y="72.3031578947"/>
     <use style="fill:#ff0000;stroke:#000000;stroke-width:0.5;" x="99.0545454545" xlink:href="#mf0dfba2fe9" y="68.6652631579"/>
     <use style="fill:#ff0000;stroke:#000000;stroke-width:0.5;" x="103.563636364" xlink:href="#mf0dfba2fe9" y="79.5789473684"/>
     <use style="fill:#ff0000;stroke:#000000;stroke-width:0.5;" x="108.072727273" xlink:href="#mf0dfba2fe9" y="90.4926315789"/>
     <use style="fill:#ff0000;stroke:#000000;stroke-width:0.5;" x="112.581818182" xlink:href="#mf0dfba2fe9" y="86.8547368421"/>
     <use style="fill:#ff0000;stroke:#000000;stroke-width:0.5;" x="117.090909091" xlink:href="#mf0dfba2fe9" y="83.2168421053"/>
     <use style="fill:#ff0000;stroke:#000000;stroke-width:0.5;" x="121.6" xlink:href="#mf0dfba2fe9" y="101.406315789"/>
     <use style="fill:#ff0000;stroke:#000000;stroke-width:0.5;" x="126.109090909" xlink:href="#mf0dfba2fe9" y="115.957894737"/>
     <use style="fill:#ff0000;stroke:#000000;stroke-width:0.5;" x="130.618181818" xlink:href="#mf0dfba2fe9" y="137.785263158"/>
     <use style="fill:#ff0000;stroke:#000000;stroke-width:0.5;" x="135.127272727" xlink:href="#mf0dfba2fe9" y="123.233684211"/>
     <use style="fill:#ff0000;stroke:#000000;stroke-width:0.5;" x="139.636363636" xlink:href="#mf0dfba2fe9" y="126.871578947"/>
     <use style="fill:#ff0000;stroke:#000000;stroke-width:0.5;" x="144.145454545" xlink:href="#mf0dfba2fe9" y="145.061052632"/>
     <use style="fill:#ff0000;stroke:#000000;stroke-width:0.5;" x="148.654545455" xlink:href="#mf0dfba2fe9" y="148.698947368"/>
     <use style="fill:#ff0000;stroke:#000000;stroke-width:0.5;" x="153.163636364" xlink:href="#mf0dfba2fe9" y="126.871578947"/>
     <use style="fill:#ff0000;stroke:#000000;stroke-width:0.5;" x="157.672727273" xlink:href="#mf0dfba2fe9" y="137.785263158"/>
     <use style="fill:#ff0000;stroke:#000000;stroke-width:0.5;" x="162.181818182" xlink:href="#mf0dfba2fe9" y="152.336842105"/>
     <use style="fill:#ff0000;stroke:#000000;stroke-width:0.5;" x="166.690909091" xlink:href="#mf0dfba2fe9" y="159.612631579"/>
     <use style="fill:#ff0000;stroke:#000000;stroke-width:0.5;" x="171.2" xlink:href="#mf0dfba2fe9" y="159.612631579"/>
     <use style="fill:#ff0000;stroke:#000000;stroke-width:0.5;" x="175.709090909" xlink:href="#mf0dfba2fe9" y="141.423157895"/>
     <use style="fill:#ff0000;stroke:#000000;stroke-width:0.5;" x="180.218181818" xlink:href="#mf0dfba2fe9" y="145.061052632"/>
     <use style="fill:#ff0000;stroke:#000000;stroke-width:0.5;" x="184.727272727" xlink:href="#mf0dfba2fe9" y="155.974736842"/>
     <use style="fill:#ff0000;stroke:#000000;stroke-width:0.5;" x="189.236363636" xlink:href="#mf0dfba2fe9" y="174.164210526"/>
     <use style="fill:#ff0000;stroke:#000000;stroke-width:0.5;" x="193.745454545" xlink:href="#mf0dfba2fe9" y="159.612631579"/>
     <use style="fill:#ff0000;stroke:#000000;stroke-width:0.5;" x="198.254545455" xlink:href="#mf0dfba2fe9" y="181.44"/>
     <use style="fill:#ff0000;stroke:#000000;stroke-width:0.5;" x="202.763636364" xlink:href="#mf0dfba2fe9" y="185.077894737"/>
     <use style="fill:#ff0000;stroke:#000000;stroke-width:0.5;" x="207.272727273" xlink:href="#mf0dfba2fe9" y="185.077894737"/>
     <use style="fill:#ff0000;stroke:#000000;stroke-width:0.5;" x="211.781818182" xlink:href="#mf0dfba2fe9" y="166.888421053"/>
     <use style="fill:#ff0000;stroke:#000000;stroke-width:0.5;" x="216.290909091" xlink:href="#mf0dfba2fe9" y="185.077894737"/>
     <use style="fill:#ff0000;stroke:#000000;stroke-width:0.5;" x="220.8" xlink:href="#mf0dfba2fe9" y="185.077894737"/>
     <use style="fill:#ff0000;stroke:#000000;stroke-width:0.5;" x="225.309090909" xlink:href="#mf0dfba2fe9" y="181.44"/>
     <use style="fill:#ff0000;stroke:#000000;stroke-width:0.5;" x="229.818181818" xlink:href="#mf0dfba2fe9" y="166.888421053"/>
     <use style="fill:#ff0000;stroke:#000000;stroke-width:0.5;" x="234.327272727" xlink:href="#mf0dfba2fe9" y="185.077894737"/>
     <use style="fill:#ff0000;stroke:#000000;stroke-width:0.5;" x="238.836363636" xlink:href="#mf0dfba2fe9" y="199.629473684"/>
     <use style="fill:#ff0000;stroke:#000000;stroke-width:0.5;" x="243.345454545" xlink:href="#mf0dfba2fe9" y="192.353684211"/>
     <use style="fill:#ff0000;stroke:#000000;stroke-width:0.5;" x="247.854545455" xlink:href="#mf0dfba2fe9" y="203.267368421"/>
     <use style="fill:#ff0000;stroke:#000000;stroke-width:0.5;" x="252.363636364" xlink:href="#mf0dfba2fe9" y="199.629473684"/>
     <use style="fill:#ff0000;stroke:#000000;stroke-width:0.5;" x="256.872727273" xlink:href="#mf0dfba2fe9" y="210.543157895"/>
     <use style="fill:#ff0000;stroke:#000000;stroke-width:0.5;" x="261.381818182" xlink:href="#mf0dfba2fe9" y="203.267368421"/>
     <use style="fill:#ff0000;stroke:#000000;stroke-width:0.5;" x="265.890909091" xlink:href="#mf0dfba2fe9" y="192.353684211"/>
     <use style="fill:#ff0000;stroke:#000000;stroke-width:0.5;" x="270.4" xlink:href="#mf0dfba2fe9" y="210.543157895"/>
     <use style="fill:#ff0000;stroke:#000000;stroke-width:0.5;" x="274.909090909" xlink:href="#mf0dfba2fe9" y="192.353684211"/>
     <use style="fill:#ff0000;stroke:#000000;stroke-width:0.5;" x="279.418181818" xlink:href="#mf0dfba2fe9" y="199.629473684"/>
     <use style="fill:#ff0000;stroke:#000000;stroke-width:0.5;" x="283.927272727" xlink:href="#mf0dfba2fe9" y="203.267368421"/>
     <use style="fill:#ff0000;stroke:#000000;stroke-width:0.5;" x="288.436363636" xlink:href="#mf0dfba2fe9" y="210.543157895"/>
     <use style="fill:#ff0000;stroke:#000000;stroke-width:0.5;" x="292.945454545" xlink:href="#mf0dfba2fe9" y="210.543157895"/>
     <use style="fill:#ff0000;stroke:#000000;stroke-width:0.5;" x="297.454545455" xlink:href="#mf0dfba2fe9" y="210.543157895"/>
     <use style="fill:#ff0000;stroke:#000000;stroke-width:0.5;" x="301.963636364" xlink:href="#mf0dfba2fe9" y="236.008421053"/>
     <use style="fill:#ff0000;stroke:#000000;stroke-width:0.5;" x="306.472727273" xlink:href="#mf0dfba2fe9" y="217.818947368"/>
     <use style="fill:#ff0000;stroke:#000000;stroke-width:0.5;" x="310.981818182" xlink:href="#mf0dfba2fe9" y="214.181052632"/>
     <use style="fill:#ff0000;stroke:#000000;stroke-width:0.5;" x="315.490909091" xlink:href="#mf0dfba2fe9" y="217.818947368"/>
     <use style="fill:#ff0000;stroke:#000000;stroke-width:0.5;" x="320.0" xlink:href="#mf0dfba2fe9" y="210.543157895"/>
     <use style="fill:#ff0000;stroke:#000000;stroke-width:0.5;" x="324.509090909" xlink:href="#mf0dfba2fe9" y="217.818947368"/>
     <use style="fill:#ff0000;stroke:#000000;stroke-width:0.5;" x="329.018181818" xlink:href="#mf0dfba2fe9" y="210.543157895"/>
     <use style="fill:#ff0000;stroke:#000000;stroke-width:0.5;" x="333.527272727" xlink:href="#mf0dfba2fe9" y="221.456842105"/>
     <use style="fill:#ff0000;stroke:#000000;stroke-width:0.5;" x="338.036363636" xlink:href="#mf0dfba2fe9" y="225.094736842"/>
     <use style="fill:#ff0000;stroke:#000000;stroke-width:0.5;" x="342.545454545" xlink:href="#mf0dfba2fe9" y="225.094736842"/>
     <use style="fill:#ff0000;stroke:#000000;stroke-width:0.5;" x="347.054545455" xlink:href="#mf0dfba2fe9" y="217.818947368"/>
     <use style="fill:#ff0000;stroke:#000000;stroke-width:0.5;" x="351.563636364" xlink:href="#mf0dfba2fe9" y="217.818947368"/>
     <use style="fill:#ff0000;stroke:#000000;stroke-width:0.5;" x="356.072727273" xlink:href="#mf0dfba2fe9" y="236.008421053"/>
     <use style="fill:#ff0000;stroke:#000000;stroke-width:0.5;" x="360.581818182" xlink:href="#mf0dfba2fe9" y="225.094736842"/>
     <use style="fill:#ff0000;stroke:#000000;stroke-width:0.5;" x="365.090909091" xlink:href="#mf0dfba2fe9" y="225.094736842"/>
     <use style="fill:#ff0000;stroke:#000000;stroke-width:0.5;" x="369.6" xlink:href="#mf0dfba2fe9" y="221.456842105"/>
     <use style="fill:#ff0000;stroke:#000000;stroke-width:0.5;" x="374.109090909" xlink:href="#mf0dfba2fe9" y="232.370526316"/>
     <use style="fill:#ff0000;stroke:#000000;stroke-width:0.5;" x="378.618181818" xlink:href="#mf0dfba2fe9" y="232.370526316"/>
     <use style="fill:#ff0000;stroke:#000000;stroke-width:0.5;" x="383.127272727" xlink:href="#mf0dfba2fe9" y="228.732631579"/>
     <use style="fill:#ff0000;stroke:#000000;stroke-width:0.5;" x="387.636363636" xlink:href="#mf0dfba2fe9" y="243.284210526"/>
     <use style="fill:#ff0000;stroke:#000000;stroke-width:0.5;" x="392.145454545" xlink:href="#mf0dfba2fe9" y="236.008421053"/>
     <use style="fill:#ff0000;stroke:#000000;stroke-width:0.5;" x="396.654545455" xlink:href="#mf0dfba2fe9" y="246.922105263"/>
     <use style="fill:#ff0000;stroke:#000000;stroke-width:0.5;" x="401.163636364" xlink:href="#mf0dfba2fe9" y="228.732631579"/>
     <use style="fill:#ff0000;stroke:#000000;stroke-width:0.5;" x="405.672727273" xlink:href="#mf0dfba2fe9" y="232.370526316"/>
     <use style="fill:#ff0000;stroke:#000000;stroke-width:0.5;" x="410.181818182" xlink:href="#mf0dfba2fe9" y="236.008421053"/>
     <use style="fill:#ff0000;stroke:#000000;stroke-width:0.5;" x="414.690909091" xlink:href="#mf0dfba2fe9" y="239.646315789"/>
     <use style="fill:#ff0000;stroke:#000000;stroke-width:0.5;" x="419.2" xlink:href="#mf0dfba2fe9" y="257.835789474"/>
     <use style="fill:#ff0000;stroke:#000000;stroke-width:0.5;" x="423.709090909" xlink:href="#mf0dfba2fe9" y="246.922105263"/>
     <use style="fill:#ff0000;stroke:#000000;stroke-width:0.5;" x="428.218181818" xlink:href="#mf0dfba2fe9" y="246.922105263"/>
     <use style="fill:#ff0000;stroke:#000000;stroke-width:0.5;" x="432.727272727" xlink:href="#mf0dfba2fe9" y="236.008421053"/>
     <use style="fill:#ff0000;stroke:#000000;stroke-width:0.5;" x="437.236363636" xlink:href="#mf0dfba2fe9" y="239.646315789"/>
     <use style="fill:#ff0000;stroke:#000000;stroke-width:0.5;" x="441.745454545" xlink:href="#mf0dfba2fe9" y="250.56"/>
     <use style="fill:#ff0000;stroke:#000000;stroke-width:0.5;" x="446.254545455" xlink:href="#mf0dfba2fe9" y="265.111578947"/>
     <use style="fill:#ff0000;stroke:#000000;stroke-width:0.5;" x="450.763636364" xlink:href="#mf0dfba2fe9" y="250.56"/>
     <use style="fill:#ff0000;stroke:#000000;stroke-width:0.5;" x="455.272727273" xlink:href="#mf0dfba2fe9" y="246.922105263"/>
     <use style="fill:#ff0000;stroke:#000000;stroke-width:0.5;" x="459.781818182" xlink:href="#mf0dfba2fe9" y="254.197894737"/>
     <use style="fill:#ff0000;stroke:#000000;stroke-width:0.5;" x="464.290909091" xlink:href="#mf0dfba2fe9" y="243.284210526"/>
     <use style="fill:#ff0000;stroke:#000000;stroke-width:0.5;" x="468.8" xlink:href="#mf0dfba2fe9" y="239.646315789"/>
     <use style="fill:#ff0000;stroke:#000000;stroke-width:0.5;" x="473.309090909" xlink:href="#mf0dfba2fe9" y="243.284210526"/>
     <use style="fill:#ff0000;stroke:#000000;stroke-width:0.5;" x="477.818181818" xlink:href="#mf0dfba2fe9" y="250.56"/>
     <use style="fill:#ff0000;stroke:#000000;stroke-width:0.5;" x="482.327272727" xlink:href="#mf0dfba2fe9" y="243.284210526"/>
     <use style="fill:#ff0000;stroke:#000000;stroke-width:0.5;" x="486.836363636" xlink:href="#mf0dfba2fe9" y="257.835789474"/>
     <use style="fill:#ff0000;stroke:#000000;stroke-width:0.5;" x="491.345454545" xlink:href="#mf0dfba2fe9" y="250.56"/>
     <use style="fill:#ff0000;stroke:#000000;stroke-width:0.5;" x="495.854545455" xlink:href="#mf0dfba2fe9" y="246.922105263"/>
     <use style="fill:#ff0000;stroke:#000000;stroke-width:0.5;" x="500.363636364" xlink:href="#mf0dfba2fe9" y="250.56"/>
     <use style="fill:#ff0000;stroke:#000000;stroke-width:0.5;" x="504.872727273" xlink:href="#mf0dfba2fe9" y="246.922105263"/>
     <use style="fill:#ff0000;stroke:#000000;stroke-width:0.5;" x="509.381818182" xlink:href="#mf0dfba2fe9" y="257.835789474"/>
     <use style="fill:#ff0000;stroke:#000000;stroke-width:0.5;" x="513.890909091" xlink:href="#mf0dfba2fe9" y="257.835789474"/>
    </g>
   </g>
   <g id="patch_3">
    <path d="M 72 43.2 
L 518.4 43.2 
" style="fill:none;stroke:#000000;stroke-linecap:square;stroke-linejoin:miter;"/>
   </g>
   <g id="patch_4">
    <path d="M 518.4 388.8 
L 518.4 43.2 
" style="fill:none;stroke:#000000;stroke-linecap:square;stroke-linejoin:miter;"/>
   </g>
   <g id="patch_5">
    <path d="M 72 388.8 
L 518.4 388.8 
" style="fill:none;stroke:#000000;stroke-linecap:square;stroke-linejoin:miter;"/>
   </g>
   <g id="patch_6">
    <path d="M 72 388.8 
L 72 43.2 
" style="fill:none;stroke:#000000;stroke-linecap:square;stroke-linejoin:miter;"/>
   </g>
   <g id="matplotlib.axis_1">
    <g id="xtick_1">
     <g id="line2d_2">
      <defs>
       <path d="M 0 0 
L 0 -4 
" id="ma365d340d8" style="stroke:#000000;stroke-width:0.5;"/>
      </defs>
      <g>
       <use style="stroke:#000000;stroke-width:0.5;" x="72.0" xlink:href="#ma365d340d8" y="388.8"/>
      </g>
     </g>
     <g id="line2d_3">
      <defs>
       <path d="M 0 0 
L 0 4 
" id="mc9917f10ac" style="stroke:#000000;stroke-width:0.5;"/>
      </defs>
      <g>
       <use style="stroke:#000000;stroke-width:0.5;" x="72.0" xlink:href="#mc9917f10ac" y="43.2"/>
      </g>
     </g>
     <g id="text_1">
      <!-- 0 -->
      <defs>
       <path d="M 31.78125 66.40625 
Q 24.171875 66.40625 20.328125 58.90625 
Q 16.5 51.421875 16.5 36.375 
Q 16.5 21.390625 20.328125 13.890625 
Q 24.171875 6.390625 31.78125 6.390625 
Q 39.453125 6.390625 43.28125 13.890625 
Q 47.125 21.390625 47.125 36.375 
Q 47.125 51.421875 43.28125 58.90625 
Q 39.453125 66.40625 31.78125 66.40625 
M 31.78125 74.21875 
Q 44.046875 74.21875 50.515625 64.515625 
Q 56.984375 54.828125 56.984375 36.375 
Q 56.984375 17.96875 50.515625 8.265625 
Q 44.046875 -1.421875 31.78125 -1.421875 
Q 19.53125 -1.421875 13.0625 8.265625 
Q 6.59375 17.96875 6.59375 36.375 
Q 6.59375 54.828125 13.0625 64.515625 
Q 19.53125 74.21875 31.78125 74.21875 
" id="BitstreamVeraSans-Roman-30"/>
      </defs>
      <g transform="translate(68.1825 401.918125)scale(0.12 -0.12)">
       <use xlink:href="#BitstreamVeraSans-Roman-30"/>
      </g>
     </g>
    </g>
    <g id="xtick_2">
     <g id="line2d_4">
      <g>
       <use style="stroke:#000000;stroke-width:0.5;" x="162.181818182" xlink:href="#ma365d340d8" y="388.8"/>
      </g>
     </g>
     <g id="line2d_5">
      <g>
       <use style="stroke:#000000;stroke-width:0.5;" x="162.181818182" xlink:href="#mc9917f10ac" y="43.2"/>
      </g>
     </g>
     <g id="text_2">
      <!-- 20 -->
      <defs>
       <path d="M 19.1875 8.296875 
L 53.609375 8.296875 
L 53.609375 0 
L 7.328125 0 
L 7.328125 8.296875 
Q 12.9375 14.109375 22.625 23.890625 
Q 32.328125 33.6875 34.8125 36.53125 
Q 39.546875 41.84375 41.421875 45.53125 
Q 43.3125 49.21875 43.3125 52.78125 
Q 43.3125 58.59375 39.234375 62.25 
Q 35.15625 65.921875 28.609375 65.921875 
Q 23.96875 65.921875 18.8125 64.3125 
Q 13.671875 62.703125 7.8125 59.421875 
L 7.8125 69.390625 
Q 13.765625 71.78125 18.9375 73 
Q 24.125 74.21875 28.421875 74.21875 
Q 39.75 74.21875 46.484375 68.546875 
Q 53.21875 62.890625 53.21875 53.421875 
Q 53.21875 48.921875 51.53125 44.890625 
Q 49.859375 40.875 45.40625 35.40625 
Q 44.1875 33.984375 37.640625 27.21875 
Q 31.109375 20.453125 19.1875 8.296875 
" id="BitstreamVeraSans-Roman-32"/>
      </defs>
      <g transform="translate(154.546818182 401.918125)scale(0.12 -0.12)">
       <use xlink:href="#BitstreamVeraSans-Roman-32"/>
       <use x="63.623046875" xlink:href="#BitstreamVeraSans-Roman-30"/>
      </g>
     </g>
    </g>
    <g id="xtick_3">
     <g id="line2d_6">
      <g>
       <use style="stroke:#000000;stroke-width:0.5;" x="252.363636364" xlink:href="#ma365d340d8" y="388.8"/>
      </g>
     </g>
     <g id="line2d_7">
      <g>
       <use style="stroke:#000000;stroke-width:0.5;" x="252.363636364" xlink:href="#mc9917f10ac" y="43.2"/>
      </g>
     </g>
     <g id="text_3">
      <!-- 40 -->
      <defs>
       <path d="M 37.796875 64.3125 
L 12.890625 25.390625 
L 37.796875 25.390625 
z
M 35.203125 72.90625 
L 47.609375 72.90625 
L 47.609375 25.390625 
L 58.015625 25.390625 
L 58.015625 17.1875 
L 47.609375 17.1875 
L 47.609375 0 
L 37.796875 0 
L 37.796875 17.1875 
L 4.890625 17.1875 
L 4.890625 26.703125 
z
" id="BitstreamVeraSans-Roman-34"/>
      </defs>
      <g transform="translate(244.728636364 401.918125)scale(0.12 -0.12)">
       <use xlink:href="#BitstreamVeraSans-Roman-34"/>
       <use x="63.623046875" xlink:href="#BitstreamVeraSans-Roman-30"/>
      </g>
     </g>
    </g>
    <g id="xtick_4">
     <g id="line2d_8">
      <g>
       <use style="stroke:#000000;stroke-width:0.5;" x="342.545454545" xlink:href="#ma365d340d8" y="388.8"/>
      </g>
     </g>
     <g id="line2d_9">
      <g>
       <use style="stroke:#000000;stroke-width:0.5;" x="342.545454545" xlink:href="#mc9917f10ac" y="43.2"/>
      </g>
     </g>
     <g id="text_4">
      <!-- 60 -->
      <defs>
       <path d="M 33.015625 40.375 
Q 26.375 40.375 22.484375 35.828125 
Q 18.609375 31.296875 18.609375 23.390625 
Q 18.609375 15.53125 22.484375 10.953125 
Q 26.375 6.390625 33.015625 6.390625 
Q 39.65625 6.390625 43.53125 10.953125 
Q 47.40625 15.53125 47.40625 23.390625 
Q 47.40625 31.296875 43.53125 35.828125 
Q 39.65625 40.375 33.015625 40.375 
M 52.59375 71.296875 
L 52.59375 62.3125 
Q 48.875 64.0625 45.09375 64.984375 
Q 41.3125 65.921875 37.59375 65.921875 
Q 27.828125 65.921875 22.671875 59.328125 
Q 17.53125 52.734375 16.796875 39.40625 
Q 19.671875 43.65625 24.015625 45.921875 
Q 28.375 48.1875 33.59375 48.1875 
Q 44.578125 48.1875 50.953125 41.515625 
Q 57.328125 34.859375 57.328125 23.390625 
Q 57.328125 12.15625 50.6875 5.359375 
Q 44.046875 -1.421875 33.015625 -1.421875 
Q 20.359375 -1.421875 13.671875 8.265625 
Q 6.984375 17.96875 6.984375 36.375 
Q 6.984375 53.65625 15.1875 63.9375 
Q 23.390625 74.21875 37.203125 74.21875 
Q 40.921875 74.21875 44.703125 73.484375 
Q 48.484375 72.75 52.59375 71.296875 
" id="BitstreamVeraSans-Roman-36"/>
      </defs>
      <g transform="translate(334.910454545 401.918125)scale(0.12 -0.12)">
       <use xlink:href="#BitstreamVeraSans-Roman-36"/>
       <use x="63.623046875" xlink:href="#BitstreamVeraSans-Roman-30"/>
      </g>
     </g>
    </g>
    <g id="xtick_5">
     <g id="line2d_10">
      <g>
       <use style="stroke:#000000;stroke-width:0.5;" x="432.727272727" xlink:href="#ma365d340d8" y="388.8"/>
      </g>
     </g>
     <g id="line2d_11">
      <g>
       <use style="stroke:#000000;stroke-width:0.5;" x="432.727272727" xlink:href="#mc9917f10ac" y="43.2"/>
      </g>
     </g>
     <g id="text_5">
      <!-- 80 -->
      <defs>
       <path d="M 31.78125 34.625 
Q 24.75 34.625 20.71875 30.859375 
Q 16.703125 27.09375 16.703125 20.515625 
Q 16.703125 13.921875 20.71875 10.15625 
Q 24.75 6.390625 31.78125 6.390625 
Q 38.8125 6.390625 42.859375 10.171875 
Q 46.921875 13.96875 46.921875 20.515625 
Q 46.921875 27.09375 42.890625 30.859375 
Q 38.875 34.625 31.78125 34.625 
M 21.921875 38.8125 
Q 15.578125 40.375 12.03125 44.71875 
Q 8.5 49.078125 8.5 55.328125 
Q 8.5 64.0625 14.71875 69.140625 
Q 20.953125 74.21875 31.78125 74.21875 
Q 42.671875 74.21875 48.875 69.140625 
Q 55.078125 64.0625 55.078125 55.328125 
Q 55.078125 49.078125 51.53125 44.71875 
Q 48 40.375 41.703125 38.8125 
Q 48.828125 37.15625 52.796875 32.3125 
Q 56.78125 27.484375 56.78125 20.515625 
Q 56.78125 9.90625 50.3125 4.234375 
Q 43.84375 -1.421875 31.78125 -1.421875 
Q 19.734375 -1.421875 13.25 4.234375 
Q 6.78125 9.90625 6.78125 20.515625 
Q 6.78125 27.484375 10.78125 32.3125 
Q 14.796875 37.15625 21.921875 38.8125 
M 18.3125 54.390625 
Q 18.3125 48.734375 21.84375 45.5625 
Q 25.390625 42.390625 31.78125 42.390625 
Q 38.140625 42.390625 41.71875 45.5625 
Q 45.3125 48.734375 45.3125 54.390625 
Q 45.3125 60.0625 41.71875 63.234375 
Q 38.140625 66.40625 31.78125 66.40625 
Q 25.390625 66.40625 21.84375 63.234375 
Q 18.3125 60.0625 18.3125 54.390625 
" id="BitstreamVeraSans-Roman-38"/>
      </defs>
      <g transform="translate(425.092272727 401.918125)scale(0.12 -0.12)">
       <use xlink:href="#BitstreamVeraSans-Roman-38"/>
       <use x="63.623046875" xlink:href="#BitstreamVeraSans-Roman-30"/>
      </g>
     </g>
    </g>
    <g id="text_6">
     <!-- Geracoes -->
     <defs>
      <path d="M 41.109375 46.296875 
Q 39.59375 47.171875 37.8125 47.578125 
Q 36.03125 48 33.890625 48 
Q 26.265625 48 22.1875 43.046875 
Q 18.109375 38.09375 18.109375 28.8125 
L 18.109375 0 
L 9.078125 0 
L 9.078125 54.6875 
L 18.109375 54.6875 
L 18.109375 46.1875 
Q 20.953125 51.171875 25.484375 53.578125 
Q 30.03125 56 36.53125 56 
Q 37.453125 56 38.578125 55.875 
Q 39.703125 55.765625 41.0625 55.515625 
z
" id="BitstreamVeraSans-Roman-72"/>
      <path d="M 30.609375 48.390625 
Q 23.390625 48.390625 19.1875 42.75 
Q 14.984375 37.109375 14.984375 27.296875 
Q 14.984375 17.484375 19.15625 11.84375 
Q 23.34375 6.203125 30.609375 6.203125 
Q 37.796875 6.203125 41.984375 11.859375 
Q 46.1875 17.53125 46.1875 27.296875 
Q 46.1875 37.015625 41.984375 42.703125 
Q 37.796875 48.390625 30.609375 48.390625 
M 30.609375 56 
Q 42.328125 56 49.015625 48.375 
Q 55.71875 40.765625 55.71875 27.296875 
Q 55.71875 13.875 49.015625 6.21875 
Q 42.328125 -1.421875 30.609375 -1.421875 
Q 18.84375 -1.421875 12.171875 6.21875 
Q 5.515625 13.875 5.515625 27.296875 
Q 5.515625 40.765625 12.171875 48.375 
Q 18.84375 56 30.609375 56 
" id="BitstreamVeraSans-Roman-6f"/>
      <path d="M 59.515625 10.40625 
L 59.515625 29.984375 
L 43.40625 29.984375 
L 43.40625 38.09375 
L 69.28125 38.09375 
L 69.28125 6.78125 
Q 63.578125 2.734375 56.6875 0.65625 
Q 49.8125 -1.421875 42 -1.421875 
Q 24.90625 -1.421875 15.25 8.5625 
Q 5.609375 18.5625 5.609375 36.375 
Q 5.609375 54.25 15.25 64.234375 
Q 24.90625 74.21875 42 74.21875 
Q 49.125 74.21875 55.546875 72.453125 
Q 61.96875 70.703125 67.390625 67.28125 
L 67.390625 56.78125 
Q 61.921875 61.421875 55.765625 63.765625 
Q 49.609375 66.109375 42.828125 66.109375 
Q 29.4375 66.109375 22.71875 58.640625 
Q 16.015625 51.171875 16.015625 36.375 
Q 16.015625 21.625 22.71875 14.15625 
Q 29.4375 6.6875 42.828125 6.6875 
Q 48.046875 6.6875 52.140625 7.59375 
Q 56.25 8.5 59.515625 10.40625 
" id="BitstreamVeraSans-Roman-47"/>
      <path d="M 56.203125 29.59375 
L 56.203125 25.203125 
L 14.890625 25.203125 
Q 15.484375 15.921875 20.484375 11.0625 
Q 25.484375 6.203125 34.421875 6.203125 
Q 39.59375 6.203125 44.453125 7.46875 
Q 49.3125 8.734375 54.109375 11.28125 
L 54.109375 2.78125 
Q 49.265625 0.734375 44.1875 -0.34375 
Q 39.109375 -1.421875 33.890625 -1.421875 
Q 20.796875 -1.421875 13.15625 6.1875 
Q 5.515625 13.8125 5.515625 26.8125 
Q 5.515625 40.234375 12.765625 48.109375 
Q 20.015625 56 32.328125 56 
Q 43.359375 56 49.78125 48.890625 
Q 56.203125 41.796875 56.203125 29.59375 
M 47.21875 32.234375 
Q 47.125 39.59375 43.09375 43.984375 
Q 39.0625 48.390625 32.421875 48.390625 
Q 24.90625 48.390625 20.390625 44.140625 
Q 15.875 39.890625 15.1875 32.171875 
z
" id="BitstreamVeraSans-Roman-65"/>
      <path d="M 34.28125 27.484375 
Q 23.390625 27.484375 19.1875 25 
Q 14.984375 22.515625 14.984375 16.5 
Q 14.984375 11.71875 18.140625 8.90625 
Q 21.296875 6.109375 26.703125 6.109375 
Q 34.1875 6.109375 38.703125 11.40625 
Q 43.21875 16.703125 43.21875 25.484375 
L 43.21875 27.484375 
z
M 52.203125 31.203125 
L 52.203125 0 
L 43.21875 0 
L 43.21875 8.296875 
Q 40.140625 3.328125 35.546875 0.953125 
Q 30.953125 -1.421875 24.3125 -1.421875 
Q 15.921875 -1.421875 10.953125 3.296875 
Q 6 8.015625 6 15.921875 
Q 6 25.140625 12.171875 29.828125 
Q 18.359375 34.515625 30.609375 34.515625 
L 43.21875 34.515625 
L 43.21875 35.40625 
Q 43.21875 41.609375 39.140625 45 
Q 35.0625 48.390625 27.6875 48.390625 
Q 23 48.390625 18.546875 47.265625 
Q 14.109375 46.140625 10.015625 43.890625 
L 10.015625 52.203125 
Q 14.9375 54.109375 19.578125 55.046875 
Q 24.21875 56 28.609375 56 
Q 40.484375 56 46.34375 49.84375 
Q 52.203125 43.703125 52.203125 31.203125 
" id="BitstreamVeraSans-Roman-61"/>
      <path d="M 44.28125 53.078125 
L 44.28125 44.578125 
Q 40.484375 46.53125 36.375 47.5 
Q 32.28125 48.484375 27.875 48.484375 
Q 21.1875 48.484375 17.84375 46.4375 
Q 14.5 44.390625 14.5 40.28125 
Q 14.5 37.15625 16.890625 35.375 
Q 19.28125 33.59375 26.515625 31.984375 
L 29.59375 31.296875 
Q 39.15625 29.25 43.1875 25.515625 
Q 47.21875 21.78125 47.21875 15.09375 
Q 47.21875 7.46875 41.1875 3.015625 
Q 35.15625 -1.421875 24.609375 -1.421875 
Q 20.21875 -1.421875 15.453125 -0.5625 
Q 10.6875 0.296875 5.421875 2 
L 5.421875 11.28125 
Q 10.40625 8.6875 15.234375 7.390625 
Q 20.0625 6.109375 24.8125 6.109375 
Q 31.15625 6.109375 34.5625 8.28125 
Q 37.984375 10.453125 37.984375 14.40625 
Q 37.984375 18.0625 35.515625 20.015625 
Q 33.0625 21.96875 24.703125 23.78125 
L 21.578125 24.515625 
Q 13.234375 26.265625 9.515625 29.90625 
Q 5.8125 33.546875 5.8125 39.890625 
Q 5.8125 47.609375 11.28125 51.796875 
Q 16.75 56 26.8125 56 
Q 31.78125 56 36.171875 55.265625 
Q 40.578125 54.546875 44.28125 53.078125 
" id="BitstreamVeraSans-Roman-73"/>
      <path d="M 48.78125 52.59375 
L 48.78125 44.1875 
Q 44.96875 46.296875 41.140625 47.34375 
Q 37.3125 48.390625 33.40625 48.390625 
Q 24.65625 48.390625 19.8125 42.84375 
Q 14.984375 37.3125 14.984375 27.296875 
Q 14.984375 17.28125 19.8125 11.734375 
Q 24.65625 6.203125 33.40625 6.203125 
Q 37.3125 6.203125 41.140625 7.25 
Q 44.96875 8.296875 48.78125 10.40625 
L 48.78125 2.09375 
Q 45.015625 0.34375 40.984375 -0.53125 
Q 36.96875 -1.421875 32.421875 -1.421875 
Q 20.0625 -1.421875 12.78125 6.34375 
Q 5.515625 14.109375 5.515625 27.296875 
Q 5.515625 40.671875 12.859375 48.328125 
Q 20.21875 56 33.015625 56 
Q 37.15625 56 41.109375 55.140625 
Q 45.0625 54.296875 48.78125 52.59375 
" id="BitstreamVeraSans-Roman-63"/>
     </defs>
     <g transform="translate(266.9278125 418.531875)scale(0.12 -0.12)">
      <use xlink:href="#BitstreamVeraSans-Roman-47"/>
      <use x="77.490234375" xlink:href="#BitstreamVeraSans-Roman-65"/>
      <use x="139.013671875" xlink:href="#BitstreamVeraSans-Roman-72"/>
      <use x="180.126953125" xlink:href="#BitstreamVeraSans-Roman-61"/>
      <use x="241.40625" xlink:href="#BitstreamVeraSans-Roman-63"/>
      <use x="296.38671875" xlink:href="#BitstreamVeraSans-Roman-6f"/>
      <use x="357.568359375" xlink:href="#BitstreamVeraSans-Roman-65"/>
      <use x="419.091796875" xlink:href="#BitstreamVeraSans-Roman-73"/>
     </g>
    </g>
   </g>
   <g id="matplotlib.axis_2">
    <g id="ytick_1">
     <g id="line2d_12">
      <defs>
       <path d="M 0 0 
L 4 0 
" id="maf455964aa" style="stroke:#000000;stroke-width:0.5;"/>
      </defs>
      <g>
       <use style="stroke:#000000;stroke-width:0.5;" x="72.0" xlink:href="#maf455964aa" y="388.8"/>
      </g>
     </g>
     <g id="line2d_13">
      <defs>
       <path d="M 0 0 
L -4 0 
" id="m178ddb2aa3" style="stroke:#000000;stroke-width:0.5;"/>
      </defs>
      <g>
       <use style="stroke:#000000;stroke-width:0.5;" x="518.4" xlink:href="#m178ddb2aa3" y="388.8"/>
      </g>
     </g>
     <g id="text_7">
      <!-- 0 -->
      <g transform="translate(60.365 392.11125)scale(0.12 -0.12)">
       <use xlink:href="#BitstreamVeraSans-Roman-30"/>
      </g>
     </g>
    </g>
    <g id="ytick_2">
     <g id="line2d_14">
      <g>
       <use style="stroke:#000000;stroke-width:0.5;" x="72.0" xlink:href="#maf455964aa" y="316.042105263"/>
      </g>
     </g>
     <g id="line2d_15">
      <g>
       <use style="stroke:#000000;stroke-width:0.5;" x="518.4" xlink:href="#m178ddb2aa3" y="316.042105263"/>
      </g>
     </g>
     <g id="text_8">
      <!-- 20 -->
      <g transform="translate(52.73 319.353355263)scale(0.12 -0.12)">
       <use xlink:href="#BitstreamVeraSans-Roman-32"/>
       <use x="63.623046875" xlink:href="#BitstreamVeraSans-Roman-30"/>
      </g>
     </g>
    </g>
    <g id="ytick_3">
     <g id="line2d_16">
      <g>
       <use style="stroke:#000000;stroke-width:0.5;" x="72.0" xlink:href="#maf455964aa" y="243.284210526"/>
      </g>
     </g>
     <g id="line2d_17">
      <g>
       <use style="stroke:#000000;stroke-width:0.5;" x="518.4" xlink:href="#m178ddb2aa3" y="243.284210526"/>
      </g>
     </g>
     <g id="text_9">
      <!-- 40 -->
      <g transform="translate(52.73 246.595460526)scale(0.12 -0.12)">
       <use xlink:href="#BitstreamVeraSans-Roman-34"/>
       <use x="63.623046875" xlink:href="#BitstreamVeraSans-Roman-30"/>
      </g>
     </g>
    </g>
    <g id="ytick_4">
     <g id="line2d_18">
      <g>
       <use style="stroke:#000000;stroke-width:0.5;" x="72.0" xlink:href="#maf455964aa" y="170.526315789"/>
      </g>
     </g>
     <g id="line2d_19">
      <g>
       <use style="stroke:#000000;stroke-width:0.5;" x="518.4" xlink:href="#m178ddb2aa3" y="170.526315789"/>
      </g>
     </g>
     <g id="text_10">
      <!-- 60 -->
      <g transform="translate(52.73 173.837565789)scale(0.12 -0.12)">
       <use xlink:href="#BitstreamVeraSans-Roman-36"/>
       <use x="63.623046875" xlink:href="#BitstreamVeraSans-Roman-30"/>
      </g>
     </g>
    </g>
    <g id="ytick_5">
     <g id="line2d_20">
      <g>
       <use style="stroke:#000000;stroke-width:0.5;" x="72.0" xlink:href="#maf455964aa" y="97.7684210526"/>
      </g>
     </g>
     <g id="line2d_21">
      <g>
       <use style="stroke:#000000;stroke-width:0.5;" x="518.4" xlink:href="#m178ddb2aa3" y="97.7684210526"/>
      </g>
     </g>
     <g id="text_11">
      <!-- 80 -->
      <g transform="translate(52.73 101.079671053)scale(0.12 -0.12)">
       <use xlink:href="#BitstreamVeraSans-Roman-38"/>
       <use x="63.623046875" xlink:href="#BitstreamVeraSans-Roman-30"/>
      </g>
     </g>
    </g>
    <g id="text_12">
     <!-- Individuos Infectados -->
     <defs>
      <path id="BitstreamVeraSans-Roman-20"/>
      <path d="M 37.109375 75.984375 
L 37.109375 68.5 
L 28.515625 68.5 
Q 23.6875 68.5 21.796875 66.546875 
Q 19.921875 64.59375 19.921875 59.515625 
L 19.921875 54.6875 
L 34.71875 54.6875 
L 34.71875 47.703125 
L 19.921875 47.703125 
L 19.921875 0 
L 10.890625 0 
L 10.890625 47.703125 
L 2.296875 47.703125 
L 2.296875 54.6875 
L 10.890625 54.6875 
L 10.890625 58.5 
Q 10.890625 67.625 15.140625 71.796875 
Q 19.390625 75.984375 28.609375 75.984375 
z
" id="BitstreamVeraSans-Roman-66"/>
      <path d="M 54.890625 33.015625 
L 54.890625 0 
L 45.90625 0 
L 45.90625 32.71875 
Q 45.90625 40.484375 42.875 44.328125 
Q 39.84375 48.1875 33.796875 48.1875 
Q 26.515625 48.1875 22.3125 43.546875 
Q 18.109375 38.921875 18.109375 30.90625 
L 18.109375 0 
L 9.078125 0 
L 9.078125 54.6875 
L 18.109375 54.6875 
L 18.109375 46.1875 
Q 21.34375 51.125 25.703125 53.5625 
Q 30.078125 56 35.796875 56 
Q 45.21875 56 50.046875 50.171875 
Q 54.890625 44.34375 54.890625 33.015625 
" id="BitstreamVeraSans-Roman-6e"/>
      <path d="M 9.421875 54.6875 
L 18.40625 54.6875 
L 18.40625 0 
L 9.421875 0 
z
M 9.421875 75.984375 
L 18.40625 75.984375 
L 18.40625 64.59375 
L 9.421875 64.59375 
z
" id="BitstreamVeraSans-Roman-69"/>
      <path d="M 2.984375 54.6875 
L 12.5 54.6875 
L 29.59375 8.796875 
L 46.6875 54.6875 
L 56.203125 54.6875 
L 35.6875 0 
L 23.484375 0 
z
" id="BitstreamVeraSans-Roman-76"/>
      <path d="M 45.40625 46.390625 
L 45.40625 75.984375 
L 54.390625 75.984375 
L 54.390625 0 
L 45.40625 0 
L 45.40625 8.203125 
Q 42.578125 3.328125 38.25 0.953125 
Q 33.9375 -1.421875 27.875 -1.421875 
Q 17.96875 -1.421875 11.734375 6.484375 
Q 5.515625 14.40625 5.515625 27.296875 
Q 5.515625 40.1875 11.734375 48.09375 
Q 17.96875 56 27.875 56 
Q 33.9375 56 38.25 53.625 
Q 42.578125 51.265625 45.40625 46.390625 
M 14.796875 27.296875 
Q 14.796875 17.390625 18.875 11.75 
Q 22.953125 6.109375 30.078125 6.109375 
Q 37.203125 6.109375 41.296875 11.75 
Q 45.40625 17.390625 45.40625 27.296875 
Q 45.40625 37.203125 41.296875 42.84375 
Q 37.203125 48.484375 30.078125 48.484375 
Q 22.953125 48.484375 18.875 42.84375 
Q 14.796875 37.203125 14.796875 27.296875 
" id="BitstreamVeraSans-Roman-64"/>
      <path d="M 18.3125 70.21875 
L 18.3125 54.6875 
L 36.8125 54.6875 
L 36.8125 47.703125 
L 18.3125 47.703125 
L 18.3125 18.015625 
Q 18.3125 11.328125 20.140625 9.421875 
Q 21.96875 7.515625 27.59375 7.515625 
L 36.8125 7.515625 
L 36.8125 0 
L 27.59375 0 
Q 17.1875 0 13.234375 3.875 
Q 9.28125 7.765625 9.28125 18.015625 
L 9.28125 47.703125 
L 2.6875 47.703125 
L 2.6875 54.6875 
L 9.28125 54.6875 
L 9.28125 70.21875 
z
" id="BitstreamVeraSans-Roman-74"/>
      <path d="M 8.5 21.578125 
L 8.5 54.6875 
L 17.484375 54.6875 
L 17.484375 21.921875 
Q 17.484375 14.15625 20.5 10.265625 
Q 23.53125 6.390625 29.59375 6.390625 
Q 36.859375 6.390625 41.078125 11.03125 
Q 45.3125 15.671875 45.3125 23.6875 
L 45.3125 54.6875 
L 54.296875 54.6875 
L 54.296875 0 
L 45.3125 0 
L 45.3125 8.40625 
Q 42.046875 3.421875 37.71875 1 
Q 33.40625 -1.421875 27.6875 -1.421875 
Q 18.265625 -1.421875 13.375 4.4375 
Q 8.5 10.296875 8.5 21.578125 
" id="BitstreamVeraSans-Roman-75"/>
      <path d="M 9.8125 72.90625 
L 19.671875 72.90625 
L 19.671875 0 
L 9.8125 0 
z
" id="BitstreamVeraSans-Roman-49"/>
     </defs>
     <g transform="translate(45.234375 279.8925)rotate(-90.0)scale(0.12 -0.12)">
      <use xlink:href="#BitstreamVeraSans-Roman-49"/>
      <use x="29.4921875" xlink:href="#BitstreamVeraSans-Roman-6e"/>
      <use x="92.87109375" xlink:href="#BitstreamVeraSans-Roman-64"/>
      <use x="156.34765625" xlink:href="#BitstreamVeraSans-Roman-69"/>
      <use x="184.130859375" xlink:href="#BitstreamVeraSans-Roman-76"/>
      <use x="243.310546875" xlink:href="#BitstreamVeraSans-Roman-69"/>
      <use x="271.09375" xlink:href="#BitstreamVeraSans-Roman-64"/>
      <use x="334.5703125" xlink:href="#BitstreamVeraSans-Roman-75"/>
      <use x="397.94921875" xlink:href="#BitstreamVeraSans-Roman-6f"/>
      <use x="459.130859375" xlink:href="#BitstreamVeraSans-Roman-73"/>
      <use x="511.23046875" xlink:href="#BitstreamVeraSans-Roman-20"/>
      <use x="543.017578125" xlink:href="#BitstreamVeraSans-Roman-49"/>
      <use x="572.509765625" xlink:href="#BitstreamVeraSans-Roman-6e"/>
      <use x="635.888671875" xlink:href="#BitstreamVeraSans-Roman-66"/>
      <use x="671.09375" xlink:href="#BitstreamVeraSans-Roman-65"/>
      <use x="732.6171875" xlink:href="#BitstreamVeraSans-Roman-63"/>
      <use x="787.59765625" xlink:href="#BitstreamVeraSans-Roman-74"/>
      <use x="826.806640625" xlink:href="#BitstreamVeraSans-Roman-61"/>
      <use x="888.0859375" xlink:href="#BitstreamVeraSans-Roman-64"/>
      <use x="951.5625" xlink:href="#BitstreamVeraSans-Roman-6f"/>
      <use x="1012.74414062" xlink:href="#BitstreamVeraSans-Roman-73"/>
     </g>
    </g>
   </g>
   <g id="text_13">
    <!-- GASIR - Genetic Algorithm for SIR Model - Melhor Caso -->
    <defs>
     <path d="M 9.8125 72.90625 
L 24.515625 72.90625 
L 43.109375 23.296875 
L 61.8125 72.90625 
L 76.515625 72.90625 
L 76.515625 0 
L 66.890625 0 
L 66.890625 64.015625 
L 48.09375 14.015625 
L 38.1875 14.015625 
L 19.390625 64.015625 
L 19.390625 0 
L 9.8125 0 
z
" id="BitstreamVeraSans-Roman-4d"/>
     <path d="M 52 44.1875 
Q 55.375 50.25 60.0625 53.125 
Q 64.75 56 71.09375 56 
Q 79.640625 56 84.28125 50.015625 
Q 88.921875 44.046875 88.921875 33.015625 
L 88.921875 0 
L 79.890625 0 
L 79.890625 32.71875 
Q 79.890625 40.578125 77.09375 44.375 
Q 74.3125 48.1875 68.609375 48.1875 
Q 61.625 48.1875 57.5625 43.546875 
Q 53.515625 38.921875 53.515625 30.90625 
L 53.515625 0 
L 44.484375 0 
L 44.484375 32.71875 
Q 44.484375 40.625 41.703125 44.40625 
Q 38.921875 48.1875 33.109375 48.1875 
Q 26.21875 48.1875 22.15625 43.53125 
Q 18.109375 38.875 18.109375 30.90625 
L 18.109375 0 
L 9.078125 0 
L 9.078125 54.6875 
L 18.109375 54.6875 
L 18.109375 46.1875 
Q 21.1875 51.21875 25.484375 53.609375 
Q 29.78125 56 35.6875 56 
Q 41.65625 56 45.828125 52.96875 
Q 50 49.953125 52 44.1875 
" id="BitstreamVeraSans-Roman-6d"/>
     <path d="M 9.421875 75.984375 
L 18.40625 75.984375 
L 18.40625 0 
L 9.421875 0 
z
" id="BitstreamVeraSans-Roman-6c"/>
     <path d="M 44.390625 34.1875 
Q 47.5625 33.109375 50.5625 29.59375 
Q 53.5625 26.078125 56.59375 19.921875 
L 66.609375 0 
L 56 0 
L 46.6875 18.703125 
Q 43.0625 26.03125 39.671875 28.421875 
Q 36.28125 30.8125 30.421875 30.8125 
L 19.671875 30.8125 
L 19.671875 0 
L 9.8125 0 
L 9.8125 72.90625 
L 32.078125 72.90625 
Q 44.578125 72.90625 50.734375 67.671875 
Q 56.890625 62.453125 56.890625 51.90625 
Q 56.890625 45.015625 53.6875 40.46875 
Q 50.484375 35.9375 44.390625 34.1875 
M 19.671875 64.796875 
L 19.671875 38.921875 
L 32.078125 38.921875 
Q 39.203125 38.921875 42.84375 42.21875 
Q 46.484375 45.515625 46.484375 51.90625 
Q 46.484375 58.296875 42.84375 61.546875 
Q 39.203125 64.796875 32.078125 64.796875 
z
" id="BitstreamVeraSans-Roman-52"/>
     <path d="M 53.515625 70.515625 
L 53.515625 60.890625 
Q 47.90625 63.578125 42.921875 64.890625 
Q 37.9375 66.21875 33.296875 66.21875 
Q 25.25 66.21875 20.875 63.09375 
Q 16.5 59.96875 16.5 54.203125 
Q 16.5 49.359375 19.40625 46.890625 
Q 22.3125 44.4375 30.421875 42.921875 
L 36.375 41.703125 
Q 47.40625 39.59375 52.65625 34.296875 
Q 57.90625 29 57.90625 20.125 
Q 57.90625 9.515625 50.796875 4.046875 
Q 43.703125 -1.421875 29.984375 -1.421875 
Q 24.8125 -1.421875 18.96875 -0.25 
Q 13.140625 0.921875 6.890625 3.21875 
L 6.890625 13.375 
Q 12.890625 10.015625 18.65625 8.296875 
Q 24.421875 6.59375 29.984375 6.59375 
Q 38.421875 6.59375 43.015625 9.90625 
Q 47.609375 13.234375 47.609375 19.390625 
Q 47.609375 24.75 44.3125 27.78125 
Q 41.015625 30.8125 33.5 32.328125 
L 27.484375 33.5 
Q 16.453125 35.6875 11.515625 40.375 
Q 6.59375 45.0625 6.59375 53.421875 
Q 6.59375 63.09375 13.40625 68.65625 
Q 20.21875 74.21875 32.171875 74.21875 
Q 37.3125 74.21875 42.625 73.28125 
Q 47.953125 72.359375 53.515625 70.515625 
" id="BitstreamVeraSans-Roman-53"/>
     <path d="M 64.40625 67.28125 
L 64.40625 56.890625 
Q 59.421875 61.53125 53.78125 63.8125 
Q 48.140625 66.109375 41.796875 66.109375 
Q 29.296875 66.109375 22.65625 58.46875 
Q 16.015625 50.828125 16.015625 36.375 
Q 16.015625 21.96875 22.65625 14.328125 
Q 29.296875 6.6875 41.796875 6.6875 
Q 48.140625 6.6875 53.78125 8.984375 
Q 59.421875 11.28125 64.40625 15.921875 
L 64.40625 5.609375 
Q 59.234375 2.09375 53.4375 0.328125 
Q 47.65625 -1.421875 41.21875 -1.421875 
Q 24.65625 -1.421875 15.125 8.703125 
Q 5.609375 18.84375 5.609375 36.375 
Q 5.609375 53.953125 15.125 64.078125 
Q 24.65625 74.21875 41.21875 74.21875 
Q 47.75 74.21875 53.53125 72.484375 
Q 59.328125 70.75 64.40625 67.28125 
" id="BitstreamVeraSans-Roman-43"/>
     <path d="M 4.890625 31.390625 
L 31.203125 31.390625 
L 31.203125 23.390625 
L 4.890625 23.390625 
z
" id="BitstreamVeraSans-Roman-2d"/>
     <path d="M 34.1875 63.1875 
L 20.796875 26.90625 
L 47.609375 26.90625 
z
M 28.609375 72.90625 
L 39.796875 72.90625 
L 67.578125 0 
L 57.328125 0 
L 50.6875 18.703125 
L 17.828125 18.703125 
L 11.1875 0 
L 0.78125 0 
z
" id="BitstreamVeraSans-Roman-41"/>
     <path d="M 45.40625 27.984375 
Q 45.40625 37.75 41.375 43.109375 
Q 37.359375 48.484375 30.078125 48.484375 
Q 22.859375 48.484375 18.828125 43.109375 
Q 14.796875 37.75 14.796875 27.984375 
Q 14.796875 18.265625 18.828125 12.890625 
Q 22.859375 7.515625 30.078125 7.515625 
Q 37.359375 7.515625 41.375 12.890625 
Q 45.40625 18.265625 45.40625 27.984375 
M 54.390625 6.78125 
Q 54.390625 -7.171875 48.1875 -13.984375 
Q 42 -20.796875 29.203125 -20.796875 
Q 24.46875 -20.796875 20.265625 -20.09375 
Q 16.0625 -19.390625 12.109375 -17.921875 
L 12.109375 -9.1875 
Q 16.0625 -11.328125 19.921875 -12.34375 
Q 23.78125 -13.375 27.78125 -13.375 
Q 36.625 -13.375 41.015625 -8.765625 
Q 45.40625 -4.15625 45.40625 5.171875 
L 45.40625 9.625 
Q 42.625 4.78125 38.28125 2.390625 
Q 33.9375 0 27.875 0 
Q 17.828125 0 11.671875 7.65625 
Q 5.515625 15.328125 5.515625 27.984375 
Q 5.515625 40.671875 11.671875 48.328125 
Q 17.828125 56 27.875 56 
Q 33.9375 56 38.28125 53.609375 
Q 42.625 51.21875 45.40625 46.390625 
L 45.40625 54.6875 
L 54.390625 54.6875 
z
" id="BitstreamVeraSans-Roman-67"/>
     <path d="M 54.890625 33.015625 
L 54.890625 0 
L 45.90625 0 
L 45.90625 32.71875 
Q 45.90625 40.484375 42.875 44.328125 
Q 39.84375 48.1875 33.796875 48.1875 
Q 26.515625 48.1875 22.3125 43.546875 
Q 18.109375 38.921875 18.109375 30.90625 
L 18.109375 0 
L 9.078125 0 
L 9.078125 75.984375 
L 18.109375 75.984375 
L 18.109375 46.1875 
Q 21.34375 51.125 25.703125 53.5625 
Q 30.078125 56 35.796875 56 
Q 45.21875 56 50.046875 50.171875 
Q 54.890625 44.34375 54.890625 33.015625 
" id="BitstreamVeraSans-Roman-68"/>
    </defs>
    <g transform="translate(98.7795 38.2)scale(0.144 -0.144)">
     <use xlink:href="#BitstreamVeraSans-Roman-47"/>
     <use x="77.490234375" xlink:href="#BitstreamVeraSans-Roman-41"/>
     <use x="145.8984375" xlink:href="#BitstreamVeraSans-Roman-53"/>
     <use x="209.375" xlink:href="#BitstreamVeraSans-Roman-49"/>
     <use x="238.8671875" xlink:href="#BitstreamVeraSans-Roman-52"/>
     <use x="308.349609375" xlink:href="#BitstreamVeraSans-Roman-20"/>
     <use x="340.13671875" xlink:href="#BitstreamVeraSans-Roman-2d"/>
     <use x="376.220703125" xlink:href="#BitstreamVeraSans-Roman-20"/>
     <use x="408.0078125" xlink:href="#BitstreamVeraSans-Roman-47"/>
     <use x="485.498046875" xlink:href="#BitstreamVeraSans-Roman-65"/>
     <use x="547.021484375" xlink:href="#BitstreamVeraSans-Roman-6e"/>
     <use x="610.400390625" xlink:href="#BitstreamVeraSans-Roman-65"/>
     <use x="671.923828125" xlink:href="#BitstreamVeraSans-Roman-74"/>
     <use x="711.1328125" xlink:href="#BitstreamVeraSans-Roman-69"/>
     <use x="738.916015625" xlink:href="#BitstreamVeraSans-Roman-63"/>
     <use x="793.896484375" xlink:href="#BitstreamVeraSans-Roman-20"/>
     <use x="825.68359375" xlink:href="#BitstreamVeraSans-Roman-41"/>
     <use x="894.091796875" xlink:href="#BitstreamVeraSans-Roman-6c"/>
     <use x="921.875" xlink:href="#BitstreamVeraSans-Roman-67"/>
     <use x="985.3515625" xlink:href="#BitstreamVeraSans-Roman-6f"/>
     <use x="1046.53320312" xlink:href="#BitstreamVeraSans-Roman-72"/>
     <use x="1087.64648438" xlink:href="#BitstreamVeraSans-Roman-69"/>
     <use x="1115.4296875" xlink:href="#BitstreamVeraSans-Roman-74"/>
     <use x="1154.63867188" xlink:href="#BitstreamVeraSans-Roman-68"/>
     <use x="1218.01757812" xlink:href="#BitstreamVeraSans-Roman-6d"/>
     <use x="1315.4296875" xlink:href="#BitstreamVeraSans-Roman-20"/>
     <use x="1347.21679688" xlink:href="#BitstreamVeraSans-Roman-66"/>
     <use x="1382.421875" xlink:href="#BitstreamVeraSans-Roman-6f"/>
     <use x="1443.60351562" xlink:href="#BitstreamVeraSans-Roman-72"/>
     <use x="1484.71679688" xlink:href="#BitstreamVeraSans-Roman-20"/>
     <use x="1516.50390625" xlink:href="#BitstreamVeraSans-Roman-53"/>
     <use x="1579.98046875" xlink:href="#BitstreamVeraSans-Roman-49"/>
     <use x="1609.47265625" xlink:href="#BitstreamVeraSans-Roman-52"/>
     <use x="1678.95507812" xlink:href="#BitstreamVeraSans-Roman-20"/>
     <use x="1710.7421875" xlink:href="#BitstreamVeraSans-Roman-4d"/>
     <use x="1797.02148438" xlink:href="#BitstreamVeraSans-Roman-6f"/>
     <use x="1858.203125" xlink:href="#BitstreamVeraSans-Roman-64"/>
     <use x="1921.6796875" xlink:href="#BitstreamVeraSans-Roman-65"/>
     <use x="1983.203125" xlink:href="#BitstreamVeraSans-Roman-6c"/>
     <use x="2010.98632812" xlink:href="#BitstreamVeraSans-Roman-20"/>
     <use x="2042.7734375" xlink:href="#BitstreamVeraSans-Roman-2d"/>
     <use x="2078.85742188" xlink:href="#BitstreamVeraSans-Roman-20"/>
     <use x="2110.64453125" xlink:href="#BitstreamVeraSans-Roman-4d"/>
     <use x="2196.92382812" xlink:href="#BitstreamVeraSans-Roman-65"/>
     <use x="2258.44726562" xlink:href="#BitstreamVeraSans-Roman-6c"/>
     <use x="2286.23046875" xlink:href="#BitstreamVeraSans-Roman-68"/>
     <use x="2349.609375" xlink:href="#BitstreamVeraSans-Roman-6f"/>
     <use x="2410.79101562" xlink:href="#BitstreamVeraSans-Roman-72"/>
     <use x="2451.90429688" xlink:href="#BitstreamVeraSans-Roman-20"/>
     <use x="2483.69140625" xlink:href="#BitstreamVeraSans-Roman-43"/>
     <use x="2553.515625" xlink:href="#BitstreamVeraSans-Roman-61"/>
     <use x="2614.79492188" xlink:href="#BitstreamVeraSans-Roman-73"/>
     <use x="2666.89453125" xlink:href="#BitstreamVeraSans-Roman-6f"/>
    </g>
   </g>
  </g>
 </g>
 <defs>
  <clipPath id="p243e6f28be">
   <rect height="345.6" width="446.4" x="72.0" y="43.2"/>
  </clipPath>
 </defs>
</svg>
